{"glyphs":{"0":{"ha":833,"x_min":82,"x_max":751,"o":"m 82 303 l 82 671 q 167 906 82 825 q 417 988 253 988 q 666 906 581 988 q 751 671 751 825 l 751 303 q 666 66 751 147 q 417 -15 581 -15 q 167 66 253 -15 q 82 303 82 147 m 222 671 l 222 303 q 272 158 222 208 q 417 108 322 108 q 562 158 513 108 q 611 303 611 208 l 611 671 q 562 815 611 765 q 417 865 513 865 q 272 815 322 865 q 222 671 222 765 m 349 613 l 485 613 l 485 360 l 349 360 l 349 613 z "},"1":{"ha":833,"x_min":104,"x_max":757,"o":"m 104 0 l 104 119 l 367 119 l 367 735 l 124 735 l 124 839 q 392 958 392 839 l 392 972 l 508 972 l 508 119 l 757 119 l 757 0 l 104 0 z "},"2":{"ha":833,"x_min":82,"x_max":757,"o":"m 82 0 l 82 136 l 611 665 q 560 814 611 763 q 411 865 508 865 q 265 814 315 865 q 214 665 214 763 l 82 665 q 167 905 82 822 q 415 988 251 988 q 665 905 579 988 q 751 665 751 822 l 751 619 l 256 124 l 757 124 l 757 0 l 82 0 z "},"3":{"ha":833,"x_min":82,"x_max":751,"o":"m 82 307 l 214 307 q 268 159 214 210 q 424 108 322 108 q 611 274 611 108 q 568 393 611 351 q 444 435 525 435 l 367 435 l 367 557 l 439 557 q 555 596 515 557 q 594 708 594 635 q 421 865 594 865 q 272 814 324 865 q 221 665 221 763 l 89 665 q 174 906 89 824 q 425 988 260 988 q 655 919 575 988 q 735 722 735 851 q 603 504 735 558 q 751 261 751 450 q 669 56 751 126 q 429 -15 586 -15 q 171 67 260 -15 q 82 307 82 150 z "},"4":{"ha":833,"x_min":82,"x_max":771,"o":"m 82 547 l 331 796 l 331 972 l 475 972 l 475 747 l 226 499 l 226 332 l 496 332 l 496 553 l 636 553 l 636 332 l 771 332 l 771 208 l 636 208 l 636 0 l 496 0 l 496 208 l 82 208 l 82 547 z "},"5":{"ha":833,"x_min":86,"x_max":751,"o":"m 86 297 l 226 297 q 276 157 226 206 q 422 108 326 108 q 563 157 514 108 q 611 299 611 206 q 565 436 611 389 q 431 483 519 483 l 121 483 l 121 972 l 704 972 l 704 849 l 249 849 l 249 606 l 431 606 q 669 527 588 606 q 751 297 751 449 q 667 65 751 144 q 422 -15 582 -15 q 172 65 258 -15 q 86 297 86 144 z "},"6":{"ha":833,"x_min":86,"x_max":751,"o":"m 86 297 l 86 658 q 171 903 86 819 q 415 988 256 988 q 655 905 572 988 q 738 665 738 822 l 606 665 q 558 814 606 763 q 419 865 511 865 q 276 813 325 865 q 226 658 226 760 l 226 575 l 431 575 q 669 500 588 575 q 751 282 751 425 q 667 61 751 138 q 422 -15 582 -15 q 172 65 258 -15 q 86 297 86 144 m 226 453 l 226 297 q 276 157 226 206 q 422 108 326 108 q 563 153 514 108 q 611 283 611 199 q 431 453 611 453 l 226 453 z "},"7":{"ha":833,"x_min":71,"x_max":751,"o":"m 71 972 l 751 972 l 751 667 l 450 367 l 450 0 l 306 0 l 306 414 l 607 715 l 607 849 l 71 849 l 71 972 z "},"8":{"ha":833,"x_min":79,"x_max":754,"o":"m 667 57 q 624 21 667 57 q 417 -15 581 -15 q 166 57 253 -15 q 79 265 79 129 q 215 506 79 438 q 107 724 107 574 q 186 920 107 853 q 417 988 265 988 q 647 920 568 988 q 726 724 726 853 q 618 506 726 574 q 754 265 754 438 q 667 57 754 129 m 270 398 q 245 377 270 398 q 219 275 219 356 q 270 151 219 194 q 417 108 321 108 q 564 151 514 108 q 614 275 614 193 q 417 440 614 440 q 270 398 321 440 m 417 865 q 291 826 335 865 q 247 714 247 788 q 417 564 247 564 q 586 714 586 564 q 417 865 586 865 z "},"9":{"ha":833,"x_min":86,"x_max":751,"o":"m 417 988 q 666 908 581 988 q 751 675 751 828 l 751 314 q 665 69 751 154 q 415 -15 579 -15 q 170 67 254 -15 q 86 307 86 150 l 218 307 q 267 159 218 210 q 411 108 317 108 q 560 161 508 108 q 611 314 611 214 l 611 404 l 407 404 q 168 478 250 404 q 86 694 86 551 q 171 913 86 838 q 417 988 256 988 m 407 526 l 611 526 l 611 675 q 561 816 611 767 q 417 865 511 865 q 275 821 324 865 q 226 694 226 776 q 273 569 226 613 q 407 526 319 526 z "},"\u0000":{"ha":0,"x_min":0,"x_max":0,"o":""},"\r":{"ha":347,"x_min":0,"x_max":0,"o":""}," ":{"ha":833,"x_min":0,"x_max":0,"o":""},"!":{"ha":833,"x_min":310,"x_max":524,"o":"m 346 332 l 346 972 l 488 972 l 488 332 l 346 332 m 310 92 q 338 171 310 143 q 417 199 365 199 q 496 171 468 199 q 524 92 524 143 q 417 -15 524 -15 q 310 92 310 -15 z "},"\"":{"ha":833,"x_min":240,"x_max":594,"o":"m 594 556 l 479 556 l 479 972 l 594 972 l 594 556 m 240 556 l 240 972 l 354 972 l 354 556 l 240 556 z "},"#":{"ha":833,"x_min":74,"x_max":760,"o":"m 74 321 l 207 321 l 207 651 l 74 651 l 74 749 l 207 749 l 207 972 l 304 972 l 304 749 l 529 749 l 529 972 l 626 972 l 626 749 l 760 749 l 760 651 l 626 651 l 626 321 l 760 321 l 760 224 l 626 224 l 626 0 l 529 0 l 529 224 l 304 224 l 304 0 l 207 0 l 207 224 l 74 224 l 74 321 m 529 651 l 304 651 l 304 321 l 529 321 l 529 651 z "},"$":{"ha":833,"x_min":82,"x_max":751,"o":"m 82 307 l 214 307 q 369 107 214 136 l 369 436 q 267 466 306 451 q 183 511 228 481 q 115 592 138 542 q 93 715 93 643 q 164 912 93 842 q 369 988 235 982 l 369 1111 l 458 1111 l 458 985 q 659 888 590 969 q 728 665 728 807 l 596 665 q 458 863 596 831 l 458 549 q 544 527 513 536 q 621 497 576 518 q 690 447 665 475 q 733 373 715 419 q 751 265 751 326 q 676 63 751 135 q 458 -15 601 -8 l 458 -139 l 369 -139 l 369 -12 q 156 83 229 1 q 82 307 82 164 m 619 256 q 578 358 619 324 q 458 414 536 393 l 458 104 q 619 256 619 115 m 369 868 q 263 826 300 863 q 225 725 225 789 q 262 626 225 661 q 369 571 299 592 l 369 868 z "},"%":{"ha":833,"x_min":39,"x_max":796,"o":"m 460 41 q 435 68 460 41 q 410 196 410 94 q 459 351 410 297 q 603 404 508 404 q 747 351 697 404 q 796 196 796 297 q 746 41 796 94 q 603 -12 696 -12 q 460 41 510 -12 m 88 624 q 64 651 88 624 q 39 779 39 678 q 88 934 39 881 q 231 988 136 988 q 374 934 325 988 q 424 779 424 881 q 374 624 424 678 q 231 571 324 571 q 88 624 138 571 m 200 0 l 76 0 l 76 226 l 633 789 l 633 972 l 757 972 l 757 746 l 200 183 l 200 0 m 525 196 q 525 140 525 196 q 603 85 525 85 q 681 196 681 85 q 603 307 681 307 q 525 196 525 307 m 231 669 q 310 781 310 669 q 231 892 310 892 q 153 781 153 892 q 231 669 153 669 z "},"&":{"ha":833,"x_min":82,"x_max":751,"o":"m 231 503 q 99 722 99 557 q 178 919 99 851 q 411 988 258 988 q 659 910 574 988 q 744 685 744 832 l 613 685 q 562 819 613 772 q 417 865 511 865 q 239 711 239 865 q 283 597 239 636 q 410 557 326 557 l 751 557 l 751 307 q 663 67 751 150 q 404 -15 574 -15 q 165 56 247 -15 q 82 261 82 126 q 231 503 82 447 m 413 108 q 567 159 514 108 q 619 307 619 210 l 619 439 l 408 439 q 270 397 318 439 q 222 274 222 354 q 271 151 222 193 q 413 108 319 108 z "},"'":{"ha":833,"x_min":360,"x_max":474,"o":"m 360 625 l 360 972 l 474 972 l 474 625 l 360 625 z "},"(":{"ha":833,"x_min":256,"x_max":592,"o":"m 256 94 l 256 810 q 342 1045 256 964 q 592 1126 428 1126 l 592 1013 q 434 960 489 1013 q 379 810 379 908 l 379 94 q 434 -57 379 -4 q 592 -110 489 -110 l 592 -224 q 342 -142 428 -224 q 256 94 256 -61 z "},")":{"ha":833,"x_min":242,"x_max":578,"o":"m 242 1013 l 242 1126 q 492 1045 406 1126 q 578 810 578 964 l 578 94 q 492 -142 578 -61 q 242 -224 406 -224 l 242 -110 q 399 -57 344 -110 q 454 94 454 -4 l 454 810 q 399 960 454 908 q 242 1013 344 1013 z "},"*":{"ha":833,"x_min":117,"x_max":717,"o":"m 117 525 l 240 525 l 347 632 l 240 739 l 117 739 l 117 836 l 281 836 l 417 701 l 553 838 l 717 838 l 717 740 l 594 740 l 486 632 l 593 525 l 715 525 l 715 428 l 553 428 l 417 563 l 281 428 l 117 428 l 117 525 m 368 818 l 368 972 l 465 972 l 465 818 l 368 818 m 465 292 l 368 292 l 368 446 l 465 446 l 465 292 z "},"+":{"ha":833,"x_min":117,"x_max":717,"o":"m 117 535 l 368 535 l 368 786 l 465 786 l 465 535 l 717 535 l 717 438 l 465 438 l 465 186 l 368 186 l 368 438 l 117 438 l 117 535 z "},",":{"ha":833,"x_min":174,"x_max":524,"o":"m 174 -278 l 174 -164 q 394 -14 350 -164 q 310 92 310 -3 q 338 171 310 143 q 417 199 365 199 q 496 171 468 199 q 524 92 524 143 q 434 -183 524 -89 q 174 -278 344 -278 z "},"-":{"ha":833,"x_min":186,"x_max":647,"o":"m 186 396 l 186 493 l 647 493 l 647 396 l 186 396 z "},".":{"ha":833,"x_min":310,"x_max":524,"o":"m 310 92 q 338 171 310 143 q 417 199 365 199 q 496 171 468 199 q 524 92 524 143 q 417 -15 524 -15 q 310 92 310 -15 z "},"/":{"ha":833,"x_min":63,"x_max":771,"o":"m 63 225 l 631 793 l 631 1111 l 771 1111 l 771 747 l 203 179 l 203 -139 l 63 -139 l 63 225 z "},":":{"ha":833,"x_min":310,"x_max":524,"o":"m 310 672 q 338 751 310 724 q 417 779 365 779 q 496 751 468 779 q 524 672 524 724 q 417 567 524 567 q 310 672 310 567 m 310 92 q 338 171 310 143 q 417 199 365 199 q 496 171 468 199 q 524 92 524 143 q 417 -15 524 -15 q 310 92 310 -15 z "},";":{"ha":833,"x_min":174,"x_max":524,"o":"m 174 -278 l 174 -164 q 394 -14 350 -164 q 310 92 310 -3 q 338 171 310 143 q 417 199 365 199 q 496 171 468 199 q 524 92 524 143 q 434 -183 524 -89 q 174 -278 344 -278 m 338 751 q 351 765 338 751 q 417 779 365 779 q 496 751 468 779 q 524 672 524 724 q 417 567 524 567 q 310 672 310 567 q 338 751 310 724 z "},"<":{"ha":833,"x_min":117,"x_max":717,"o":"m 117 449 l 117 526 l 358 767 l 717 767 l 717 671 l 400 671 l 217 488 l 400 304 l 717 304 l 717 207 l 358 207 l 117 449 z "},"=":{"ha":833,"x_min":117,"x_max":717,"o":"m 117 382 l 717 382 l 717 285 l 117 285 l 117 382 m 117 688 l 717 688 l 717 590 l 117 590 l 117 688 z "},">":{"ha":833,"x_min":117,"x_max":717,"o":"m 117 304 l 435 304 l 617 488 l 435 671 l 117 671 l 117 767 l 475 767 l 717 526 l 717 449 l 475 207 l 117 207 l 117 304 z "},"?":{"ha":833,"x_min":82,"x_max":751,"o":"m 214 665 l 82 665 q 169 905 82 822 q 422 988 256 988 q 667 912 582 988 q 751 692 751 836 q 684 496 751 563 q 488 429 617 429 l 488 332 l 346 332 l 346 549 l 461 549 q 611 696 611 549 q 562 822 611 778 q 419 865 513 865 q 267 814 319 865 q 214 665 214 763 m 524 90 q 417 -15 524 -15 q 310 90 310 -15 q 417 199 310 199 q 496 170 468 199 q 524 90 524 142 z "},"@":{"ha":833,"x_min":64,"x_max":769,"o":"m 64 640 q 154 887 64 801 q 417 972 244 972 q 679 887 589 972 q 769 640 769 801 l 769 0 l 554 0 q 363 59 429 0 q 297 229 297 118 l 297 344 q 363 517 297 458 q 554 576 429 576 l 629 576 l 629 636 q 574 794 629 740 q 417 849 519 849 q 259 794 314 849 q 204 636 204 740 l 204 54 q 259 -104 204 -50 q 417 -158 314 -158 l 685 -158 l 685 -278 l 417 -278 q 154 -192 244 -278 q 64 54 64 -107 l 64 640 m 554 457 q 438 344 438 457 l 438 233 q 467 149 438 178 q 554 119 497 119 l 629 119 l 629 457 l 554 457 z "},"A":{"ha":833,"x_min":93,"x_max":740,"o":"m 93 0 l 93 693 l 378 978 l 456 978 l 740 693 l 740 0 l 600 0 l 600 276 l 233 276 l 233 0 l 93 0 m 233 396 l 600 396 l 600 647 l 417 831 l 233 647 l 233 396 z "},"B":{"ha":833,"x_min":82,"x_max":751,"o":"m 444 0 l 82 0 l 82 972 l 422 972 q 634 906 561 972 q 707 713 707 840 q 600 504 707 561 q 751 269 751 451 q 673 69 751 138 q 444 0 594 0 m 222 124 l 444 124 q 569 163 526 124 q 611 279 611 203 q 568 394 611 354 q 444 435 525 435 l 222 435 l 222 124 m 422 849 l 222 849 l 222 557 l 422 557 q 567 703 567 557 q 422 849 567 849 z "},"C":{"ha":833,"x_min":82,"x_max":751,"o":"m 82 665 q 168 905 82 822 q 418 988 254 988 q 667 905 582 988 q 751 665 751 822 l 619 665 q 569 815 619 764 q 422 865 519 865 q 274 814 325 865 q 222 665 222 763 l 222 307 q 274 159 222 210 q 422 108 325 108 q 569 159 519 108 q 619 307 619 210 l 751 307 q 667 67 751 150 q 418 -15 582 -15 q 168 67 254 -15 q 82 307 82 150 l 82 665 z "},"D":{"ha":833,"x_min":82,"x_max":751,"o":"m 417 0 l 82 0 l 82 972 l 417 972 q 666 891 581 972 q 751 654 751 810 l 751 318 q 666 81 751 163 q 417 0 581 0 m 417 849 l 222 849 l 222 124 l 417 124 q 562 174 513 124 q 611 318 611 224 l 611 654 q 417 849 611 849 z "},"E":{"ha":833,"x_min":86,"x_max":747,"o":"m 747 0 l 86 0 l 86 972 l 740 972 l 740 853 l 226 853 l 226 550 l 675 550 l 675 432 l 226 432 l 226 119 l 747 119 l 747 0 z "},"F":{"ha":833,"x_min":93,"x_max":740,"o":"m 93 972 l 740 972 l 740 853 l 233 853 l 233 550 l 675 550 l 675 432 l 233 432 l 233 0 l 93 0 l 93 972 z "},"G":{"ha":833,"x_min":82,"x_max":751,"o":"m 82 667 q 168 906 82 824 q 418 988 254 988 q 667 905 582 988 q 751 665 751 822 l 619 665 q 569 815 619 764 q 422 865 519 865 q 274 815 325 865 q 222 667 222 764 l 222 307 q 274 159 222 210 q 422 108 325 108 q 569 159 519 108 q 619 307 619 210 l 619 411 l 417 411 l 417 529 l 751 529 l 751 307 q 667 67 751 150 q 418 -15 582 -15 q 168 67 254 -15 q 82 307 82 150 l 82 667 z "},"H":{"ha":833,"x_min":86,"x_max":747,"o":"m 86 972 l 226 972 l 226 554 l 607 554 l 607 972 l 747 972 l 747 0 l 607 0 l 607 436 l 226 436 l 226 0 l 86 0 l 86 972 z "},"I":{"ha":833,"x_min":90,"x_max":743,"o":"m 743 0 l 90 0 l 90 119 l 346 119 l 346 853 l 90 853 l 90 972 l 743 972 l 743 853 l 488 853 l 488 119 l 743 119 l 743 0 z "},"J":{"ha":833,"x_min":82,"x_max":751,"o":"m 82 303 l 222 303 q 272 158 222 208 q 417 108 322 108 q 562 158 513 108 q 611 303 611 208 l 611 853 l 182 853 l 182 972 l 751 972 l 751 303 q 666 66 751 147 q 417 -15 581 -15 q 167 66 253 -15 q 82 303 82 147 z "},"K":{"ha":833,"x_min":100,"x_max":747,"o":"m 100 0 l 100 972 l 240 972 l 240 554 l 325 554 l 607 838 l 607 972 l 747 972 l 747 792 l 451 496 l 747 200 l 747 0 l 607 0 l 607 153 l 324 436 l 240 436 l 240 0 l 100 0 z "},"L":{"ha":833,"x_min":93,"x_max":747,"o":"m 93 972 l 233 972 l 233 119 l 747 119 l 747 0 l 93 0 l 93 972 z "},"M":{"ha":833,"x_min":72,"x_max":761,"o":"m 213 0 l 72 0 l 72 972 l 213 972 l 213 821 l 417 617 l 621 821 l 621 972 l 761 972 l 761 0 l 621 0 l 621 633 l 439 451 l 396 451 l 213 633 l 213 0 z "},"N":{"ha":833,"x_min":86,"x_max":747,"o":"m 86 972 l 226 972 l 226 856 l 607 475 l 607 972 l 747 972 l 747 0 l 607 0 l 607 289 l 226 668 l 226 0 l 86 0 l 86 972 z "},"O":{"ha":833,"x_min":82,"x_max":751,"o":"m 82 303 l 82 671 q 167 906 82 825 q 417 988 253 988 q 666 906 581 988 q 751 671 751 825 l 751 303 q 666 66 751 147 q 417 -15 581 -15 q 167 66 253 -15 q 82 303 82 147 m 222 671 l 222 303 q 272 158 222 208 q 417 108 322 108 q 562 158 513 108 q 611 303 611 208 l 611 671 q 562 815 611 765 q 417 865 513 865 q 272 815 322 865 q 222 671 222 765 z "},"P":{"ha":833,"x_min":82,"x_max":751,"o":"m 222 0 l 82 0 l 82 972 l 444 972 q 673 898 594 972 q 751 682 751 824 q 673 467 751 542 q 444 393 594 393 l 222 393 l 222 0 m 222 849 l 222 515 l 444 515 q 568 558 525 515 q 611 682 611 601 q 568 806 611 764 q 444 849 525 849 l 222 849 z "},"Q":{"ha":833,"x_min":82,"x_max":751,"o":"m 82 303 l 82 671 q 167 906 82 825 q 417 988 253 988 q 666 906 581 988 q 751 671 751 825 l 751 303 q 488 -11 751 24 q 646 -154 494 -154 l 646 -278 q 426 -210 503 -278 q 347 -11 350 -142 q 149 85 217 6 q 82 303 82 165 m 222 671 l 222 303 q 272 158 222 208 q 417 108 322 108 q 562 158 513 108 q 611 303 611 208 l 611 671 q 562 815 611 765 q 417 865 513 865 q 272 815 322 865 q 222 671 222 765 z "},"R":{"ha":833,"x_min":82,"x_max":751,"o":"m 82 0 l 82 972 l 444 972 q 673 898 594 972 q 751 682 751 824 q 691 486 751 558 q 514 397 631 414 l 747 164 l 747 0 l 607 0 l 607 117 l 331 393 l 222 393 l 222 0 l 82 0 m 222 849 l 222 515 l 444 515 q 568 558 525 515 q 611 682 611 601 q 568 806 611 764 q 444 849 525 849 l 222 849 z "},"S":{"ha":833,"x_min":82,"x_max":751,"o":"m 82 307 l 214 307 q 269 159 214 210 q 429 108 324 108 q 615 257 615 108 q 593 338 615 304 q 534 387 571 371 q 450 417 497 403 q 354 440 403 431 q 258 469 306 449 q 174 516 211 489 q 115 594 138 543 q 93 715 93 646 q 171 917 93 847 q 397 988 249 988 q 643 905 558 988 q 728 665 728 822 l 596 665 q 545 814 596 763 q 397 865 494 865 q 272 828 315 865 q 229 722 229 792 q 251 642 229 675 q 310 594 274 610 q 394 565 347 579 q 490 542 442 551 q 586 513 539 533 q 670 466 633 493 q 729 388 707 439 q 751 267 751 336 q 669 57 751 129 q 428 -15 586 -15 q 171 67 260 -15 q 82 307 82 150 z "},"T":{"ha":833,"x_min":53,"x_max":782,"o":"m 346 853 l 53 853 l 53 972 l 782 972 l 782 853 l 488 853 l 488 0 l 346 0 l 346 853 z "},"U":{"ha":833,"x_min":82,"x_max":751,"o":"m 82 303 l 82 972 l 222 972 l 222 303 q 272 158 222 208 q 417 108 322 108 q 562 158 513 108 q 611 303 611 208 l 611 972 l 751 972 l 751 303 q 666 66 751 147 q 417 -15 581 -15 q 167 66 253 -15 q 82 303 82 147 z "},"V":{"ha":833,"x_min":86,"x_max":747,"o":"m 86 286 l 86 972 l 226 972 l 226 332 l 417 142 l 607 332 l 607 972 l 747 972 l 747 286 l 456 -6 l 378 -6 l 86 286 z "},"W":{"ha":833,"x_min":71,"x_max":763,"o":"m 247 -6 l 71 169 l 71 972 l 200 972 l 200 214 l 275 139 l 354 217 l 354 633 l 479 633 l 479 217 l 558 139 l 633 214 l 633 972 l 763 972 l 763 169 l 586 -6 l 526 -6 l 417 104 l 307 -6 l 247 -6 z "},"X":{"ha":833,"x_min":86,"x_max":747,"o":"m 86 0 l 86 263 l 321 497 l 86 732 l 86 972 l 226 972 l 226 778 l 417 588 l 607 778 l 607 972 l 747 972 l 747 732 l 514 497 l 747 263 l 747 0 l 607 0 l 607 217 l 417 407 l 226 217 l 226 0 l 86 0 z "},"Y":{"ha":833,"x_min":86,"x_max":747,"o":"m 86 663 l 86 972 l 226 972 l 226 708 l 417 518 l 607 708 l 607 972 l 747 972 l 747 663 l 488 401 l 488 0 l 346 0 l 346 401 l 86 663 z "},"Z":{"ha":833,"x_min":79,"x_max":754,"o":"m 79 972 l 754 972 l 754 735 l 224 204 l 224 119 l 754 119 l 754 0 l 79 0 l 79 253 l 610 782 l 610 853 l 79 853 l 79 972 z "},"[":{"ha":833,"x_min":256,"x_max":592,"o":"m 256 -208 l 256 1111 l 592 1111 l 592 997 l 379 997 l 379 -94 l 592 -94 l 592 -208 l 256 -208 z "},"\\":{"ha":833,"x_min":63,"x_max":771,"o":"m 203 1111 l 203 793 l 771 225 l 771 -139 l 631 -139 l 631 179 l 63 747 l 63 1111 l 203 1111 z "},"]":{"ha":833,"x_min":242,"x_max":578,"o":"m 242 1111 l 578 1111 l 578 -208 l 242 -208 l 242 -94 l 454 -94 l 454 997 l 242 997 l 242 1111 z "},"^":{"ha":833,"x_min":136,"x_max":697,"o":"m 136 625 l 136 736 l 378 978 l 456 978 l 697 736 l 697 625 l 589 625 l 589 707 l 417 879 l 244 707 l 244 625 l 136 625 z "},"_":{"ha":833,"x_min":0,"x_max":833,"o":"m 0 -193 l 0 -96 l 833 -96 l 833 -193 l 0 -193 z "},"`":{"ha":833,"x_min":293,"x_max":540,"o":"m 461 838 l 293 1006 l 293 1085 l 372 1085 l 540 917 l 540 838 l 461 838 z "},"a":{"ha":833,"x_min":79,"x_max":736,"o":"m 356 454 l 596 454 l 596 518 q 551 621 596 585 q 419 657 506 657 q 294 624 338 657 q 251 531 251 592 l 111 531 q 190 715 111 651 q 421 779 269 779 q 656 713 575 779 q 736 518 736 646 l 736 0 l 596 0 l 596 122 l 467 -7 l 354 -7 q 150 52 221 -7 q 79 224 79 111 q 150 395 79 336 q 356 454 221 454 m 219 229 q 354 117 219 117 l 436 117 l 596 275 l 596 340 l 356 340 q 219 229 219 340 z "},"b":{"ha":833,"x_min":86,"x_max":751,"o":"m 86 1042 l 226 1042 l 226 606 l 392 771 l 431 771 q 669 693 586 771 q 751 467 751 615 l 751 303 q 666 66 751 147 q 417 -15 581 -15 q 171 65 256 -15 q 86 297 86 144 l 86 1042 m 226 443 l 226 297 q 275 156 226 204 q 417 108 324 108 q 562 158 513 108 q 611 303 611 208 l 611 467 q 431 647 611 647 l 226 443 z "},"c":{"ha":833,"x_min":82,"x_max":751,"o":"m 82 313 l 82 451 q 170 695 82 611 q 425 779 258 779 q 668 703 585 779 q 751 481 751 626 l 611 481 q 425 657 611 657 q 274 604 326 657 q 222 451 222 551 l 222 313 q 274 161 222 214 q 425 108 326 108 q 611 283 611 108 l 751 283 q 668 62 751 139 q 425 -15 585 -15 q 170 69 258 -15 q 82 313 82 153 z "},"d":{"ha":833,"x_min":82,"x_max":747,"o":"m 82 297 l 82 467 q 165 693 82 615 q 403 771 247 771 l 442 771 l 607 606 l 607 1042 l 747 1042 l 747 0 l 607 0 l 607 158 l 442 -7 l 403 -7 q 165 71 247 -7 q 82 297 82 149 m 222 467 l 222 297 q 269 163 222 208 q 403 117 315 117 l 607 321 l 607 443 l 403 647 q 269 601 315 647 q 222 467 222 556 z "},"e":{"ha":833,"x_min":82,"x_max":751,"o":"m 82 293 l 82 476 q 167 701 82 624 q 415 779 253 779 q 666 699 581 779 q 751 467 751 619 l 751 329 l 222 329 l 222 293 q 277 156 222 203 q 436 108 332 108 q 566 142 521 108 q 611 238 611 175 l 751 238 q 670 49 751 114 q 433 -15 589 -15 q 172 64 263 -15 q 82 293 82 143 m 222 449 l 611 449 l 611 493 q 563 615 611 572 q 422 657 514 657 q 274 610 325 657 q 222 476 222 564 l 222 449 z "},"f":{"ha":833,"x_min":90,"x_max":743,"o":"m 715 0 l 90 0 l 90 119 l 299 119 l 299 644 l 90 644 l 90 764 l 299 764 q 376 970 299 899 q 603 1042 454 1042 l 743 1042 l 743 918 l 603 918 q 481 878 522 918 q 439 764 439 839 l 743 764 l 743 644 l 439 644 l 439 119 l 715 119 l 715 0 z "},"g":{"ha":833,"x_min":82,"x_max":747,"o":"m 82 297 l 82 463 q 167 699 82 617 q 417 781 253 781 q 663 700 578 781 q 747 467 747 619 l 747 13 q 667 -203 747 -129 q 435 -278 588 -278 l 151 -278 l 151 -154 l 435 -154 q 563 -111 518 -154 q 607 13 607 -68 l 607 158 l 442 -7 l 403 -7 q 165 71 247 -7 q 82 297 82 149 m 222 463 l 222 297 q 269 163 222 210 q 403 117 315 117 l 607 321 l 607 467 q 558 608 607 560 q 417 657 510 657 q 272 607 322 657 q 222 463 222 557 z "},"h":{"ha":833,"x_min":86,"x_max":747,"o":"m 86 0 l 86 1042 l 226 1042 l 226 606 l 392 771 l 431 771 q 666 695 585 771 q 747 476 747 619 l 747 0 l 607 0 l 607 476 q 562 603 607 560 q 431 647 517 647 l 226 443 l 226 0 l 86 0 z "},"i":{"ha":833,"x_min":90,"x_max":743,"o":"m 743 0 l 90 0 l 90 119 l 353 119 l 353 644 l 99 644 l 99 764 l 494 764 l 494 119 l 743 119 l 743 0 m 499 990 q 399 890 499 890 q 299 990 299 890 q 399 1090 299 1090 q 473 1065 447 1090 q 499 990 499 1039 z "},"j":{"ha":833,"x_min":104,"x_max":617,"o":"m 104 -278 l 104 -154 l 300 -154 q 427 -112 383 -154 q 471 13 471 -69 l 471 644 l 124 644 l 124 764 l 613 764 l 613 13 q 533 -203 613 -129 q 300 -278 453 -278 l 104 -278 m 617 990 q 517 890 617 890 q 417 990 417 890 q 517 1090 417 1090 q 590 1065 564 1090 q 617 990 617 1039 z "},"k":{"ha":833,"x_min":100,"x_max":747,"o":"m 100 0 l 100 1042 l 240 1042 l 240 446 l 343 446 l 607 710 l 607 764 l 747 764 l 747 664 l 471 386 l 747 108 l 747 0 l 607 0 l 607 63 l 343 326 l 240 326 l 240 0 l 100 0 z "},"l":{"ha":833,"x_min":90,"x_max":743,"o":"m 90 0 l 90 119 l 353 119 l 353 922 l 110 922 l 110 1042 l 494 1042 l 494 119 l 743 119 l 743 0 l 90 0 z "},"m":{"ha":833,"x_min":63,"x_max":771,"o":"m 63 -1 l 63 763 l 190 763 l 190 679 l 282 771 l 300 771 q 458 688 418 771 l 542 771 l 572 771 q 719 719 668 771 q 771 572 771 668 l 771 0 l 643 0 l 643 572 q 568 647 643 647 l 478 558 l 478 0 l 356 0 l 356 575 q 282 647 356 647 l 190 556 l 190 -1 l 63 -1 z "},"n":{"ha":833,"x_min":86,"x_max":747,"o":"m 86 0 l 86 764 l 226 764 l 226 606 l 392 771 l 431 771 q 666 695 585 771 q 747 476 747 619 l 747 0 l 607 0 l 607 476 q 562 603 607 560 q 431 647 517 647 l 226 443 l 226 0 l 86 0 z "},"o":{"ha":833,"x_min":82,"x_max":751,"o":"m 82 303 l 82 463 q 167 698 82 617 q 417 779 253 779 q 666 698 581 779 q 751 463 751 617 l 751 303 q 666 66 751 147 q 417 -15 581 -15 q 167 66 253 -15 q 82 303 82 147 m 222 463 l 222 303 q 272 158 222 208 q 417 108 322 108 q 562 158 513 108 q 611 303 611 208 l 611 463 q 562 607 611 557 q 417 657 513 657 q 272 607 322 657 q 222 463 222 557 z "},"p":{"ha":833,"x_min":86,"x_max":751,"o":"m 86 -278 l 86 764 l 226 764 l 226 606 l 392 771 l 431 771 q 669 693 586 771 q 751 467 751 615 l 751 297 q 669 71 751 149 q 431 -7 586 -7 l 392 -7 l 226 158 l 226 -278 l 86 -278 m 431 647 l 226 443 l 226 321 l 431 117 q 611 297 611 117 l 611 467 q 431 647 611 647 z "},"q":{"ha":833,"x_min":82,"x_max":747,"o":"m 82 297 l 82 463 q 167 699 82 617 q 417 781 253 781 q 663 700 578 781 q 747 467 747 619 l 747 -278 l 607 -278 l 607 158 l 442 -7 l 403 -7 q 165 71 247 -7 q 82 297 82 149 m 222 463 l 222 297 q 269 163 222 210 q 403 117 315 117 l 607 321 l 607 467 q 558 608 607 560 q 417 657 510 657 q 272 607 322 657 q 222 463 222 557 z "},"r":{"ha":833,"x_min":114,"x_max":747,"o":"m 254 0 l 114 0 l 114 764 l 254 764 l 254 606 l 419 771 l 458 771 q 673 703 599 771 q 747 504 747 635 l 747 476 l 607 476 l 607 504 q 458 647 607 647 l 254 443 l 254 0 z "},"s":{"ha":833,"x_min":82,"x_max":751,"o":"m 82 251 l 214 251 q 426 108 214 108 q 615 218 615 108 q 587 280 615 257 q 512 312 558 303 q 410 326 465 321 q 299 343 354 332 q 197 374 243 354 q 122 439 150 394 q 93 550 93 483 q 172 720 93 661 q 403 779 251 779 q 647 713 563 779 q 731 518 731 646 l 599 518 q 399 657 599 657 q 273 631 317 657 q 229 556 229 604 q 268 489 229 513 q 365 459 307 465 q 490 441 422 453 q 616 412 558 429 q 713 346 674 394 q 751 221 751 297 q 668 45 751 106 q 426 -15 585 -15 q 170 53 258 -15 q 82 251 82 121 z "},"t":{"ha":833,"x_min":86,"x_max":747,"o":"m 747 644 l 435 644 l 435 290 q 479 167 435 210 q 607 124 524 124 l 747 124 l 747 0 l 607 0 q 374 74 454 0 q 294 290 294 149 l 294 644 l 86 644 l 86 764 l 294 764 l 294 972 l 435 972 l 435 764 l 747 764 l 747 644 z "},"u":{"ha":833,"x_min":86,"x_max":747,"o":"m 86 764 l 226 764 l 226 283 q 271 160 226 203 q 399 117 315 117 l 607 325 l 607 764 l 747 764 l 747 0 l 607 0 l 607 163 l 438 -7 l 399 -7 q 166 67 246 -7 q 86 283 86 142 l 86 764 z "},"v":{"ha":833,"x_min":86,"x_max":747,"o":"m 86 286 l 86 764 l 226 764 l 226 332 l 417 142 l 607 332 l 607 764 l 747 764 l 747 286 l 456 -6 l 378 -6 l 86 286 z "},"w":{"ha":833,"x_min":76,"x_max":757,"o":"m 250 -6 l 76 167 l 76 764 l 206 764 l 206 211 l 278 139 l 354 215 l 354 556 l 479 556 l 479 215 l 556 139 l 629 211 l 629 764 l 757 764 l 757 167 l 585 -6 l 524 -6 l 417 101 l 310 -6 l 250 -6 z "},"x":{"ha":833,"x_min":86,"x_max":747,"o":"m 86 0 l 86 151 l 321 386 l 86 621 l 86 764 l 226 764 l 226 667 l 417 476 l 607 667 l 607 764 l 747 764 l 747 621 l 514 386 l 747 151 l 747 0 l 607 0 l 607 106 l 417 296 l 226 106 l 226 0 l 86 0 z "},"y":{"ha":833,"x_min":86,"x_max":747,"o":"m 86 764 l 226 764 l 226 283 q 271 160 226 203 q 399 117 315 117 l 607 325 l 607 764 l 747 764 l 747 13 q 667 -203 747 -129 q 435 -278 588 -278 l 151 -278 l 151 -154 l 435 -154 q 563 -111 518 -154 q 607 13 607 -68 l 607 163 l 438 -7 l 399 -7 q 166 67 246 -7 q 86 283 86 142 l 86 764 z "},"z":{"ha":833,"x_min":79,"x_max":754,"o":"m 79 764 l 754 764 l 754 624 l 250 119 l 754 119 l 754 0 l 79 0 l 79 142 l 583 644 l 79 644 l 79 764 z "},"{":{"ha":833,"x_min":200,"x_max":633,"o":"m 200 399 l 200 504 q 319 543 278 504 q 360 656 360 582 l 360 869 q 430 1061 360 996 q 633 1126 500 1126 l 633 1013 q 522 976 560 1013 q 483 869 483 939 l 483 656 q 369 451 483 507 q 483 247 483 396 l 483 33 q 522 -73 483 -36 q 633 -110 560 -110 l 633 -224 q 430 -158 500 -224 q 360 33 360 -93 l 360 247 q 200 399 360 399 z "},"|":{"ha":833,"x_min":368,"x_max":465,"o":"m 368 -139 l 368 1111 l 465 1111 l 465 -139 l 368 -139 z "},"}":{"ha":833,"x_min":200,"x_max":633,"o":"m 200 1013 l 200 1126 q 403 1061 333 1126 q 474 869 474 996 l 474 656 q 515 543 474 582 q 633 504 557 504 l 633 399 q 515 360 556 399 q 474 247 474 321 l 474 33 q 403 -158 474 -93 q 200 -224 333 -224 l 200 -110 q 313 -73 274 -110 q 351 33 351 -36 l 351 247 q 464 451 351 396 q 351 656 351 507 l 351 869 q 313 976 351 939 q 200 1013 274 1013 z "},"~":{"ha":833,"x_min":90,"x_max":743,"o":"m 188 392 l 90 392 q 140 542 90 490 q 282 594 189 594 q 374 576 335 594 q 433 535 414 557 q 483 494 453 513 q 549 475 513 475 q 646 582 646 475 l 743 582 q 694 431 743 483 q 551 378 644 378 q 459 397 499 378 q 400 438 419 415 q 351 478 381 460 q 285 497 321 497 q 188 392 188 497 z "},"¡":{"ha":833,"x_min":310,"x_max":524,"o":"m 346 432 l 488 432 l 488 -208 l 346 -208 l 346 432 m 310 672 q 417 779 310 779 q 524 672 524 779 q 496 594 524 621 q 417 567 468 567 q 310 672 310 567 z "},"¢":{"ha":833,"x_min":82,"x_max":751,"o":"m 82 313 l 82 451 q 158 684 82 601 q 382 778 235 767 l 382 903 l 471 903 l 471 778 q 680 691 608 767 q 751 481 751 615 l 611 481 q 471 653 611 632 l 471 111 q 611 283 611 132 l 751 283 q 680 72 751 149 q 471 -14 608 -4 l 471 -139 l 382 -139 l 382 -14 q 158 80 235 -4 q 82 313 82 164 m 222 451 l 222 313 q 263 173 222 225 q 382 111 304 121 l 382 653 q 222 451 222 632 z "},"£":{"ha":833,"x_min":63,"x_max":757,"o":"m 143 404 l 63 404 l 63 501 l 143 501 l 143 693 q 222 913 143 838 q 450 988 300 988 q 678 912 599 988 q 757 693 757 836 l 625 693 q 581 821 625 776 q 456 865 538 865 q 328 821 372 865 q 283 693 283 776 l 283 501 l 536 501 l 536 404 l 283 404 l 283 178 l 225 119 l 757 119 l 757 0 l 63 0 l 63 119 l 143 199 l 143 404 z "},"¤":{"ha":833,"x_min":133,"x_max":700,"o":"m 133 701 l 133 769 l 201 769 l 299 674 q 417 700 343 700 q 535 674 490 700 l 632 769 l 700 769 l 700 701 l 603 604 q 631 486 631 561 q 604 368 631 415 l 700 271 l 700 203 l 632 203 l 535 299 q 417 272 490 272 q 299 299 343 272 l 201 203 l 133 203 l 133 271 l 231 369 q 203 486 203 417 q 231 604 203 557 l 133 701 m 300 486 q 300 428 300 486 q 417 369 300 369 q 533 486 533 369 q 417 603 533 603 q 300 486 300 603 z "},"¥":{"ha":833,"x_min":86,"x_max":747,"o":"m 86 972 l 226 972 l 226 708 l 417 518 l 607 708 l 607 972 l 747 972 l 747 663 l 500 415 l 651 415 l 651 318 l 488 318 l 488 221 l 651 221 l 651 124 l 488 124 l 488 0 l 346 0 l 346 124 l 182 124 l 182 221 l 346 221 l 346 318 l 182 318 l 182 415 l 333 415 l 86 663 l 86 972 z "},"¦":{"ha":833,"x_min":368,"x_max":465,"o":"m 368 -139 l 368 347 l 465 347 l 465 -139 l 368 -139 m 465 625 l 368 625 l 368 1111 l 465 1111 l 465 625 z "},"§":{"ha":833,"x_min":89,"x_max":744,"o":"m 93 425 l 229 425 q 267 355 229 381 q 363 322 306 329 q 487 302 419 315 q 611 271 554 289 q 706 204 668 253 q 744 79 744 156 q 664 -94 744 -35 q 431 -154 583 -154 q 181 -87 267 -154 q 96 108 96 -19 l 228 108 q 435 -32 228 -32 q 608 75 608 -32 q 570 142 608 118 q 475 174 532 167 q 351 196 418 182 q 226 228 283 210 q 131 297 169 247 q 93 425 93 347 m 89 754 q 169 928 89 868 q 403 988 250 988 q 652 921 567 988 q 738 726 738 854 l 606 726 q 553 829 606 793 q 400 865 500 865 q 225 758 225 865 q 263 691 225 715 q 358 659 301 667 q 483 638 415 651 q 607 605 550 624 q 702 536 664 586 q 740 408 740 486 l 604 408 q 566 478 604 453 q 471 511 528 504 q 347 531 414 518 q 222 563 279 544 q 127 629 165 581 q 89 754 89 678 z "},"¨":{"ha":833,"x_min":161,"x_max":672,"o":"m 581 881 q 490 971 490 881 q 581 1063 490 1063 q 672 971 672 1063 q 581 881 672 881 m 161 971 q 253 1063 161 1063 q 344 971 344 1063 q 253 881 344 881 q 161 971 161 881 z "},"©":{"ha":833,"x_min":68,"x_max":765,"o":"m 68 639 q 158 898 68 808 q 417 988 247 988 q 676 898 586 988 q 765 639 765 808 l 765 333 q 676 74 765 164 q 417 -15 586 -15 q 158 74 247 -15 q 68 333 68 164 l 68 639 m 165 333 q 230 147 165 211 q 417 82 294 82 q 603 147 539 82 q 668 333 668 211 l 668 639 q 603 826 668 761 q 417 890 539 890 q 230 826 294 890 q 165 639 165 761 l 165 333 m 544 276 q 523 254 544 276 q 418 232 501 232 q 290 276 335 232 q 246 401 246 319 l 246 572 q 290 697 246 654 q 418 740 335 740 q 544 697 501 740 q 588 572 588 654 l 497 572 q 421 656 497 656 q 343 572 343 656 l 343 401 q 421 318 343 318 q 497 401 497 318 l 588 401 q 544 276 588 319 z "},"ª":{"ha":833,"x_min":200,"x_max":622,"o":"m 378 778 l 525 778 l 525 815 q 418 897 525 897 q 317 824 317 897 l 219 824 q 271 942 219 901 q 419 983 322 983 q 570 940 518 983 q 622 815 622 896 l 622 486 l 525 486 l 525 556 l 450 482 l 378 482 q 200 631 200 482 q 378 778 200 778 m 297 633 q 378 567 297 567 l 431 567 l 525 661 l 525 699 l 378 699 q 297 633 297 699 z "},"«":{"ha":833,"x_min":94,"x_max":740,"o":"m 335 164 l 94 406 l 94 483 l 335 724 l 407 724 l 407 617 l 365 617 l 193 444 l 365 272 l 407 272 l 407 164 l 335 164 m 428 406 l 428 483 l 668 724 l 740 724 l 740 617 l 699 617 l 526 444 l 699 272 l 740 272 l 740 164 l 668 164 l 428 406 z "},"¬":{"ha":833,"x_min":117,"x_max":717,"o":"m 117 501 l 117 599 l 717 599 l 717 293 l 619 293 l 619 501 l 117 501 z "},"­":{"ha":833,"x_min":186,"x_max":647,"o":"m 186 396 l 186 493 l 647 493 l 647 396 l 186 396 z "},"®":{"ha":833,"x_min":68,"x_max":765,"o":"m 68 639 q 158 898 68 808 q 417 988 247 988 q 676 898 586 988 q 765 639 765 808 l 765 333 q 676 74 765 164 q 417 -15 586 -15 q 158 74 247 -15 q 68 333 68 164 l 68 639 m 165 333 q 230 147 165 211 q 417 82 294 82 q 603 147 539 82 q 668 333 668 211 l 668 639 q 603 826 668 761 q 417 890 539 890 q 230 826 294 890 q 165 639 165 761 l 165 333 m 419 729 q 542 690 500 729 q 585 579 585 651 q 483 435 585 463 l 581 338 l 581 243 l 485 243 l 485 306 l 363 428 l 353 428 l 353 243 l 257 243 l 257 729 l 419 729 m 353 511 l 419 511 q 488 579 488 511 q 419 646 488 646 l 353 646 l 353 511 z "},"¯":{"ha":833,"x_min":200,"x_max":633,"o":"m 200 893 l 200 990 l 633 990 l 633 893 l 200 893 z "},"°":{"ha":833,"x_min":228,"x_max":606,"o":"m 276 940 q 301 964 276 940 q 417 988 325 988 q 557 940 508 988 q 606 800 606 892 q 557 660 606 708 q 417 611 508 611 q 276 660 325 611 q 228 800 228 708 q 276 940 228 892 m 325 800 q 417 708 325 708 q 508 800 508 708 q 417 890 508 890 q 325 800 325 890 z "},"±":{"ha":833,"x_min":117,"x_max":717,"o":"m 117 626 l 368 626 l 368 876 l 465 876 l 465 626 l 717 626 l 717 529 l 465 529 l 465 278 l 368 278 l 368 529 l 117 529 l 117 626 m 117 193 l 717 193 l 717 96 l 117 96 l 117 193 z "},"²":{"ha":833,"x_min":239,"x_max":596,"o":"m 596 486 l 239 486 l 239 556 l 497 815 q 414 899 497 899 q 329 815 329 899 l 239 815 q 285 940 239 897 q 417 983 331 983 q 549 940 503 983 q 594 815 594 897 l 594 783 l 383 571 l 596 571 l 596 486 z "},"³":{"ha":833,"x_min":239,"x_max":594,"o":"m 239 644 l 329 644 q 421 561 329 561 q 497 628 497 561 q 431 692 497 692 l 389 692 l 389 775 l 429 775 q 490 836 490 775 q 419 899 490 899 q 333 815 333 899 l 243 815 q 289 940 243 897 q 421 983 335 983 q 544 947 501 983 q 588 846 588 911 q 531 739 588 772 q 594 619 594 706 q 551 513 594 550 q 424 475 507 475 q 287 519 335 475 q 239 644 239 563 z "},"´":{"ha":833,"x_min":293,"x_max":540,"o":"m 372 838 l 293 838 l 293 917 l 461 1085 l 540 1085 l 540 1006 l 372 838 z "},"µ":{"ha":833,"x_min":86,"x_max":747,"o":"m 86 -278 l 86 764 l 226 764 l 226 119 l 399 119 l 607 328 l 607 764 l 747 764 l 747 0 l 607 0 l 607 169 l 438 0 l 226 0 l 226 -278 l 86 -278 z "},"¶":{"ha":833,"x_min":82,"x_max":751,"o":"m 82 747 q 142 915 82 857 q 318 972 203 972 l 490 972 l 490 0 l 365 0 l 365 410 l 314 410 q 141 467 200 410 q 82 633 82 524 l 82 747 m 751 0 l 624 0 l 624 972 l 751 972 l 751 0 z "},"·":{"ha":833,"x_min":310,"x_max":524,"o":"m 310 486 q 338 565 310 538 q 417 593 365 593 q 496 565 468 593 q 524 486 524 538 q 496 407 524 435 q 417 379 468 379 q 310 486 310 379 z "},"¸":{"ha":833,"x_min":318,"x_max":517,"o":"m 318 -176 l 375 -176 q 419 -132 419 -176 l 363 -76 l 363 0 l 460 0 l 460 -42 l 517 -97 l 517 -132 q 481 -237 517 -200 q 375 -274 444 -274 l 318 -274 l 318 -176 z "},"¹":{"ha":833,"x_min":253,"x_max":596,"o":"m 253 567 l 379 567 l 379 833 l 260 833 l 260 903 q 396 965 396 903 l 396 972 l 475 972 l 475 567 l 596 567 l 596 486 l 253 486 l 253 567 z "},"º":{"ha":833,"x_min":200,"x_max":633,"o":"m 200 681 l 200 779 q 256 931 200 878 q 417 983 311 983 q 578 931 522 983 q 633 779 633 878 l 633 681 q 578 528 633 581 q 417 475 522 475 q 256 528 311 475 q 200 681 200 581 m 299 779 l 299 681 q 329 591 299 622 q 417 560 360 560 q 535 681 535 560 l 535 779 q 417 897 535 897 q 299 779 299 897 z "},"»":{"ha":833,"x_min":94,"x_max":740,"o":"m 94 272 l 136 272 l 308 444 l 136 617 l 94 617 l 94 724 l 165 724 l 407 483 l 407 406 l 165 164 l 94 164 l 94 272 m 428 164 l 428 272 l 469 272 l 642 444 l 469 617 l 428 617 l 428 724 l 499 724 l 740 483 l 740 406 l 499 164 l 428 164 z "},"¼":{"ha":833,"x_min":53,"x_max":782,"o":"m 418 104 l 418 283 l 535 400 l 535 486 l 635 486 l 635 367 l 518 250 l 518 189 l 626 189 l 626 281 l 722 281 l 722 189 l 782 189 l 782 104 l 722 104 l 722 0 l 626 0 l 626 104 l 418 104 m 53 567 l 179 567 l 179 833 l 60 833 l 60 903 q 194 965 194 903 l 194 972 l 275 972 l 275 567 l 394 567 l 394 486 l 53 486 l 53 567 m 564 703 l 674 813 l 674 972 l 771 972 l 771 771 l 633 633 l 564 633 l 564 703 m 160 0 l 63 0 l 63 201 l 200 339 l 269 339 l 269 269 l 160 160 l 160 0 z "},"½":{"ha":833,"x_min":53,"x_max":779,"o":"m 779 0 l 424 0 l 424 69 l 682 329 q 597 413 682 413 q 514 329 514 413 l 424 329 q 469 454 424 411 q 601 497 514 497 q 733 454 688 497 q 779 329 779 411 l 779 297 l 567 85 l 779 85 l 779 0 m 53 486 l 53 567 l 179 567 l 179 833 l 60 833 l 60 903 q 194 965 194 903 l 194 972 l 275 972 l 275 567 l 394 567 l 394 486 l 53 486 m 564 703 l 674 813 l 674 972 l 771 972 l 771 771 l 633 633 l 564 633 l 564 703 m 160 0 l 63 0 l 63 201 l 200 339 l 269 339 l 269 269 l 160 160 l 160 0 z "},"¾":{"ha":833,"x_min":53,"x_max":782,"o":"m 53 644 l 143 644 q 233 561 143 561 q 311 628 311 561 q 243 692 311 692 l 203 692 l 203 775 l 242 775 q 304 836 304 775 q 232 899 304 899 q 146 815 146 899 l 56 815 q 101 940 56 897 q 235 983 147 983 q 358 947 314 983 q 401 846 401 911 q 343 739 401 772 q 408 619 408 706 q 364 513 408 550 q 238 475 319 475 q 100 519 147 475 q 53 644 53 563 m 418 104 l 418 283 l 535 400 l 535 486 l 635 486 l 635 367 l 518 250 l 518 189 l 626 189 l 626 281 l 722 281 l 722 189 l 782 189 l 782 104 l 722 104 l 722 0 l 626 0 l 626 104 l 418 104 m 63 201 l 200 339 l 269 339 l 269 269 l 160 160 l 160 0 l 63 0 l 63 201 m 564 703 l 674 813 l 674 972 l 771 972 l 771 771 l 633 633 l 564 633 l 564 703 z "},"¿":{"ha":833,"x_min":82,"x_max":751,"o":"m 411 -224 q 167 -148 251 -224 q 82 72 82 -72 q 149 268 82 201 q 346 335 217 335 l 346 432 l 488 432 l 488 215 l 372 215 q 222 69 222 215 q 272 -57 222 -12 q 414 -101 321 -101 q 567 -50 514 -101 q 619 99 619 1 l 751 99 q 665 -141 751 -58 q 411 -224 578 -224 m 417 567 q 338 594 365 567 q 310 674 310 622 q 417 779 310 779 q 524 674 524 779 q 417 567 524 567 z "},"À":{"ha":833,"x_min":93,"x_max":740,"o":"m 93 0 l 93 693 l 378 978 l 456 978 l 740 693 l 740 0 l 600 0 l 600 276 l 233 276 l 233 0 l 93 0 m 233 396 l 600 396 l 600 647 l 417 831 l 233 647 l 233 396 m 251 1204 l 251 1283 l 331 1283 l 499 1115 l 499 1036 l 419 1036 l 251 1204 z "},"Á":{"ha":833,"x_min":93,"x_max":740,"o":"m 93 0 l 93 693 l 378 978 l 456 978 l 740 693 l 740 0 l 600 0 l 600 276 l 233 276 l 233 0 l 93 0 m 233 396 l 600 396 l 600 647 l 417 831 l 233 647 l 233 396 m 335 1036 l 335 1115 l 503 1283 l 582 1283 l 582 1204 l 414 1036 l 335 1036 z "},"Â":{"ha":833,"x_min":93,"x_max":740,"o":"m 93 693 l 378 978 l 456 978 l 740 693 l 740 0 l 600 0 l 600 276 l 233 276 l 233 0 l 93 0 l 93 693 m 233 396 l 600 396 l 600 647 l 417 831 l 233 647 l 233 396 m 215 1036 l 215 1111 l 388 1283 l 446 1283 l 618 1111 l 618 1036 l 543 1036 l 417 1163 l 290 1036 l 215 1036 z "},"Ã":{"ha":833,"x_min":93,"x_max":740,"o":"m 93 693 l 378 978 l 456 978 l 740 693 l 740 0 l 600 0 l 600 276 l 233 276 l 233 0 l 93 0 l 93 693 m 233 396 l 600 396 l 600 647 l 417 831 l 233 647 l 233 396 m 256 1086 l 158 1086 q 200 1215 158 1171 q 319 1260 242 1260 q 393 1246 363 1260 q 437 1215 424 1232 q 469 1183 450 1197 q 514 1169 489 1169 q 578 1244 578 1169 l 675 1244 q 633 1117 675 1161 q 514 1072 592 1072 q 441 1086 471 1072 q 398 1117 411 1100 q 365 1149 385 1135 q 319 1163 344 1163 q 256 1086 256 1163 z "},"Ä":{"ha":833,"x_min":93,"x_max":740,"o":"m 93 693 l 378 978 l 456 978 l 740 693 l 740 0 l 600 0 l 600 276 l 233 276 l 233 0 l 93 0 l 93 693 m 233 396 l 600 396 l 600 647 l 417 831 l 233 647 l 233 396 m 581 1078 q 490 1169 490 1078 q 581 1261 490 1261 q 649 1238 625 1261 q 672 1169 672 1214 q 581 1078 672 1078 m 161 1169 q 185 1238 161 1214 q 253 1261 208 1261 q 321 1238 297 1261 q 344 1169 344 1214 q 253 1078 344 1078 q 161 1169 161 1078 z "},"Å":{"ha":833,"x_min":93,"x_max":740,"o":"m 93 0 l 93 693 l 378 978 l 456 978 l 740 693 l 740 0 l 600 0 l 600 276 l 233 276 l 233 0 l 93 0 m 233 396 l 600 396 l 600 647 l 417 831 l 233 647 l 233 396 m 272 1168 q 417 1311 272 1311 q 561 1168 561 1311 q 417 1024 561 1024 q 310 1060 347 1024 q 272 1168 272 1097 m 353 1168 q 417 1103 353 1103 q 481 1168 481 1103 q 417 1232 481 1232 q 353 1168 353 1232 z "},"Æ":{"ha":833,"x_min":93,"x_max":747,"o":"m 233 0 l 93 0 l 93 693 l 372 972 l 740 972 l 740 853 l 544 853 l 544 550 l 719 550 l 719 432 l 544 432 l 544 119 l 747 119 l 747 0 l 408 0 l 408 276 l 233 276 l 233 0 m 233 396 l 408 396 l 408 822 l 233 647 l 233 396 z "},"Ç":{"ha":833,"x_min":82,"x_max":751,"o":"m 82 307 l 82 665 q 168 905 82 822 q 418 988 254 988 q 667 905 582 988 q 751 665 751 822 l 619 665 q 569 815 619 764 q 422 865 519 865 q 274 814 325 865 q 222 665 222 763 l 222 307 q 274 159 222 210 q 422 108 325 108 q 569 159 519 108 q 619 307 619 210 l 751 307 q 678 79 751 161 q 465 -14 606 -3 l 465 -42 l 522 -97 l 522 -132 q 486 -237 522 -200 q 381 -274 450 -274 l 324 -274 l 324 -176 l 381 -176 q 425 -132 425 -176 l 368 -76 l 368 -14 q 155 81 228 -1 q 82 307 82 163 z "},"È":{"ha":833,"x_min":86,"x_max":747,"o":"m 747 0 l 86 0 l 86 972 l 740 972 l 740 853 l 226 853 l 226 550 l 675 550 l 675 432 l 226 432 l 226 119 l 747 119 l 747 0 m 258 1283 l 338 1283 l 506 1115 l 506 1036 l 426 1036 l 258 1204 l 258 1283 z "},"É":{"ha":833,"x_min":86,"x_max":747,"o":"m 747 0 l 86 0 l 86 972 l 740 972 l 740 853 l 226 853 l 226 550 l 675 550 l 675 432 l 226 432 l 226 119 l 747 119 l 747 0 m 342 1115 l 510 1283 l 589 1283 l 589 1204 l 421 1036 l 342 1036 l 342 1115 z "},"Ê":{"ha":833,"x_min":86,"x_max":747,"o":"m 747 0 l 86 0 l 86 972 l 740 972 l 740 853 l 226 853 l 226 550 l 675 550 l 675 432 l 226 432 l 226 119 l 747 119 l 747 0 m 222 1036 l 222 1111 l 394 1283 l 453 1283 l 625 1111 l 625 1036 l 550 1036 l 424 1163 l 297 1036 l 222 1036 z "},"Ë":{"ha":833,"x_min":86,"x_max":747,"o":"m 747 0 l 86 0 l 86 972 l 740 972 l 740 853 l 226 853 l 226 550 l 675 550 l 675 432 l 226 432 l 226 119 l 747 119 l 747 0 m 588 1261 q 655 1238 631 1261 q 679 1169 679 1214 q 588 1078 679 1078 q 497 1169 497 1078 q 588 1261 497 1261 m 192 1238 q 205 1249 192 1238 q 260 1261 217 1261 q 327 1238 303 1261 q 351 1169 351 1214 q 260 1078 351 1078 q 168 1169 168 1078 q 192 1238 168 1214 z "},"Ì":{"ha":833,"x_min":90,"x_max":743,"o":"m 90 119 l 346 119 l 346 853 l 90 853 l 90 972 l 743 972 l 743 853 l 488 853 l 488 119 l 743 119 l 743 0 l 90 0 l 90 119 m 251 1204 l 251 1283 l 331 1283 l 499 1115 l 499 1036 l 419 1036 l 251 1204 z "},"Í":{"ha":833,"x_min":90,"x_max":743,"o":"m 90 119 l 346 119 l 346 853 l 90 853 l 90 972 l 743 972 l 743 853 l 488 853 l 488 119 l 743 119 l 743 0 l 90 0 l 90 119 m 335 1036 l 335 1115 l 503 1283 l 582 1283 l 582 1204 l 414 1036 l 335 1036 z "},"Î":{"ha":833,"x_min":90,"x_max":743,"o":"m 90 119 l 346 119 l 346 853 l 90 853 l 90 972 l 743 972 l 743 853 l 488 853 l 488 119 l 743 119 l 743 0 l 90 0 l 90 119 m 215 1111 l 388 1283 l 446 1283 l 618 1111 l 618 1036 l 543 1036 l 417 1163 l 290 1036 l 215 1036 l 215 1111 z "},"Ï":{"ha":833,"x_min":90,"x_max":743,"o":"m 90 853 l 90 972 l 743 972 l 743 853 l 488 853 l 488 119 l 743 119 l 743 0 l 90 0 l 90 119 l 346 119 l 346 853 l 90 853 m 581 1078 q 490 1169 490 1078 q 581 1261 490 1261 q 649 1238 625 1261 q 672 1169 672 1214 q 581 1078 672 1078 m 161 1169 q 185 1238 161 1214 q 253 1261 208 1261 q 321 1238 297 1261 q 344 1169 344 1214 q 253 1078 344 1078 q 161 1169 161 1078 z "},"Ð":{"ha":833,"x_min":0,"x_max":751,"o":"m 0 542 l 82 542 l 82 972 l 417 972 q 666 891 581 972 q 751 654 751 810 l 751 318 q 666 81 751 163 q 417 0 581 0 l 82 0 l 82 444 l 0 444 l 0 542 m 222 542 l 396 542 l 396 444 l 222 444 l 222 124 l 417 124 q 562 174 513 124 q 611 318 611 224 l 611 654 q 417 849 611 849 l 222 849 l 222 542 z "},"Ñ":{"ha":833,"x_min":86,"x_max":747,"o":"m 86 972 l 226 972 l 226 856 l 607 475 l 607 972 l 747 972 l 747 0 l 607 0 l 607 289 l 226 668 l 226 0 l 86 0 l 86 972 m 256 1086 l 158 1086 q 200 1215 158 1171 q 319 1260 242 1260 q 393 1246 363 1260 q 437 1215 424 1232 q 469 1183 450 1197 q 514 1169 489 1169 q 578 1244 578 1169 l 675 1244 q 633 1117 675 1161 q 514 1072 592 1072 q 441 1086 471 1072 q 398 1117 411 1100 q 365 1149 385 1135 q 319 1163 344 1163 q 256 1086 256 1163 z "},"Ò":{"ha":833,"x_min":82,"x_max":751,"o":"m 82 671 q 167 906 82 825 q 417 988 253 988 q 666 906 581 988 q 751 671 751 825 l 751 303 q 666 66 751 147 q 417 -15 581 -15 q 167 66 253 -15 q 82 303 82 147 l 82 671 m 222 303 q 272 158 222 208 q 417 108 322 108 q 562 158 513 108 q 611 303 611 208 l 611 671 q 562 815 611 765 q 417 865 513 865 q 272 815 322 865 q 222 671 222 765 l 222 303 m 251 1283 l 331 1283 l 499 1115 l 499 1036 l 419 1036 l 251 1204 l 251 1283 z "},"Ó":{"ha":833,"x_min":82,"x_max":751,"o":"m 82 671 q 167 906 82 825 q 417 988 253 988 q 666 906 581 988 q 751 671 751 825 l 751 303 q 666 66 751 147 q 417 -15 581 -15 q 167 66 253 -15 q 82 303 82 147 l 82 671 m 222 303 q 272 158 222 208 q 417 108 322 108 q 562 158 513 108 q 611 303 611 208 l 611 671 q 562 815 611 765 q 417 865 513 865 q 272 815 322 865 q 222 671 222 765 l 222 303 m 335 1115 l 503 1283 l 582 1283 l 582 1204 l 414 1036 l 335 1036 l 335 1115 z "},"Ô":{"ha":833,"x_min":82,"x_max":751,"o":"m 82 671 q 167 906 82 825 q 417 988 253 988 q 666 906 581 988 q 751 671 751 825 l 751 303 q 666 66 751 147 q 417 -15 581 -15 q 167 66 253 -15 q 82 303 82 147 l 82 671 m 417 865 q 272 815 322 865 q 222 671 222 765 l 222 303 q 272 158 222 208 q 417 108 322 108 q 562 158 513 108 q 611 303 611 208 l 611 671 q 562 815 611 765 q 417 865 513 865 m 290 1036 l 215 1036 l 215 1111 l 388 1283 l 446 1283 l 618 1111 l 618 1036 l 543 1036 l 417 1163 l 290 1036 z "},"Õ":{"ha":833,"x_min":82,"x_max":751,"o":"m 82 303 l 82 671 q 167 906 82 825 q 417 988 253 988 q 666 906 581 988 q 751 671 751 825 l 751 303 q 666 66 751 147 q 417 -15 581 -15 q 167 66 253 -15 q 82 303 82 147 m 222 671 l 222 303 q 272 158 222 208 q 417 108 322 108 q 562 158 513 108 q 611 303 611 208 l 611 671 q 562 815 611 765 q 417 865 513 865 q 272 815 322 865 q 222 671 222 765 m 158 1086 q 200 1215 158 1171 q 319 1260 242 1260 q 393 1246 363 1260 q 437 1215 424 1232 q 469 1183 450 1197 q 514 1169 489 1169 q 578 1244 578 1169 l 675 1244 q 633 1117 675 1161 q 514 1072 592 1072 q 441 1086 471 1072 q 398 1117 411 1100 q 365 1149 385 1135 q 319 1163 344 1163 q 256 1086 256 1163 l 158 1086 z "},"Ö":{"ha":833,"x_min":82,"x_max":751,"o":"m 82 671 q 167 906 82 825 q 417 988 253 988 q 666 906 581 988 q 751 671 751 825 l 751 303 q 666 66 751 147 q 417 -15 581 -15 q 167 66 253 -15 q 82 303 82 147 l 82 671 m 417 865 q 272 815 322 865 q 222 671 222 765 l 222 303 q 272 158 222 208 q 417 108 322 108 q 562 158 513 108 q 611 303 611 208 l 611 671 q 562 815 611 765 q 417 865 513 865 m 581 1078 q 490 1169 490 1078 q 581 1261 490 1261 q 649 1238 625 1261 q 672 1169 672 1214 q 581 1078 672 1078 m 161 1169 q 185 1238 161 1214 q 253 1261 208 1261 q 321 1238 297 1261 q 344 1169 344 1214 q 253 1078 344 1078 q 161 1169 161 1078 z "},"×":{"ha":833,"x_min":138,"x_max":696,"o":"m 138 765 l 207 765 l 417 556 l 628 765 l 696 765 l 696 697 l 486 486 l 696 276 l 696 208 l 628 208 l 417 417 l 207 208 l 139 208 l 139 276 l 347 486 l 139 697 l 138 765 z "},"Ø":{"ha":833,"x_min":82,"x_max":751,"o":"m 666 66 q 623 25 666 66 q 417 -15 581 -15 q 167 66 253 -15 q 82 303 82 147 l 82 671 q 167 906 82 825 q 417 988 253 988 q 666 906 581 988 q 751 671 751 825 l 751 303 q 666 66 751 147 m 218 357 l 606 744 q 417 869 572 869 q 269 819 319 869 q 218 671 218 768 l 218 357 m 615 615 l 228 228 q 417 103 261 103 q 565 154 514 103 q 615 303 615 206 l 615 615 z "},"Ù":{"ha":833,"x_min":82,"x_max":751,"o":"m 82 972 l 222 972 l 222 303 q 272 158 222 208 q 417 108 322 108 q 562 158 513 108 q 611 303 611 208 l 611 972 l 751 972 l 751 303 q 666 66 751 147 q 417 -15 581 -15 q 167 66 253 -15 q 82 303 82 147 l 82 972 m 251 1204 l 251 1283 l 331 1283 l 499 1115 l 499 1036 l 419 1036 l 251 1204 z "},"Ú":{"ha":833,"x_min":82,"x_max":751,"o":"m 82 972 l 222 972 l 222 303 q 272 158 222 208 q 417 108 322 108 q 562 158 513 108 q 611 303 611 208 l 611 972 l 751 972 l 751 303 q 666 66 751 147 q 417 -15 581 -15 q 167 66 253 -15 q 82 303 82 147 l 82 972 m 335 1036 l 335 1115 l 503 1283 l 582 1283 l 582 1204 l 414 1036 l 335 1036 z "},"Û":{"ha":833,"x_min":82,"x_max":751,"o":"m 82 303 l 82 972 l 222 972 l 222 303 q 272 158 222 208 q 417 108 322 108 q 562 158 513 108 q 611 303 611 208 l 611 972 l 751 972 l 751 303 q 666 66 751 147 q 417 -15 581 -15 q 167 66 253 -15 q 82 303 82 147 m 215 1111 l 388 1283 l 446 1283 l 618 1111 l 618 1036 l 543 1036 l 417 1163 l 290 1036 l 215 1036 l 215 1111 z "},"Ü":{"ha":833,"x_min":82,"x_max":751,"o":"m 82 303 l 82 972 l 222 972 l 222 303 q 272 158 222 208 q 417 108 322 108 q 562 158 513 108 q 611 303 611 208 l 611 972 l 751 972 l 751 303 q 666 66 751 147 q 417 -15 581 -15 q 167 66 253 -15 q 82 303 82 147 m 581 1078 q 490 1169 490 1078 q 581 1261 490 1261 q 649 1238 625 1261 q 672 1169 672 1214 q 581 1078 672 1078 m 185 1238 q 197 1249 185 1238 q 253 1261 208 1261 q 321 1238 297 1261 q 344 1169 344 1214 q 253 1078 344 1078 q 161 1169 161 1078 q 185 1238 161 1214 z "},"Ý":{"ha":833,"x_min":86,"x_max":747,"o":"m 86 972 l 226 972 l 226 708 l 417 518 l 607 708 l 607 972 l 747 972 l 747 663 l 488 401 l 488 0 l 346 0 l 346 401 l 86 663 l 86 972 m 335 1115 l 503 1283 l 582 1283 l 582 1204 l 414 1036 l 335 1036 l 335 1115 z "},"Þ":{"ha":833,"x_min":82,"x_max":751,"o":"m 222 0 l 82 0 l 82 972 l 222 972 l 222 790 l 417 790 q 666 716 581 790 q 751 500 751 642 q 666 285 751 360 q 417 210 581 210 l 222 210 l 222 0 m 222 333 l 417 333 q 562 376 513 333 q 611 500 611 419 q 417 667 611 667 l 222 667 l 222 333 z "},"ß":{"ha":833,"x_min":82,"x_max":751,"o":"m 222 0 l 82 0 l 82 771 q 165 983 82 910 q 404 1057 247 1057 q 629 991 551 1057 q 707 799 707 925 q 600 589 707 646 q 713 505 674 564 q 751 364 751 446 l 751 279 q 673 72 751 143 q 444 0 594 0 l 338 0 l 338 124 l 444 124 q 569 163 526 124 q 611 279 611 203 l 611 364 q 569 480 611 440 q 444 519 526 519 l 369 519 l 369 643 l 422 643 q 567 785 567 643 q 400 935 567 935 q 268 892 314 935 q 222 771 222 850 l 222 0 z "},"à":{"ha":833,"x_min":79,"x_max":736,"o":"m 356 454 l 596 454 l 596 518 q 551 621 596 585 q 419 657 506 657 q 294 624 338 657 q 251 531 251 592 l 111 531 q 190 715 111 651 q 421 779 269 779 q 656 713 575 779 q 736 518 736 646 l 736 0 l 596 0 l 596 122 l 467 -7 l 354 -7 q 150 52 221 -7 q 79 224 79 111 q 150 395 79 336 q 356 454 221 454 m 354 117 l 436 117 l 596 275 l 596 340 l 356 340 q 219 229 219 340 q 354 117 219 117 m 251 1006 l 251 1085 l 331 1085 l 499 917 l 499 838 l 419 838 l 251 1006 z "},"á":{"ha":833,"x_min":79,"x_max":736,"o":"m 356 454 l 596 454 l 596 518 q 551 621 596 585 q 419 657 506 657 q 294 624 338 657 q 251 531 251 592 l 111 531 q 190 715 111 651 q 421 779 269 779 q 656 713 575 779 q 736 518 736 646 l 736 0 l 596 0 l 596 122 l 467 -7 l 354 -7 q 150 52 221 -7 q 79 224 79 111 q 150 395 79 336 q 356 454 221 454 m 219 229 q 354 117 219 117 l 436 117 l 596 275 l 596 340 l 356 340 q 219 229 219 340 m 335 838 l 335 917 l 503 1085 l 582 1085 l 582 1006 l 414 838 l 335 838 z "},"â":{"ha":833,"x_min":79,"x_max":736,"o":"m 356 454 l 596 454 l 596 518 q 551 621 596 585 q 419 657 506 657 q 294 624 338 657 q 251 531 251 592 l 111 531 q 190 715 111 651 q 421 779 269 779 q 656 713 575 779 q 736 518 736 646 l 736 0 l 596 0 l 596 122 l 467 -7 l 354 -7 q 150 52 221 -7 q 79 224 79 111 q 150 395 79 336 q 356 454 221 454 m 354 117 l 436 117 l 596 275 l 596 340 l 356 340 q 219 229 219 340 q 354 117 219 117 m 215 913 l 388 1085 l 446 1085 l 618 913 l 618 838 l 543 838 l 417 964 l 290 838 l 215 838 l 215 913 z "},"ã":{"ha":833,"x_min":79,"x_max":736,"o":"m 356 454 l 596 454 l 596 518 q 551 621 596 585 q 419 657 506 657 q 294 624 338 657 q 251 531 251 592 l 111 531 q 190 715 111 651 q 421 779 269 779 q 656 713 575 779 q 736 518 736 646 l 736 0 l 596 0 l 596 122 l 467 -7 l 354 -7 q 150 52 221 -7 q 79 224 79 111 q 150 395 79 336 q 356 454 221 454 m 354 117 l 436 117 l 596 275 l 596 340 l 356 340 q 219 229 219 340 q 354 117 219 117 m 319 1061 q 393 1047 363 1061 q 437 1016 424 1033 q 469 985 450 999 q 514 971 489 971 q 578 1047 578 971 l 675 1047 q 633 918 675 963 q 514 874 592 874 q 441 888 471 874 q 398 919 411 901 q 365 950 385 936 q 319 964 344 964 q 256 889 256 964 l 158 889 q 200 1017 158 974 q 319 1061 242 1061 z "},"ä":{"ha":833,"x_min":79,"x_max":736,"o":"m 356 454 l 596 454 l 596 518 q 551 621 596 585 q 419 657 506 657 q 294 624 338 657 q 251 531 251 592 l 111 531 q 190 715 111 651 q 421 779 269 779 q 656 713 575 779 q 736 518 736 646 l 736 0 l 596 0 l 596 122 l 467 -7 l 354 -7 q 150 52 221 -7 q 79 224 79 111 q 150 395 79 336 q 356 454 221 454 m 354 117 l 436 117 l 596 275 l 596 340 l 356 340 q 219 229 219 340 q 354 117 219 117 m 581 1063 q 672 971 672 1063 q 581 881 672 881 q 490 971 490 881 q 581 1063 490 1063 m 161 971 q 253 1063 161 1063 q 344 971 344 1063 q 253 881 344 881 q 161 971 161 881 z "},"å":{"ha":833,"x_min":79,"x_max":736,"o":"m 356 454 l 596 454 l 596 518 q 551 621 596 585 q 419 657 506 657 q 294 624 338 657 q 251 531 251 592 l 111 531 q 190 715 111 651 q 421 779 269 779 q 656 713 575 779 q 736 518 736 646 l 736 0 l 596 0 l 596 122 l 467 -7 l 354 -7 q 150 52 221 -7 q 79 224 79 111 q 150 395 79 336 q 356 454 221 454 m 417 1114 q 561 969 561 1114 q 524 863 561 900 q 417 825 488 825 q 310 863 347 825 q 272 969 272 900 q 310 1077 272 1040 q 417 1114 347 1114 m 219 229 q 354 117 219 117 l 436 117 l 596 275 l 596 340 l 356 340 q 219 229 219 340 m 353 969 q 353 938 353 969 q 417 906 353 906 q 481 969 481 906 q 417 1033 481 1033 q 353 969 353 1033 z "},"æ":{"ha":833,"x_min":56,"x_max":771,"o":"m 56 226 q 118 393 56 336 q 300 450 181 450 l 357 450 l 357 640 q 249 610 286 640 q 211 524 211 581 l 79 524 q 151 702 79 640 q 357 764 222 764 l 482 764 q 697 687 624 764 q 771 464 771 610 l 771 331 l 482 331 l 482 124 q 639 240 639 124 l 771 240 q 697 62 771 124 q 482 0 624 0 l 300 0 q 118 58 181 0 q 56 226 56 115 m 300 124 l 357 124 l 357 336 l 300 336 q 183 229 183 336 q 300 124 183 124 m 482 640 l 482 450 l 643 450 l 643 490 q 601 601 643 563 q 482 640 560 640 z "},"ç":{"ha":833,"x_min":82,"x_max":751,"o":"m 82 313 l 82 451 q 170 695 82 611 q 425 779 258 779 q 668 703 585 779 q 751 481 751 626 l 611 481 q 425 657 611 657 q 274 604 326 657 q 222 451 222 551 l 222 313 q 274 161 222 214 q 425 108 326 108 q 611 283 611 108 l 751 283 q 681 73 751 149 q 474 -14 610 -3 l 474 -42 l 529 -97 l 529 -132 q 389 -274 529 -274 l 332 -274 l 332 -176 l 389 -176 q 432 -132 432 -176 l 376 -76 l 376 -14 q 157 82 232 -1 q 82 313 82 165 z "},"è":{"ha":833,"x_min":82,"x_max":751,"o":"m 82 293 l 82 476 q 167 701 82 624 q 415 779 253 779 q 666 699 581 779 q 751 467 751 619 l 751 329 l 222 329 l 222 293 q 277 156 222 203 q 436 108 332 108 q 566 142 521 108 q 611 238 611 175 l 751 238 q 670 49 751 114 q 433 -15 589 -15 q 172 64 263 -15 q 82 293 82 143 m 222 449 l 611 449 l 611 493 q 563 615 611 572 q 422 657 514 657 q 274 610 325 657 q 222 476 222 564 l 222 449 m 251 1085 l 331 1085 l 499 917 l 499 838 l 419 838 l 251 1006 l 251 1085 z "},"é":{"ha":833,"x_min":82,"x_max":751,"o":"m 82 293 l 82 476 q 167 701 82 624 q 415 779 253 779 q 666 699 581 779 q 751 467 751 619 l 751 329 l 222 329 l 222 293 q 277 156 222 203 q 436 108 332 108 q 566 142 521 108 q 611 238 611 175 l 751 238 q 670 49 751 114 q 433 -15 589 -15 q 172 64 263 -15 q 82 293 82 143 m 222 449 l 611 449 l 611 493 q 563 615 611 572 q 422 657 514 657 q 274 610 325 657 q 222 476 222 564 l 222 449 m 335 838 l 335 917 l 503 1085 l 582 1085 l 582 1006 l 414 838 l 335 838 z "},"ê":{"ha":833,"x_min":82,"x_max":751,"o":"m 82 293 l 82 476 q 167 701 82 624 q 415 779 253 779 q 666 699 581 779 q 751 467 751 619 l 751 329 l 222 329 l 222 293 q 277 156 222 203 q 436 108 332 108 q 566 142 521 108 q 611 238 611 175 l 751 238 q 670 49 751 114 q 433 -15 589 -15 q 172 64 263 -15 q 82 293 82 143 m 222 449 l 611 449 l 611 493 q 563 615 611 572 q 422 657 514 657 q 274 610 325 657 q 222 476 222 564 l 222 449 m 215 913 l 388 1085 l 446 1085 l 618 913 l 618 838 l 543 838 l 417 964 l 290 838 l 215 838 l 215 913 z "},"ë":{"ha":833,"x_min":82,"x_max":751,"o":"m 82 293 l 82 476 q 167 701 82 624 q 415 779 253 779 q 666 699 581 779 q 751 467 751 619 l 751 329 l 222 329 l 222 293 q 277 156 222 203 q 436 108 332 108 q 566 142 521 108 q 611 238 611 175 l 751 238 q 670 49 751 114 q 433 -15 589 -15 q 172 64 263 -15 q 82 293 82 143 m 222 449 l 611 449 l 611 493 q 563 615 611 572 q 422 657 514 657 q 274 610 325 657 q 222 476 222 564 l 222 449 m 581 1063 q 672 971 672 1063 q 581 881 672 881 q 490 971 490 881 q 581 1063 490 1063 m 161 971 q 253 1063 161 1063 q 344 971 344 1063 q 253 881 344 881 q 161 971 161 881 z "},"ì":{"ha":833,"x_min":90,"x_max":743,"o":"m 90 119 l 353 119 l 353 644 l 110 644 l 110 764 l 494 764 l 494 119 l 743 119 l 743 0 l 90 0 l 90 119 m 233 1085 l 313 1085 l 481 917 l 481 838 l 401 838 l 233 1006 l 233 1085 z "},"í":{"ha":833,"x_min":90,"x_max":743,"o":"m 90 119 l 353 119 l 353 644 l 110 644 l 110 764 l 494 764 l 494 119 l 743 119 l 743 0 l 90 0 l 90 119 m 317 917 l 485 1085 l 564 1085 l 564 1006 l 396 838 l 317 838 l 317 917 z "},"î":{"ha":833,"x_min":90,"x_max":743,"o":"m 90 0 l 90 119 l 353 119 l 353 644 l 110 644 l 110 764 l 494 764 l 494 119 l 743 119 l 743 0 l 90 0 m 197 913 l 369 1085 l 428 1085 l 600 913 l 600 838 l 525 838 l 399 964 l 272 838 l 197 838 l 197 913 z "},"ï":{"ha":833,"x_min":90,"x_max":743,"o":"m 90 0 l 90 119 l 353 119 l 353 644 l 110 644 l 110 764 l 494 764 l 494 119 l 743 119 l 743 0 l 90 0 m 143 971 q 235 1063 143 1063 q 325 971 325 1063 q 235 881 325 881 q 143 971 143 881 m 471 971 q 563 1063 471 1063 q 654 971 654 1063 q 563 881 654 881 q 471 971 471 881 z "},"ð":{"ha":833,"x_min":82,"x_max":747,"o":"m 82 303 l 82 432 q 165 658 82 581 q 403 736 247 736 l 442 736 l 607 571 l 607 751 q 449 918 607 911 l 358 828 l 358 796 l 253 796 l 253 874 l 297 919 l 151 919 l 151 1042 l 421 1042 l 501 1122 l 501 1156 l 607 1156 l 607 1076 l 557 1026 q 747 751 747 974 l 747 297 q 663 65 747 144 q 417 -15 578 -15 q 167 66 253 -15 q 82 303 82 147 m 222 432 l 222 303 q 272 158 222 208 q 417 108 322 108 q 558 156 510 108 q 607 297 607 204 l 607 408 l 403 613 q 269 567 315 613 q 222 432 222 521 z "},"ñ":{"ha":833,"x_min":86,"x_max":747,"o":"m 86 0 l 86 764 l 226 764 l 226 606 l 392 771 l 431 771 q 666 695 585 771 q 747 476 747 619 l 747 0 l 607 0 l 607 476 q 562 603 607 560 q 431 647 517 647 l 226 443 l 226 0 l 86 0 m 256 889 l 158 889 q 200 1017 158 974 q 319 1061 242 1061 q 393 1047 363 1061 q 437 1016 424 1033 q 469 985 450 999 q 514 971 489 971 q 578 1047 578 971 l 675 1047 q 633 918 675 963 q 514 874 592 874 q 441 888 471 874 q 398 919 411 901 q 365 950 385 936 q 319 964 344 964 q 256 889 256 964 z "},"ò":{"ha":833,"x_min":82,"x_max":751,"o":"m 82 463 q 167 698 82 617 q 417 779 253 779 q 666 698 581 779 q 751 463 751 617 l 751 303 q 666 66 751 147 q 417 -15 581 -15 q 167 66 253 -15 q 82 303 82 147 l 82 463 m 222 303 q 272 158 222 208 q 417 108 322 108 q 562 158 513 108 q 611 303 611 208 l 611 463 q 562 607 611 557 q 417 657 513 657 q 272 607 322 657 q 222 463 222 557 l 222 303 m 251 1085 l 331 1085 l 499 917 l 499 838 l 419 838 l 251 1006 l 251 1085 z "},"ó":{"ha":833,"x_min":82,"x_max":751,"o":"m 82 463 q 167 698 82 617 q 417 779 253 779 q 666 698 581 779 q 751 463 751 617 l 751 303 q 666 66 751 147 q 417 -15 581 -15 q 167 66 253 -15 q 82 303 82 147 l 82 463 m 222 303 q 272 158 222 208 q 417 108 322 108 q 562 158 513 108 q 611 303 611 208 l 611 463 q 562 607 611 557 q 417 657 513 657 q 272 607 322 657 q 222 463 222 557 l 222 303 m 335 917 l 503 1085 l 582 1085 l 582 1006 l 414 838 l 335 838 l 335 917 z "},"ô":{"ha":833,"x_min":82,"x_max":751,"o":"m 82 463 q 167 698 82 617 q 417 779 253 779 q 666 698 581 779 q 751 463 751 617 l 751 303 q 666 66 751 147 q 417 -15 581 -15 q 167 66 253 -15 q 82 303 82 147 l 82 463 m 417 657 q 272 607 322 657 q 222 463 222 557 l 222 303 q 272 158 222 208 q 417 108 322 108 q 562 158 513 108 q 611 303 611 208 l 611 463 q 562 607 611 557 q 417 657 513 657 m 290 838 l 215 838 l 215 913 l 388 1085 l 446 1085 l 618 913 l 618 838 l 543 838 l 417 964 l 290 838 z "},"õ":{"ha":833,"x_min":82,"x_max":751,"o":"m 82 303 l 82 463 q 167 698 82 617 q 417 779 253 779 q 666 698 581 779 q 751 463 751 617 l 751 303 q 666 66 751 147 q 417 -15 581 -15 q 167 66 253 -15 q 82 303 82 147 m 222 463 l 222 303 q 272 158 222 208 q 417 108 322 108 q 562 158 513 108 q 611 303 611 208 l 611 463 q 562 607 611 557 q 417 657 513 657 q 272 607 322 657 q 222 463 222 557 m 158 889 q 200 1017 158 974 q 319 1061 242 1061 q 393 1047 363 1061 q 437 1016 424 1033 q 469 985 450 999 q 514 971 489 971 q 578 1047 578 971 l 675 1047 q 633 918 675 963 q 514 874 592 874 q 441 888 471 874 q 398 919 411 901 q 365 950 385 936 q 319 964 344 964 q 256 889 256 964 l 158 889 z "},"ö":{"ha":833,"x_min":82,"x_max":751,"o":"m 82 463 q 167 698 82 617 q 417 779 253 779 q 666 698 581 779 q 751 463 751 617 l 751 303 q 666 66 751 147 q 417 -15 581 -15 q 167 66 253 -15 q 82 303 82 147 l 82 463 m 417 657 q 272 607 322 657 q 222 463 222 557 l 222 303 q 272 158 222 208 q 417 108 322 108 q 562 158 513 108 q 611 303 611 208 l 611 463 q 562 607 611 557 q 417 657 513 657 m 490 971 q 581 1063 490 1063 q 672 971 672 1063 q 581 881 672 881 q 490 971 490 881 m 161 971 q 253 1063 161 1063 q 344 971 344 1063 q 253 881 344 881 q 161 971 161 881 z "},"÷":{"ha":833,"x_min":117,"x_max":717,"o":"m 117 535 l 717 535 l 717 438 l 117 438 l 117 535 m 332 724 q 417 808 332 808 q 479 786 457 808 q 501 724 501 764 q 479 662 501 683 q 417 640 457 640 q 332 724 332 640 m 417 165 q 332 249 332 165 q 417 332 332 332 q 479 310 457 332 q 501 249 501 289 q 479 187 501 208 q 417 165 457 165 z "},"ø":{"ha":833,"x_min":82,"x_max":751,"o":"m 666 66 q 623 25 666 66 q 417 -15 581 -15 q 167 66 253 -15 q 82 303 82 147 l 82 463 q 167 698 82 617 q 417 779 253 779 q 666 698 581 779 q 751 463 751 617 l 751 303 q 666 66 751 147 m 218 251 l 574 607 q 417 665 522 665 q 266 613 318 665 q 214 463 214 561 l 214 303 q 218 251 214 274 m 261 156 q 417 99 311 99 q 567 151 515 99 q 619 303 619 204 l 619 463 q 617 511 619 481 l 261 156 z "},"ù":{"ha":833,"x_min":86,"x_max":747,"o":"m 86 764 l 226 764 l 226 283 q 271 160 226 203 q 399 117 315 117 l 607 325 l 607 764 l 747 764 l 747 0 l 607 0 l 607 163 l 438 -7 l 399 -7 q 166 67 246 -7 q 86 283 86 142 l 86 764 m 251 1006 l 251 1085 l 331 1085 l 499 917 l 499 838 l 419 838 l 251 1006 z "},"ú":{"ha":833,"x_min":86,"x_max":747,"o":"m 86 764 l 226 764 l 226 283 q 271 160 226 203 q 399 117 315 117 l 607 325 l 607 764 l 747 764 l 747 0 l 607 0 l 607 163 l 438 -7 l 399 -7 q 166 67 246 -7 q 86 283 86 142 l 86 764 m 335 838 l 335 917 l 503 1085 l 582 1085 l 582 1006 l 414 838 l 335 838 z "},"û":{"ha":833,"x_min":86,"x_max":747,"o":"m 86 764 l 226 764 l 226 283 q 271 160 226 203 q 399 117 315 117 l 607 325 l 607 764 l 747 764 l 747 0 l 607 0 l 607 163 l 438 -7 l 399 -7 q 166 67 246 -7 q 86 283 86 142 l 86 764 m 215 838 l 215 913 l 388 1085 l 446 1085 l 618 913 l 618 838 l 543 838 l 417 964 l 290 838 l 215 838 z "},"ü":{"ha":833,"x_min":86,"x_max":747,"o":"m 86 764 l 226 764 l 226 283 q 271 160 226 203 q 399 117 315 117 l 607 325 l 607 764 l 747 764 l 747 0 l 607 0 l 607 163 l 438 -7 l 399 -7 q 166 67 246 -7 q 86 283 86 142 l 86 764 m 581 1063 q 672 971 672 1063 q 581 881 672 881 q 490 971 490 881 q 581 1063 490 1063 m 161 971 q 253 1063 161 1063 q 344 971 344 1063 q 253 881 344 881 q 161 971 161 881 z "},"ý":{"ha":833,"x_min":86,"x_max":747,"o":"m 86 283 l 86 764 l 226 764 l 226 283 q 271 160 226 203 q 399 117 315 117 l 607 325 l 607 764 l 747 764 l 747 13 q 667 -203 747 -129 q 435 -278 588 -278 l 151 -278 l 151 -154 l 435 -154 q 563 -111 518 -154 q 607 13 607 -68 l 607 163 l 438 -7 l 399 -7 q 166 67 246 -7 q 86 283 86 142 m 335 917 l 503 1085 l 582 1085 l 582 1006 l 414 838 l 335 838 l 335 917 z "},"þ":{"ha":833,"x_min":86,"x_max":751,"o":"m 86 -278 l 86 1042 l 226 1042 l 226 606 l 392 771 l 431 771 q 669 693 586 771 q 751 467 751 615 l 751 297 q 669 71 751 149 q 431 -7 586 -7 l 392 -7 l 226 158 l 226 -278 l 86 -278 m 431 647 l 226 443 l 226 321 l 431 117 q 611 297 611 117 l 611 467 q 431 647 611 647 z "},"ÿ":{"ha":833,"x_min":86,"x_max":747,"o":"m 86 283 l 86 764 l 226 764 l 226 283 q 271 160 226 203 q 399 117 315 117 l 607 325 l 607 764 l 747 764 l 747 13 q 667 -203 747 -129 q 435 -278 588 -278 l 151 -278 l 151 -154 l 435 -154 q 563 -111 518 -154 q 607 13 607 -68 l 607 163 l 438 -7 l 399 -7 q 166 67 246 -7 q 86 283 86 142 m 490 971 q 581 1063 490 1063 q 672 971 672 1063 q 581 881 672 881 q 490 971 490 881 m 161 971 q 253 1063 161 1063 q 344 971 344 1063 q 253 881 344 881 q 161 971 161 881 z "},"Ā":{"ha":833,"x_min":93,"x_max":740,"o":"m 93 693 l 378 978 l 456 978 l 740 693 l 740 0 l 600 0 l 600 276 l 233 276 l 233 0 l 93 0 l 93 693 m 233 396 l 600 396 l 600 647 l 417 831 l 233 647 l 233 396 m 633 1090 l 200 1090 l 200 1188 l 633 1188 l 633 1090 z "},"ā":{"ha":833,"x_min":79,"x_max":736,"o":"m 356 454 l 596 454 l 596 518 q 551 621 596 585 q 419 657 506 657 q 294 624 338 657 q 251 531 251 592 l 111 531 q 190 715 111 651 q 421 779 269 779 q 656 713 575 779 q 736 518 736 646 l 736 0 l 596 0 l 596 122 l 467 -7 l 354 -7 q 150 52 221 -7 q 79 224 79 111 q 150 395 79 336 q 356 454 221 454 m 219 229 q 354 117 219 117 l 436 117 l 596 275 l 596 340 l 356 340 q 219 229 219 340 m 633 893 l 200 893 l 200 990 l 633 990 l 633 893 z "},"Ă":{"ha":833,"x_min":93,"x_max":740,"o":"m 93 693 l 378 978 l 456 978 l 740 693 l 740 0 l 600 0 l 600 276 l 233 276 l 233 0 l 93 0 l 93 693 m 233 396 l 600 396 l 600 647 l 417 831 l 233 647 l 233 396 m 206 1265 l 303 1265 q 417 1151 303 1151 q 531 1265 531 1151 l 628 1265 q 574 1108 628 1163 q 417 1054 519 1054 q 260 1108 314 1054 q 206 1265 206 1163 z "},"ă":{"ha":833,"x_min":79,"x_max":736,"o":"m 356 454 l 596 454 l 596 518 q 551 621 596 585 q 419 657 506 657 q 294 624 338 657 q 251 531 251 592 l 111 531 q 190 715 111 651 q 421 779 269 779 q 656 713 575 779 q 736 518 736 646 l 736 0 l 596 0 l 596 122 l 467 -7 l 354 -7 q 150 52 221 -7 q 79 224 79 111 q 150 395 79 336 q 356 454 221 454 m 219 229 q 354 117 219 117 l 436 117 l 596 275 l 596 340 l 356 340 q 219 229 219 340 m 206 1067 l 303 1067 q 417 953 303 953 q 531 1067 531 953 l 628 1067 q 574 910 628 964 q 417 856 519 856 q 260 910 314 856 q 206 1067 206 964 z "},"Ą":{"ha":833,"x_min":93,"x_max":763,"o":"m 93 693 l 378 978 l 456 978 l 740 693 l 740 0 l 724 0 l 724 -40 l 649 -114 q 715 -181 649 -181 l 763 -181 l 763 -278 l 715 -278 q 594 -236 636 -278 q 551 -114 551 -194 l 551 -75 l 626 0 l 600 0 l 600 276 l 233 276 l 233 0 l 93 0 l 93 693 m 233 396 l 600 396 l 600 647 l 417 831 l 233 647 l 233 396 z "},"ą":{"ha":833,"x_min":79,"x_max":758,"o":"m 356 454 l 596 454 l 596 518 q 551 621 596 585 q 419 657 506 657 q 294 624 338 657 q 251 531 251 592 l 111 531 q 190 715 111 651 q 421 779 269 779 q 656 713 575 779 q 736 518 736 646 l 736 0 l 719 0 l 719 -40 l 644 -114 q 711 -181 644 -181 l 758 -181 l 758 -278 l 711 -278 q 547 -114 547 -278 l 547 -75 l 622 0 l 596 0 l 596 122 l 467 -7 l 354 -7 q 150 52 221 -7 q 79 224 79 111 q 150 395 79 336 q 356 454 221 454 m 354 117 l 436 117 l 596 275 l 596 340 l 356 340 q 219 229 219 340 q 354 117 219 117 z "},"Ć":{"ha":833,"x_min":82,"x_max":751,"o":"m 82 307 l 82 665 q 168 905 82 822 q 418 988 254 988 q 667 905 582 988 q 751 665 751 822 l 619 665 q 569 815 619 764 q 422 865 519 865 q 274 814 325 865 q 222 665 222 763 l 222 307 q 274 159 222 210 q 422 108 325 108 q 569 159 519 108 q 619 307 619 210 l 751 307 q 667 67 751 150 q 418 -15 582 -15 q 168 67 254 -15 q 82 307 82 150 m 414 1036 l 335 1036 l 335 1115 l 503 1283 l 582 1283 l 582 1204 l 414 1036 z "},"ć":{"ha":833,"x_min":82,"x_max":751,"o":"m 425 779 q 668 703 585 779 q 751 481 751 626 l 611 481 q 425 657 611 657 q 274 604 326 657 q 222 451 222 551 l 222 313 q 274 161 222 214 q 425 108 326 108 q 611 283 611 108 l 751 283 q 668 62 751 139 q 425 -15 585 -15 q 170 69 258 -15 q 82 313 82 153 l 82 451 q 170 695 82 611 q 425 779 258 779 m 343 838 l 343 917 l 511 1085 l 590 1085 l 590 1006 l 422 838 l 343 838 z "},"Ĉ":{"ha":833,"x_min":82,"x_max":751,"o":"m 82 307 l 82 665 q 168 905 82 822 q 418 988 254 988 q 667 905 582 988 q 751 665 751 822 l 619 665 q 569 815 619 764 q 422 865 519 865 q 274 814 325 865 q 222 665 222 763 l 222 307 q 274 159 222 210 q 422 108 325 108 q 569 159 519 108 q 619 307 619 210 l 751 307 q 667 67 751 150 q 418 -15 582 -15 q 168 67 254 -15 q 82 307 82 150 m 290 1036 l 215 1036 l 215 1111 l 388 1283 l 446 1283 l 618 1111 l 618 1036 l 543 1036 l 417 1163 l 290 1036 z "},"ĉ":{"ha":833,"x_min":82,"x_max":751,"o":"m 82 313 l 82 451 q 170 695 82 611 q 425 779 258 779 q 668 703 585 779 q 751 481 751 626 l 611 481 q 425 657 611 657 q 274 604 326 657 q 222 451 222 551 l 222 313 q 274 161 222 214 q 425 108 326 108 q 611 283 611 108 l 751 283 q 668 62 751 139 q 425 -15 585 -15 q 170 69 258 -15 q 82 313 82 153 m 224 838 l 224 913 l 396 1085 l 453 1085 l 626 913 l 626 838 l 551 838 l 425 964 l 299 838 l 224 838 z "},"Ċ":{"ha":833,"x_min":82,"x_max":751,"o":"m 82 665 q 168 905 82 822 q 418 988 254 988 q 667 905 582 988 q 751 665 751 822 l 619 665 q 569 815 619 764 q 422 865 519 865 q 274 814 325 865 q 222 665 222 763 l 222 307 q 274 159 222 210 q 422 108 325 108 q 569 159 519 108 q 619 307 619 210 l 751 307 q 667 67 751 150 q 418 -15 582 -15 q 168 67 254 -15 q 82 307 82 150 l 82 665 m 517 1189 q 417 1089 517 1089 q 317 1189 317 1089 q 417 1289 317 1289 q 490 1263 464 1289 q 517 1189 517 1236 z "},"ċ":{"ha":833,"x_min":82,"x_max":751,"o":"m 425 779 q 668 703 585 779 q 751 481 751 626 l 611 481 q 425 657 611 657 q 274 604 326 657 q 222 451 222 551 l 222 313 q 274 161 222 214 q 425 108 326 108 q 611 283 611 108 l 751 283 q 668 62 751 139 q 425 -15 585 -15 q 170 69 258 -15 q 82 313 82 153 l 82 451 q 170 695 82 611 q 425 779 258 779 m 425 890 q 375 890 425 890 q 325 990 325 890 q 425 1090 325 1090 q 499 1065 472 1090 q 525 990 525 1039 q 425 890 525 890 z "},"Č":{"ha":833,"x_min":82,"x_max":751,"o":"m 82 307 l 82 665 q 168 905 82 822 q 418 988 254 988 q 667 905 582 988 q 751 665 751 822 l 619 665 q 569 815 619 764 q 422 865 519 865 q 274 814 325 865 q 222 665 222 763 l 222 307 q 274 159 222 210 q 422 108 325 108 q 569 159 519 108 q 619 307 619 210 l 751 307 q 667 67 751 150 q 418 -15 582 -15 q 168 67 254 -15 q 82 307 82 150 m 388 1036 l 215 1208 l 215 1283 l 290 1283 l 417 1157 l 543 1283 l 618 1283 l 618 1208 l 446 1036 l 388 1036 z "},"č":{"ha":833,"x_min":82,"x_max":751,"o":"m 82 313 l 82 451 q 170 695 82 611 q 425 779 258 779 q 668 703 585 779 q 751 481 751 626 l 611 481 q 425 657 611 657 q 274 604 326 657 q 222 451 222 551 l 222 313 q 274 161 222 214 q 425 108 326 108 q 611 283 611 108 l 751 283 q 668 62 751 139 q 425 -15 585 -15 q 170 69 258 -15 q 82 313 82 153 m 224 1085 l 299 1085 l 425 958 l 551 1085 l 626 1085 l 626 1010 l 453 838 l 396 838 l 224 1010 l 224 1085 z "},"Ď":{"ha":833,"x_min":82,"x_max":751,"o":"m 417 0 l 82 0 l 82 972 l 417 972 q 666 891 581 972 q 751 654 751 810 l 751 318 q 666 81 751 163 q 417 0 581 0 m 222 849 l 222 124 l 417 124 q 562 174 513 124 q 611 318 611 224 l 611 654 q 417 849 611 849 l 222 849 m 201 1283 l 276 1283 l 403 1157 l 529 1283 l 604 1283 l 604 1208 l 432 1036 l 374 1036 l 201 1208 l 201 1283 z "},"ď":{"ha":833,"x_min":82,"x_max":878,"o":"m 360 771 l 390 771 l 472 689 l 472 1042 l 613 1042 l 613 0 l 472 0 l 472 76 l 390 -7 l 360 -7 q 153 60 225 -7 q 82 254 82 126 l 82 511 q 153 704 82 638 q 360 771 225 771 m 222 511 l 222 254 q 258 152 222 188 q 360 117 293 117 l 472 229 l 472 535 l 360 647 q 258 612 293 647 q 222 511 222 576 m 661 747 l 661 835 q 775 896 746 835 q 714 976 714 907 q 796 1057 714 1057 q 878 978 878 1057 q 822 807 878 867 q 661 747 767 747 z "},"Đ":{"ha":833,"x_min":0,"x_max":751,"o":"m 0 542 l 82 542 l 82 972 l 417 972 q 666 891 581 972 q 751 654 751 810 l 751 318 q 666 81 751 163 q 417 0 581 0 l 82 0 l 82 444 l 0 444 l 0 542 m 222 542 l 396 542 l 396 444 l 222 444 l 222 124 l 417 124 q 562 174 513 124 q 611 318 611 224 l 611 654 q 417 849 611 849 l 222 849 l 222 542 z "},"đ":{"ha":833,"x_min":82,"x_max":833,"o":"m 403 771 l 442 771 l 593 619 l 593 846 l 400 846 l 400 943 l 593 943 l 593 1042 l 733 1042 l 733 943 l 833 943 l 833 846 l 733 846 l 733 0 l 593 0 l 593 144 l 442 -7 l 403 -7 q 165 71 247 -7 q 82 297 82 149 l 82 467 q 165 693 82 615 q 403 771 247 771 m 222 467 l 222 297 q 269 163 222 208 q 403 117 315 117 l 593 307 l 593 457 l 403 647 q 269 601 315 647 q 222 467 222 556 z "},"Ē":{"ha":833,"x_min":86,"x_max":747,"o":"m 747 0 l 86 0 l 86 972 l 740 972 l 740 853 l 226 853 l 226 550 l 675 550 l 675 432 l 226 432 l 226 119 l 747 119 l 747 0 m 640 1090 l 207 1090 l 207 1188 l 640 1188 l 640 1090 z "},"ē":{"ha":833,"x_min":82,"x_max":751,"o":"m 82 293 l 82 476 q 167 701 82 624 q 415 779 253 779 q 666 699 581 779 q 751 467 751 619 l 751 329 l 222 329 l 222 293 q 277 156 222 203 q 436 108 332 108 q 566 142 521 108 q 611 238 611 175 l 751 238 q 670 49 751 114 q 433 -15 589 -15 q 172 64 263 -15 q 82 293 82 143 m 222 449 l 611 449 l 611 493 q 563 615 611 572 q 422 657 514 657 q 274 610 325 657 q 222 476 222 564 l 222 449 m 633 893 l 200 893 l 200 990 l 633 990 l 633 893 z "},"Ĕ":{"ha":833,"x_min":86,"x_max":747,"o":"m 747 0 l 86 0 l 86 972 l 740 972 l 740 853 l 226 853 l 226 550 l 675 550 l 675 432 l 226 432 l 226 119 l 747 119 l 747 0 m 213 1265 l 310 1265 q 424 1151 310 1151 q 538 1265 538 1151 l 635 1265 q 581 1108 635 1163 q 424 1054 526 1054 q 267 1108 321 1054 q 213 1265 213 1163 z "},"ĕ":{"ha":833,"x_min":82,"x_max":751,"o":"m 82 293 l 82 476 q 167 701 82 624 q 415 779 253 779 q 666 699 581 779 q 751 467 751 619 l 751 329 l 222 329 l 222 293 q 277 156 222 203 q 436 108 332 108 q 566 142 521 108 q 611 238 611 175 l 751 238 q 670 49 751 114 q 433 -15 589 -15 q 172 64 263 -15 q 82 293 82 143 m 222 449 l 611 449 l 611 493 q 563 615 611 572 q 422 657 514 657 q 274 610 325 657 q 222 476 222 564 l 222 449 m 206 1067 l 303 1067 q 417 953 303 953 q 531 1067 531 953 l 628 1067 q 574 910 628 964 q 417 856 519 856 q 260 910 314 856 q 206 1067 206 964 z "},"Ė":{"ha":833,"x_min":86,"x_max":747,"o":"m 747 0 l 86 0 l 86 972 l 740 972 l 740 853 l 226 853 l 226 550 l 675 550 l 675 432 l 226 432 l 226 119 l 747 119 l 747 0 m 424 1089 q 374 1089 424 1089 q 324 1189 324 1089 q 424 1289 324 1289 q 498 1263 472 1289 q 524 1189 524 1236 q 424 1089 524 1089 z "},"ė":{"ha":833,"x_min":82,"x_max":751,"o":"m 82 293 l 82 476 q 167 701 82 624 q 415 779 253 779 q 666 699 581 779 q 751 467 751 619 l 751 329 l 222 329 l 222 293 q 277 156 222 203 q 436 108 332 108 q 566 142 521 108 q 611 238 611 175 l 751 238 q 670 49 751 114 q 433 -15 589 -15 q 172 64 263 -15 q 82 293 82 143 m 222 449 l 611 449 l 611 493 q 563 615 611 572 q 422 657 514 657 q 274 610 325 657 q 222 476 222 564 l 222 449 m 417 1090 q 490 1065 464 1090 q 517 990 517 1039 q 417 890 517 890 q 317 990 317 890 q 417 1090 317 1090 z "},"Ę":{"ha":833,"x_min":86,"x_max":749,"o":"m 613 0 l 86 0 l 86 972 l 740 972 l 740 853 l 226 853 l 226 550 l 675 550 l 675 432 l 226 432 l 226 119 l 747 119 l 747 0 l 710 0 l 710 -40 l 635 -114 q 701 -181 635 -181 l 749 -181 l 749 -278 l 701 -278 q 580 -236 622 -278 q 538 -114 538 -194 l 538 -75 l 613 0 z "},"ę":{"ha":833,"x_min":82,"x_max":751,"o":"m 82 293 l 82 476 q 167 701 82 624 q 415 779 253 779 q 666 699 581 779 q 751 467 751 619 l 751 329 l 222 329 l 222 293 q 277 156 222 203 q 436 108 332 108 q 566 142 521 108 q 611 238 611 175 l 751 238 q 551 -4 751 40 l 551 -40 l 476 -114 q 543 -181 476 -181 l 590 -181 l 590 -278 l 543 -278 q 422 -236 464 -278 q 379 -114 379 -194 l 379 -75 l 438 -15 q 178 58 274 -17 q 82 293 82 133 m 222 449 l 611 449 l 611 493 q 563 615 611 572 q 422 657 514 657 q 274 610 325 657 q 222 476 222 564 l 222 449 z "},"Ě":{"ha":833,"x_min":86,"x_max":747,"o":"m 747 0 l 86 0 l 86 972 l 740 972 l 740 853 l 226 853 l 226 550 l 675 550 l 675 432 l 226 432 l 226 119 l 747 119 l 747 0 m 222 1283 l 297 1283 l 424 1157 l 550 1283 l 625 1283 l 625 1208 l 453 1036 l 394 1036 l 222 1208 l 222 1283 z "},"ě":{"ha":833,"x_min":82,"x_max":751,"o":"m 82 293 l 82 476 q 167 701 82 624 q 415 779 253 779 q 666 699 581 779 q 751 467 751 619 l 751 329 l 222 329 l 222 293 q 277 156 222 203 q 436 108 332 108 q 566 142 521 108 q 611 238 611 175 l 751 238 q 670 49 751 114 q 433 -15 589 -15 q 172 64 263 -15 q 82 293 82 143 m 222 449 l 611 449 l 611 493 q 563 615 611 572 q 422 657 514 657 q 274 610 325 657 q 222 476 222 564 l 222 449 m 215 1010 l 215 1085 l 290 1085 l 417 958 l 543 1085 l 618 1085 l 618 1010 l 446 838 l 388 838 l 215 1010 z "},"Ĝ":{"ha":833,"x_min":82,"x_max":751,"o":"m 82 307 l 82 667 q 168 906 82 824 q 418 988 254 988 q 667 905 582 988 q 751 665 751 822 l 619 665 q 569 815 619 764 q 422 865 519 865 q 274 815 325 865 q 222 667 222 764 l 222 307 q 274 159 222 210 q 422 108 325 108 q 569 159 519 108 q 619 307 619 210 l 619 411 l 417 411 l 417 529 l 751 529 l 751 307 q 667 67 751 150 q 418 -15 582 -15 q 168 67 254 -15 q 82 307 82 150 m 290 1036 l 215 1036 l 215 1111 l 388 1283 l 446 1283 l 618 1111 l 618 1036 l 543 1036 l 417 1163 l 290 1036 z "},"ĝ":{"ha":833,"x_min":82,"x_max":747,"o":"m 82 297 l 82 463 q 167 699 82 617 q 417 781 253 781 q 663 700 578 781 q 747 467 747 619 l 747 13 q 667 -203 747 -129 q 435 -278 588 -278 l 151 -278 l 151 -154 l 435 -154 q 563 -111 518 -154 q 607 13 607 -68 l 607 158 l 442 -7 l 403 -7 q 165 71 247 -7 q 82 297 82 149 m 222 463 l 222 297 q 269 163 222 210 q 403 117 315 117 l 607 321 l 607 467 q 558 608 607 560 q 417 657 510 657 q 272 607 322 657 q 222 463 222 557 m 215 913 l 388 1085 l 446 1085 l 618 913 l 618 838 l 543 838 l 417 964 l 290 838 l 215 838 l 215 913 z "},"Ğ":{"ha":833,"x_min":82,"x_max":751,"o":"m 82 307 l 82 667 q 168 906 82 824 q 418 988 254 988 q 667 905 582 988 q 751 665 751 822 l 619 665 q 569 815 619 764 q 422 865 519 865 q 274 815 325 865 q 222 667 222 764 l 222 307 q 274 159 222 210 q 422 108 325 108 q 569 159 519 108 q 619 307 619 210 l 619 411 l 417 411 l 417 529 l 751 529 l 751 307 q 667 67 751 150 q 418 -15 582 -15 q 168 67 254 -15 q 82 307 82 150 m 574 1108 q 547 1081 574 1108 q 417 1054 519 1054 q 260 1108 314 1054 q 206 1265 206 1163 l 303 1265 q 417 1151 303 1151 q 531 1265 531 1151 l 628 1265 q 574 1108 628 1163 z "},"ğ":{"ha":833,"x_min":82,"x_max":747,"o":"m 82 297 l 82 463 q 167 699 82 617 q 417 781 253 781 q 663 700 578 781 q 747 467 747 619 l 747 13 q 667 -203 747 -129 q 435 -278 588 -278 l 151 -278 l 151 -154 l 435 -154 q 563 -111 518 -154 q 607 13 607 -68 l 607 158 l 442 -7 l 403 -7 q 165 71 247 -7 q 82 297 82 149 m 403 117 l 607 321 l 607 467 q 558 608 607 560 q 417 657 510 657 q 272 607 322 657 q 222 463 222 557 l 222 297 q 269 163 222 210 q 403 117 315 117 m 206 1067 l 303 1067 q 417 953 303 953 q 531 1067 531 953 l 628 1067 q 574 910 628 964 q 417 856 519 856 q 260 910 314 856 q 206 1067 206 964 z "},"Ġ":{"ha":833,"x_min":82,"x_max":751,"o":"m 82 667 q 168 906 82 824 q 418 988 254 988 q 667 905 582 988 q 751 665 751 822 l 619 665 q 569 815 619 764 q 422 865 519 865 q 274 815 325 865 q 222 667 222 764 l 222 307 q 274 159 222 210 q 422 108 325 108 q 569 159 519 108 q 619 307 619 210 l 619 411 l 417 411 l 417 529 l 751 529 l 751 307 q 667 67 751 150 q 418 -15 582 -15 q 168 67 254 -15 q 82 307 82 150 l 82 667 m 517 1189 q 417 1089 517 1089 q 317 1189 317 1089 q 417 1289 317 1289 q 490 1263 464 1289 q 517 1189 517 1236 z "},"ġ":{"ha":833,"x_min":82,"x_max":747,"o":"m 417 781 q 663 700 578 781 q 747 467 747 619 l 747 13 q 667 -203 747 -129 q 435 -278 588 -278 l 151 -278 l 151 -154 l 435 -154 q 563 -111 518 -154 q 607 13 607 -68 l 607 158 l 442 -7 l 403 -7 q 165 71 247 -7 q 82 297 82 149 l 82 463 q 167 699 82 617 q 417 781 253 781 m 222 463 l 222 297 q 269 163 222 210 q 403 117 315 117 l 607 321 l 607 467 q 558 608 607 560 q 417 657 510 657 q 272 607 322 657 q 222 463 222 557 m 417 1090 q 490 1065 464 1090 q 517 990 517 1039 q 417 890 517 890 q 317 990 317 890 q 417 1090 317 1090 z "},"Ģ":{"ha":833,"x_min":82,"x_max":751,"o":"m 82 307 l 82 667 q 168 906 82 824 q 418 988 254 988 q 667 905 582 988 q 751 665 751 822 l 619 665 q 569 815 619 764 q 422 865 519 865 q 274 815 325 865 q 222 667 222 764 l 222 307 q 274 159 222 210 q 422 108 325 108 q 569 159 519 108 q 619 307 619 210 l 619 411 l 417 411 l 417 529 l 751 529 l 751 307 q 667 67 751 150 q 418 -15 582 -15 q 168 67 254 -15 q 82 307 82 150 m 492 -125 q 439 -284 492 -229 q 286 -339 386 -339 l 286 -261 q 399 -200 369 -261 q 343 -126 343 -192 q 417 -53 343 -53 q 472 -72 453 -53 q 492 -125 492 -92 z "},"ģ":{"ha":833,"x_min":82,"x_max":747,"o":"m 417 781 q 663 700 578 781 q 747 467 747 619 l 747 13 q 667 -203 747 -129 q 435 -278 588 -278 l 151 -278 l 151 -154 l 435 -154 q 563 -111 518 -154 q 607 13 607 -68 l 607 158 l 442 -7 l 403 -7 q 165 71 247 -7 q 82 297 82 149 l 82 463 q 167 699 82 617 q 417 781 253 781 m 222 463 l 222 297 q 269 163 222 210 q 403 117 315 117 l 607 321 l 607 467 q 558 608 607 560 q 417 657 510 657 q 272 607 322 657 q 222 463 222 557 m 343 908 q 395 1067 343 1013 q 547 1122 447 1122 l 547 1044 q 436 983 465 1044 q 492 911 492 975 q 418 838 492 838 q 343 908 343 838 z "},"Ĥ":{"ha":833,"x_min":86,"x_max":747,"o":"m 86 972 l 226 972 l 226 554 l 607 554 l 607 972 l 747 972 l 747 0 l 607 0 l 607 436 l 226 436 l 226 0 l 86 0 l 86 972 m 215 1036 l 215 1111 l 388 1283 l 446 1283 l 618 1111 l 618 1036 l 543 1036 l 417 1163 l 290 1036 l 215 1036 z "},"ĥ":{"ha":833,"x_min":-44,"x_max":747,"o":"m 86 0 l 86 1042 l 226 1042 l 226 606 l 392 771 l 431 771 q 666 695 585 771 q 747 476 747 619 l 747 0 l 607 0 l 607 476 q 562 603 607 560 q 431 647 517 647 l 226 443 l 226 0 l 86 0 m -44 1160 l 128 1332 l 185 1332 l 357 1160 l 357 1085 l 282 1085 l 157 1211 l 31 1085 l -44 1085 l -44 1160 z "},"Ħ":{"ha":833,"x_min":0,"x_max":833,"o":"m 833 715 l 747 715 l 747 0 l 607 0 l 607 436 l 226 436 l 226 0 l 86 0 l 86 715 l 0 715 l 0 813 l 86 813 l 86 972 l 226 972 l 226 813 l 607 813 l 607 972 l 747 972 l 747 813 l 833 813 l 833 715 m 607 715 l 226 715 l 226 554 l 607 554 l 607 715 z "},"ħ":{"ha":833,"x_min":0,"x_max":747,"o":"m 0 943 l 100 943 l 100 1042 l 240 1042 l 240 943 l 433 943 l 433 846 l 240 846 l 240 619 l 392 771 l 431 771 q 666 695 585 771 q 747 476 747 619 l 747 0 l 607 0 l 607 476 q 562 603 607 560 q 431 647 517 647 l 240 457 l 240 0 l 100 0 l 100 846 l 0 846 l 0 943 z "},"Ĩ":{"ha":833,"x_min":90,"x_max":743,"o":"m 90 853 l 90 972 l 743 972 l 743 853 l 488 853 l 488 119 l 743 119 l 743 0 l 90 0 l 90 119 l 346 119 l 346 853 l 90 853 m 158 1086 q 200 1215 158 1171 q 319 1260 242 1260 q 393 1246 363 1260 q 437 1215 424 1232 q 469 1183 450 1197 q 514 1169 489 1169 q 578 1244 578 1169 l 675 1244 q 633 1117 675 1161 q 514 1072 592 1072 q 441 1086 471 1072 q 398 1117 411 1100 q 365 1149 385 1135 q 319 1163 344 1163 q 256 1086 256 1163 l 158 1086 z "},"ĩ":{"ha":833,"x_min":90,"x_max":743,"o":"m 90 0 l 90 119 l 353 119 l 353 644 l 110 644 l 110 764 l 494 764 l 494 119 l 743 119 l 743 0 l 90 0 m 140 889 q 182 1017 140 974 q 301 1061 224 1061 q 375 1047 344 1061 q 419 1016 406 1033 q 451 985 432 999 q 496 971 471 971 q 560 1047 560 971 l 657 1047 q 615 918 657 963 q 496 874 574 874 q 423 888 453 874 q 380 919 393 901 q 347 950 367 936 q 301 964 326 964 q 238 889 238 964 l 140 889 z "},"Ī":{"ha":833,"x_min":90,"x_max":743,"o":"m 90 119 l 346 119 l 346 853 l 90 853 l 90 972 l 743 972 l 743 853 l 488 853 l 488 119 l 743 119 l 743 0 l 90 0 l 90 119 m 200 1188 l 633 1188 l 633 1090 l 200 1090 l 200 1188 z "},"ī":{"ha":833,"x_min":90,"x_max":743,"o":"m 90 119 l 353 119 l 353 644 l 110 644 l 110 764 l 494 764 l 494 119 l 743 119 l 743 0 l 90 0 l 90 119 m 615 893 l 182 893 l 182 990 l 615 990 l 615 893 z "},"Ĭ":{"ha":833,"x_min":90,"x_max":743,"o":"m 743 0 l 90 0 l 90 119 l 346 119 l 346 853 l 90 853 l 90 972 l 743 972 l 743 853 l 488 853 l 488 119 l 743 119 l 743 0 m 206 1265 l 303 1265 q 417 1151 303 1151 q 531 1265 531 1151 l 628 1265 q 574 1108 628 1163 q 417 1054 519 1054 q 260 1108 314 1054 q 206 1265 206 1163 z "},"ĭ":{"ha":833,"x_min":90,"x_max":743,"o":"m 743 0 l 90 0 l 90 119 l 353 119 l 353 644 l 110 644 l 110 764 l 494 764 l 494 119 l 743 119 l 743 0 m 188 1067 l 285 1067 q 399 953 285 953 q 513 1067 513 953 l 610 1067 q 556 910 610 964 q 399 856 501 856 q 242 910 296 856 q 188 1067 188 964 z "},"Į":{"ha":833,"x_min":90,"x_max":743,"o":"m 368 0 l 90 0 l 90 119 l 346 119 l 346 853 l 90 853 l 90 972 l 743 972 l 743 853 l 488 853 l 488 119 l 743 119 l 743 0 l 465 0 l 465 -40 l 392 -114 q 457 -181 392 -181 l 504 -181 l 504 -278 l 457 -278 q 336 -236 378 -278 q 294 -114 294 -194 l 294 -75 l 368 0 z "},"į":{"ha":833,"x_min":90,"x_max":743,"o":"m 90 0 l 90 119 l 353 119 l 353 644 l 99 644 l 99 764 l 494 764 l 494 119 l 743 119 l 743 0 l 468 0 l 468 -40 l 393 -114 q 460 -181 393 -181 l 507 -181 l 507 -278 l 460 -278 q 338 -236 381 -278 q 296 -114 296 -194 l 296 -75 l 371 0 l 90 0 m 499 990 q 399 890 499 890 q 299 990 299 890 q 399 1090 299 1090 q 473 1065 447 1090 q 499 990 499 1039 z "},"İ":{"ha":833,"x_min":90,"x_max":743,"o":"m 90 853 l 90 972 l 743 972 l 743 853 l 488 853 l 488 119 l 743 119 l 743 0 l 90 0 l 90 119 l 346 119 l 346 853 l 90 853 m 517 1189 q 417 1089 517 1089 q 317 1189 317 1089 q 417 1289 317 1289 q 490 1263 464 1289 q 517 1189 517 1236 z "},"ı":{"ha":833,"x_min":90,"x_max":743,"o":"m 90 0 l 90 119 l 353 119 l 353 644 l 110 644 l 110 764 l 494 764 l 494 119 l 743 119 l 743 0 l 90 0 z "},"Ĳ":{"ha":833,"x_min":96,"x_max":738,"o":"m 597 853 l 403 853 l 403 972 l 738 972 l 738 303 q 652 66 738 147 q 403 -15 567 -15 l 403 108 q 548 158 499 108 q 597 303 597 208 l 597 853 m 96 0 l 96 972 l 236 972 l 236 0 l 96 0 z "},"ĳ":{"ha":833,"x_min":57,"x_max":747,"o":"m 429 -171 q 558 -128 514 -171 q 601 -3 601 -85 l 601 644 l 483 644 l 483 764 l 742 764 l 742 -3 q 662 -219 742 -144 q 429 -293 582 -293 l 429 -171 m 175 644 l 57 644 l 57 764 l 317 764 l 317 0 l 175 0 l 175 644 m 321 990 q 221 890 321 890 q 121 990 121 890 q 221 1090 121 1090 q 295 1065 269 1090 q 321 990 321 1039 m 747 990 q 647 890 747 890 q 547 990 547 890 q 647 1090 547 1090 q 721 1065 694 1090 q 747 990 747 1039 z "},"Ĵ":{"ha":833,"x_min":82,"x_max":751,"o":"m 82 303 l 222 303 q 272 158 222 208 q 417 108 322 108 q 562 158 513 108 q 611 303 611 208 l 611 853 l 182 853 l 182 972 l 751 972 l 751 303 q 666 66 751 147 q 417 -15 581 -15 q 167 66 253 -15 q 82 303 82 147 m 257 1111 l 429 1283 l 488 1283 l 660 1111 l 660 1036 l 585 1036 l 458 1163 l 332 1036 l 257 1036 l 257 1111 z "},"ĵ":{"ha":833,"x_min":104,"x_max":719,"o":"m 104 -278 l 104 -154 l 300 -154 q 427 -112 383 -154 q 471 13 471 -69 l 471 644 l 124 644 l 124 764 l 613 764 l 613 13 q 533 -203 613 -129 q 300 -278 453 -278 l 104 -278 m 392 838 l 317 838 l 317 913 l 489 1085 l 547 1085 l 719 913 l 719 838 l 644 838 l 518 964 l 392 838 z "},"Ķ":{"ha":833,"x_min":100,"x_max":747,"o":"m 100 972 l 240 972 l 240 554 l 325 554 l 607 838 l 607 972 l 747 972 l 747 792 l 451 496 l 747 200 l 747 0 l 607 0 l 607 153 l 324 436 l 240 436 l 240 0 l 100 0 l 100 972 m 286 -339 l 286 -261 q 399 -200 369 -261 q 343 -126 343 -192 q 417 -53 343 -53 q 472 -72 453 -53 q 492 -125 492 -92 q 439 -284 492 -229 q 286 -339 386 -339 z "},"ķ":{"ha":833,"x_min":100,"x_max":747,"o":"m 100 1042 l 240 1042 l 240 446 l 343 446 l 607 710 l 607 764 l 747 764 l 747 664 l 471 386 l 747 108 l 747 0 l 607 0 l 607 63 l 343 326 l 240 326 l 240 0 l 100 0 l 100 1042 m 286 -339 l 286 -261 q 399 -200 369 -261 q 343 -126 343 -192 q 417 -53 343 -53 q 472 -72 453 -53 q 492 -125 492 -92 q 439 -284 492 -229 q 286 -339 386 -339 z "},"Ĺ":{"ha":833,"x_min":82,"x_max":747,"o":"m 93 972 l 233 972 l 233 119 l 747 119 l 747 0 l 93 0 l 93 972 m 161 1036 l 82 1036 l 82 1115 l 250 1283 l 329 1283 l 329 1204 l 161 1036 z "},"ĺ":{"ha":833,"x_min":90,"x_max":743,"o":"m 90 119 l 353 119 l 353 922 l 110 922 l 110 1042 l 494 1042 l 494 119 l 743 119 l 743 0 l 90 0 l 90 119 m 321 1164 l 489 1332 l 568 1332 l 568 1253 l 400 1085 l 321 1085 l 321 1164 z "},"Ļ":{"ha":833,"x_min":93,"x_max":747,"o":"m 747 0 l 93 0 l 93 972 l 233 972 l 233 119 l 747 119 l 747 0 m 293 -339 l 293 -261 q 406 -200 376 -261 q 350 -126 350 -192 q 424 -53 350 -53 q 479 -72 460 -53 q 499 -125 499 -92 q 446 -284 499 -229 q 293 -339 393 -339 z "},"ļ":{"ha":833,"x_min":90,"x_max":743,"o":"m 743 0 l 90 0 l 90 119 l 353 119 l 353 922 l 110 922 l 110 1042 l 494 1042 l 494 119 l 743 119 l 743 0 m 293 -339 l 293 -261 q 406 -200 376 -261 q 350 -126 350 -192 q 424 -53 350 -53 q 479 -72 460 -53 q 499 -125 499 -92 q 446 -284 499 -229 q 293 -339 393 -339 z "},"Ľ":{"ha":833,"x_min":93,"x_max":747,"o":"m 747 0 l 93 0 l 93 972 l 233 972 l 233 119 l 747 119 l 747 0 m 424 590 l 424 696 q 582 793 543 696 q 508 890 508 806 q 606 988 508 988 q 704 892 704 988 q 632 667 704 744 q 424 590 560 590 z "},"ľ":{"ha":833,"x_min":90,"x_max":836,"o":"m 743 0 l 90 0 l 90 119 l 353 119 l 353 922 l 110 922 l 110 1042 l 494 1042 l 494 119 l 743 119 l 743 0 m 619 835 q 733 896 704 835 q 672 976 672 907 q 754 1057 672 1057 q 836 978 836 1057 q 781 807 836 867 q 619 747 725 747 l 619 835 z "},"Ŀ":{"ha":833,"x_min":93,"x_max":747,"o":"m 747 0 l 93 0 l 93 972 l 233 972 l 233 119 l 747 119 l 747 0 m 449 550 q 476 629 449 601 q 556 657 504 657 q 635 629 607 657 q 663 550 663 601 q 635 471 663 499 q 556 443 607 443 q 449 550 449 443 z "},"ŀ":{"ha":833,"x_min":90,"x_max":933,"o":"m 90 0 l 90 119 l 353 119 l 353 922 l 110 922 l 110 1042 l 494 1042 l 494 119 l 743 119 l 743 0 l 90 0 m 826 449 q 719 556 719 449 q 747 635 719 607 q 826 663 775 663 q 906 635 878 663 q 933 556 933 607 q 906 476 933 504 q 826 449 878 449 z "},"Ł":{"ha":833,"x_min":19,"x_max":772,"o":"m 126 301 l 19 301 l 19 399 l 86 399 l 201 514 l 201 972 l 342 972 l 342 656 l 424 738 l 531 738 l 531 640 l 465 640 l 342 517 l 342 119 l 772 119 l 772 0 l 201 0 l 201 376 l 126 301 z "},"ł":{"ha":833,"x_min":90,"x_max":743,"o":"m 90 0 l 90 119 l 353 119 l 353 410 l 269 326 l 126 326 l 126 424 l 228 424 l 353 549 l 353 922 l 110 922 l 110 1042 l 494 1042 l 494 689 l 579 774 l 721 774 l 721 676 l 619 676 l 494 551 l 494 119 l 743 119 l 743 0 l 90 0 z "},"Ń":{"ha":833,"x_min":86,"x_max":747,"o":"m 86 972 l 226 972 l 226 856 l 607 475 l 607 972 l 747 972 l 747 0 l 607 0 l 607 289 l 226 668 l 226 0 l 86 0 l 86 972 m 335 1115 l 503 1283 l 582 1283 l 582 1204 l 414 1036 l 335 1036 l 335 1115 z "},"ń":{"ha":833,"x_min":86,"x_max":747,"o":"m 86 764 l 226 764 l 226 606 l 392 771 l 431 771 q 666 695 585 771 q 747 476 747 619 l 747 0 l 607 0 l 607 476 q 562 603 607 560 q 431 647 517 647 l 226 443 l 226 0 l 86 0 l 86 764 m 335 917 l 503 1085 l 582 1085 l 582 1006 l 414 838 l 335 838 l 335 917 z "},"Ņ":{"ha":833,"x_min":86,"x_max":747,"o":"m 86 972 l 226 972 l 226 856 l 607 475 l 607 972 l 747 972 l 747 0 l 607 0 l 607 289 l 226 668 l 226 0 l 86 0 l 86 972 m 286 -339 l 286 -261 q 399 -200 369 -261 q 343 -126 343 -192 q 417 -53 343 -53 q 472 -72 453 -53 q 492 -125 492 -92 q 439 -284 492 -229 q 286 -339 386 -339 z "},"ņ":{"ha":833,"x_min":86,"x_max":747,"o":"m 86 764 l 226 764 l 226 606 l 392 771 l 431 771 q 666 695 585 771 q 747 476 747 619 l 747 0 l 607 0 l 607 476 q 562 603 607 560 q 431 647 517 647 l 226 443 l 226 0 l 86 0 l 86 764 m 286 -339 l 286 -261 q 399 -200 369 -261 q 343 -126 343 -192 q 417 -53 343 -53 q 472 -72 453 -53 q 492 -125 492 -92 q 439 -284 492 -229 q 286 -339 386 -339 z "},"Ň":{"ha":833,"x_min":86,"x_max":747,"o":"m 86 972 l 226 972 l 226 856 l 607 475 l 607 972 l 747 972 l 747 0 l 607 0 l 607 289 l 226 668 l 226 0 l 86 0 l 86 972 m 215 1283 l 290 1283 l 417 1157 l 543 1283 l 618 1283 l 618 1208 l 446 1036 l 388 1036 l 215 1208 l 215 1283 z "},"ň":{"ha":833,"x_min":86,"x_max":747,"o":"m 86 0 l 86 764 l 226 764 l 226 606 l 392 771 l 431 771 q 666 695 585 771 q 747 476 747 619 l 747 0 l 607 0 l 607 476 q 562 603 607 560 q 431 647 517 647 l 226 443 l 226 0 l 86 0 m 388 838 l 215 1010 l 215 1085 l 290 1085 l 417 958 l 543 1085 l 618 1085 l 618 1010 l 446 838 l 388 838 z "},"Ŋ":{"ha":833,"x_min":86,"x_max":747,"o":"m 86 972 l 226 972 l 226 856 l 607 475 l 607 972 l 747 972 l 747 13 q 667 -203 747 -129 q 435 -278 588 -278 l 324 -278 l 324 -154 l 435 -154 q 563 -111 518 -154 q 607 13 607 -68 l 607 289 l 226 668 l 226 0 l 86 0 l 86 972 z "},"ŋ":{"ha":833,"x_min":86,"x_max":747,"o":"m 86 764 l 226 764 l 226 606 l 392 771 l 431 771 q 666 697 585 771 q 747 481 747 622 l 747 13 q 667 -203 747 -129 q 435 -278 588 -278 l 324 -278 l 324 -154 l 435 -154 q 563 -111 518 -154 q 607 13 607 -68 l 607 478 q 562 603 607 560 q 431 647 517 647 l 226 443 l 226 0 l 86 0 l 86 764 z "},"Ō":{"ha":833,"x_min":82,"x_max":751,"o":"m 82 671 q 167 906 82 825 q 417 988 253 988 q 666 906 581 988 q 751 671 751 825 l 751 303 q 666 66 751 147 q 417 -15 581 -15 q 167 66 253 -15 q 82 303 82 147 l 82 671 m 222 671 l 222 303 q 272 158 222 208 q 417 108 322 108 q 562 158 513 108 q 611 303 611 208 l 611 671 q 562 815 611 765 q 417 865 513 865 q 272 815 322 865 q 222 671 222 765 m 200 1188 l 633 1188 l 633 1090 l 200 1090 l 200 1188 z "},"ō":{"ha":833,"x_min":82,"x_max":751,"o":"m 82 463 q 167 698 82 617 q 417 779 253 779 q 666 698 581 779 q 751 463 751 617 l 751 303 q 666 66 751 147 q 417 -15 581 -15 q 167 66 253 -15 q 82 303 82 147 l 82 463 m 222 463 l 222 303 q 272 158 222 208 q 417 108 322 108 q 562 158 513 108 q 611 303 611 208 l 611 463 q 562 607 611 557 q 417 657 513 657 q 272 607 322 657 q 222 463 222 557 m 200 990 l 633 990 l 633 893 l 200 893 l 200 990 z "},"Ŏ":{"ha":833,"x_min":82,"x_max":751,"o":"m 82 303 l 82 671 q 167 906 82 825 q 417 988 253 988 q 666 906 581 988 q 751 671 751 825 l 751 303 q 666 66 751 147 q 417 -15 581 -15 q 167 66 253 -15 q 82 303 82 147 m 222 671 l 222 303 q 272 158 222 208 q 417 108 322 108 q 562 158 513 108 q 611 303 611 208 l 611 671 q 562 815 611 765 q 417 865 513 865 q 272 815 322 865 q 222 671 222 765 m 574 1108 q 547 1081 574 1108 q 417 1054 519 1054 q 260 1108 314 1054 q 206 1265 206 1163 l 303 1265 q 417 1151 303 1151 q 531 1265 531 1151 l 628 1265 q 574 1108 628 1163 z "},"ŏ":{"ha":833,"x_min":82,"x_max":751,"o":"m 82 303 l 82 463 q 167 698 82 617 q 417 779 253 779 q 666 698 581 779 q 751 463 751 617 l 751 303 q 666 66 751 147 q 417 -15 581 -15 q 167 66 253 -15 q 82 303 82 147 m 222 463 l 222 303 q 272 158 222 208 q 417 108 322 108 q 562 158 513 108 q 611 303 611 208 l 611 463 q 562 607 611 557 q 417 657 513 657 q 272 607 322 657 q 222 463 222 557 m 574 910 q 547 883 574 910 q 417 856 519 856 q 260 910 314 856 q 206 1067 206 964 l 303 1067 q 417 953 303 953 q 531 1067 531 953 l 628 1067 q 574 910 628 964 z "},"Ő":{"ha":833,"x_min":82,"x_max":751,"o":"m 82 671 q 167 906 82 825 q 417 988 253 988 q 666 906 581 988 q 751 671 751 825 l 751 303 q 666 66 751 147 q 417 -15 581 -15 q 167 66 253 -15 q 82 303 82 147 l 82 671 m 222 671 l 222 303 q 272 158 222 208 q 417 108 322 108 q 562 158 513 108 q 611 303 611 208 l 611 671 q 562 815 611 765 q 417 865 513 865 q 272 815 322 865 q 222 671 222 765 m 501 1115 l 669 1283 l 749 1283 l 749 1204 l 581 1036 l 501 1036 l 501 1115 m 224 1115 l 392 1283 l 471 1283 l 471 1204 l 303 1036 l 224 1036 l 224 1115 z "},"ő":{"ha":833,"x_min":82,"x_max":751,"o":"m 82 463 q 167 698 82 617 q 417 779 253 779 q 666 698 581 779 q 751 463 751 617 l 751 303 q 666 66 751 147 q 417 -15 581 -15 q 167 66 253 -15 q 82 303 82 147 l 82 463 m 222 463 l 222 303 q 272 158 222 208 q 417 108 322 108 q 562 158 513 108 q 611 303 611 208 l 611 463 q 562 607 611 557 q 417 657 513 657 q 272 607 322 657 q 222 463 222 557 m 501 917 l 669 1085 l 749 1085 l 749 1006 l 581 838 l 501 838 l 501 917 m 224 917 l 392 1085 l 471 1085 l 471 1006 l 303 838 l 224 838 l 224 917 z "},"Œ":{"ha":833,"x_min":82,"x_max":747,"o":"m 82 686 q 160 899 82 826 q 385 972 238 972 l 740 972 l 740 853 l 544 853 l 544 550 l 719 550 l 719 432 l 544 432 l 544 119 l 747 119 l 747 0 l 385 0 q 160 73 238 0 q 82 286 82 146 l 82 686 m 222 686 l 222 286 q 264 165 222 207 q 385 124 306 124 l 408 124 l 408 849 l 385 849 q 264 807 306 849 q 222 686 222 765 z "},"œ":{"ha":833,"x_min":63,"x_max":771,"o":"m 354 764 l 479 764 q 697 687 622 764 q 771 464 771 610 l 771 331 l 479 331 l 479 124 q 639 240 639 124 l 771 240 q 697 62 771 124 q 479 0 622 0 l 354 0 q 137 73 211 0 q 63 285 63 146 l 63 481 q 137 692 63 619 q 354 764 211 764 m 192 481 l 192 285 q 233 165 192 207 q 354 124 275 124 l 354 640 q 233 600 275 642 q 192 481 192 558 m 479 450 l 643 450 l 643 490 q 601 601 643 563 q 479 640 558 640 l 479 450 z "},"Ŕ":{"ha":833,"x_min":82,"x_max":751,"o":"m 222 0 l 82 0 l 82 972 l 444 972 q 673 898 594 972 q 751 682 751 824 q 691 486 751 558 q 514 397 631 414 l 747 164 l 747 0 l 607 0 l 607 117 l 331 393 l 222 393 l 222 0 m 444 849 l 222 849 l 222 515 l 444 515 q 568 558 525 515 q 611 682 611 601 q 568 806 611 764 q 444 849 525 849 m 321 1036 l 321 1115 l 489 1283 l 568 1283 l 568 1204 l 400 1036 l 321 1036 z "},"ŕ":{"ha":833,"x_min":114,"x_max":747,"o":"m 114 0 l 114 764 l 254 764 l 254 606 l 419 771 l 458 771 q 673 703 599 771 q 747 504 747 635 l 747 476 l 607 476 l 607 504 q 458 647 607 647 l 254 443 l 254 0 l 114 0 m 335 838 l 335 917 l 503 1085 l 582 1085 l 582 1006 l 414 838 l 335 838 z "},"Ŗ":{"ha":833,"x_min":82,"x_max":751,"o":"m 222 0 l 82 0 l 82 972 l 444 972 q 673 898 594 972 q 751 682 751 824 q 691 486 751 558 q 514 397 631 414 l 747 164 l 747 0 l 607 0 l 607 117 l 331 393 l 222 393 l 222 0 m 222 849 l 222 515 l 444 515 q 568 558 525 515 q 611 682 611 601 q 568 806 611 764 q 444 849 525 849 l 222 849 m 286 -339 l 286 -261 q 399 -200 369 -261 q 343 -126 343 -192 q 417 -53 343 -53 q 472 -72 453 -53 q 492 -125 492 -92 q 439 -284 492 -229 q 286 -339 386 -339 z "},"ŗ":{"ha":833,"x_min":58,"x_max":747,"o":"m 254 0 l 114 0 l 114 764 l 254 764 l 254 606 l 419 771 l 458 771 q 673 703 599 771 q 747 504 747 635 l 747 476 l 607 476 l 607 504 q 458 647 607 647 l 254 443 l 254 0 m 58 -339 l 58 -261 q 169 -200 140 -261 q 115 -126 115 -192 q 189 -53 115 -53 q 243 -72 224 -53 q 263 -125 263 -92 q 210 -284 263 -229 q 58 -339 158 -339 z "},"Ř":{"ha":833,"x_min":82,"x_max":751,"o":"m 82 0 l 82 972 l 444 972 q 673 898 594 972 q 751 682 751 824 q 691 486 751 558 q 514 397 631 414 l 747 164 l 747 0 l 607 0 l 607 117 l 331 393 l 222 393 l 222 0 l 82 0 m 444 849 l 222 849 l 222 515 l 444 515 q 568 558 525 515 q 611 682 611 601 q 568 806 611 764 q 444 849 525 849 m 201 1283 l 276 1283 l 403 1157 l 529 1283 l 604 1283 l 604 1208 l 432 1036 l 374 1036 l 201 1208 l 201 1283 z "},"ř":{"ha":833,"x_min":114,"x_max":747,"o":"m 114 764 l 254 764 l 254 606 l 419 771 l 458 771 q 673 703 599 771 q 747 504 747 635 l 747 476 l 607 476 l 607 504 q 458 647 607 647 l 254 443 l 254 0 l 114 0 l 114 764 m 215 1010 l 215 1085 l 290 1085 l 417 958 l 543 1085 l 618 1085 l 618 1010 l 446 838 l 388 838 l 215 1010 z "},"Ś":{"ha":833,"x_min":82,"x_max":751,"o":"m 428 -15 q 171 67 260 -15 q 82 307 82 150 l 214 307 q 269 159 214 210 q 429 108 324 108 q 615 257 615 108 q 593 338 615 304 q 534 387 571 371 q 450 417 497 403 q 354 440 403 431 q 258 469 306 449 q 174 516 211 489 q 115 594 138 543 q 93 715 93 646 q 171 917 93 847 q 397 988 249 988 q 643 905 558 988 q 728 665 728 822 l 596 665 q 545 814 596 763 q 397 865 494 865 q 272 828 315 865 q 229 722 229 792 q 251 642 229 675 q 310 594 274 610 q 394 565 347 579 q 490 542 442 551 q 586 513 539 533 q 670 466 633 493 q 729 388 707 439 q 751 267 751 336 q 669 57 751 129 q 428 -15 586 -15 m 328 1115 l 496 1283 l 575 1283 l 575 1204 l 407 1036 l 328 1036 l 328 1115 z "},"ś":{"ha":833,"x_min":82,"x_max":751,"o":"m 82 251 l 214 251 q 426 108 214 108 q 615 218 615 108 q 587 280 615 257 q 512 312 558 303 q 410 326 465 321 q 299 343 354 332 q 197 374 243 354 q 122 439 150 394 q 93 550 93 483 q 172 720 93 661 q 403 779 251 779 q 647 713 563 779 q 731 518 731 646 l 599 518 q 399 657 599 657 q 273 631 317 657 q 229 556 229 604 q 268 489 229 513 q 365 459 307 465 q 490 441 422 453 q 616 412 558 429 q 713 346 674 394 q 751 221 751 297 q 668 45 751 106 q 426 -15 585 -15 q 170 53 258 -15 q 82 251 82 121 m 414 838 l 335 838 l 335 917 l 503 1085 l 582 1085 l 582 1006 l 414 838 z "},"Ŝ":{"ha":833,"x_min":82,"x_max":751,"o":"m 82 307 l 214 307 q 269 159 214 210 q 429 108 324 108 q 615 257 615 108 q 593 338 615 304 q 534 387 571 371 q 450 417 497 403 q 354 440 403 431 q 258 469 306 449 q 174 516 211 489 q 115 594 138 543 q 93 715 93 646 q 171 917 93 847 q 397 988 249 988 q 643 905 558 988 q 728 665 728 822 l 596 665 q 545 814 596 763 q 397 865 494 865 q 272 828 315 865 q 229 722 229 792 q 251 642 229 675 q 310 594 274 610 q 394 565 347 579 q 490 542 442 551 q 586 513 539 533 q 670 466 633 493 q 729 388 707 439 q 751 267 751 336 q 669 57 751 129 q 428 -15 586 -15 q 171 67 260 -15 q 82 307 82 150 m 283 1036 l 208 1036 l 208 1111 l 381 1283 l 439 1283 l 611 1111 l 611 1036 l 536 1036 l 410 1163 l 283 1036 z "},"ŝ":{"ha":833,"x_min":82,"x_max":751,"o":"m 82 251 l 214 251 q 426 108 214 108 q 615 218 615 108 q 587 280 615 257 q 512 312 558 303 q 410 326 465 321 q 299 343 354 332 q 197 374 243 354 q 122 439 150 394 q 93 550 93 483 q 172 720 93 661 q 403 779 251 779 q 647 713 563 779 q 731 518 731 646 l 599 518 q 399 657 599 657 q 273 631 317 657 q 229 556 229 604 q 268 489 229 513 q 365 459 307 465 q 490 441 422 453 q 616 412 558 429 q 713 346 674 394 q 751 221 751 297 q 668 45 751 106 q 426 -15 585 -15 q 170 53 258 -15 q 82 251 82 121 m 215 838 l 215 913 l 388 1085 l 446 1085 l 618 913 l 618 838 l 543 838 l 417 964 l 290 838 l 215 838 z "},"Ş":{"ha":833,"x_min":82,"x_max":751,"o":"m 82 307 l 214 307 q 269 159 214 210 q 429 108 324 108 q 615 257 615 108 q 593 338 615 304 q 534 387 571 371 q 450 417 497 403 q 354 440 403 431 q 258 469 306 449 q 174 516 211 489 q 115 594 138 543 q 93 715 93 646 q 171 917 93 847 q 397 988 249 988 q 643 905 558 988 q 728 665 728 822 l 596 665 q 545 814 596 763 q 397 865 494 865 q 272 828 315 865 q 229 722 229 792 q 251 642 229 675 q 310 594 274 610 q 394 565 347 579 q 490 542 442 551 q 586 513 539 533 q 670 466 633 493 q 729 388 707 439 q 751 267 751 336 q 679 66 751 138 q 468 -14 607 -6 l 468 -42 l 524 -97 l 524 -132 q 383 -274 524 -274 l 326 -274 l 326 -176 l 383 -176 q 426 -132 426 -176 l 371 -76 l 371 -12 q 156 83 231 1 q 82 307 82 164 z "},"ş":{"ha":833,"x_min":82,"x_max":751,"o":"m 82 251 l 214 251 q 426 108 214 108 q 615 218 615 108 q 587 280 615 257 q 512 312 558 303 q 410 326 465 321 q 299 343 354 332 q 197 374 243 354 q 122 439 150 394 q 93 550 93 483 q 172 720 93 661 q 403 779 251 779 q 647 713 563 779 q 731 518 731 646 l 599 518 q 399 657 599 657 q 273 631 317 657 q 229 556 229 604 q 268 489 229 513 q 365 459 307 465 q 490 441 422 453 q 616 412 558 429 q 713 346 674 394 q 751 221 751 297 q 678 53 751 114 q 465 -15 606 -7 l 465 -42 l 522 -97 l 522 -132 q 486 -237 522 -200 q 381 -274 450 -274 l 324 -274 l 324 -176 l 381 -176 q 425 -132 425 -176 l 368 -76 l 368 -14 q 155 65 228 -3 q 82 251 82 132 z "},"Š":{"ha":833,"x_min":82,"x_max":751,"o":"m 428 -15 q 171 67 260 -15 q 82 307 82 150 l 214 307 q 269 159 214 210 q 429 108 324 108 q 615 257 615 108 q 593 338 615 304 q 534 387 571 371 q 450 417 497 403 q 354 440 403 431 q 258 469 306 449 q 174 516 211 489 q 115 594 138 543 q 93 715 93 646 q 171 917 93 847 q 397 988 249 988 q 643 905 558 988 q 728 665 728 822 l 596 665 q 545 814 596 763 q 397 865 494 865 q 272 828 315 865 q 229 722 229 792 q 251 642 229 675 q 310 594 274 610 q 394 565 347 579 q 490 542 442 551 q 586 513 539 533 q 670 466 633 493 q 729 388 707 439 q 751 267 751 336 q 669 57 751 129 q 428 -15 586 -15 m 208 1283 l 283 1283 l 410 1157 l 536 1283 l 611 1283 l 611 1208 l 439 1036 l 381 1036 l 208 1208 l 208 1283 z "},"š":{"ha":833,"x_min":82,"x_max":751,"o":"m 82 251 l 214 251 q 426 108 214 108 q 615 218 615 108 q 587 280 615 257 q 512 312 558 303 q 410 326 465 321 q 299 343 354 332 q 197 374 243 354 q 122 439 150 394 q 93 550 93 483 q 172 720 93 661 q 403 779 251 779 q 647 713 563 779 q 731 518 731 646 l 599 518 q 399 657 599 657 q 273 631 317 657 q 229 556 229 604 q 268 489 229 513 q 365 459 307 465 q 490 441 422 453 q 616 412 558 429 q 713 346 674 394 q 751 221 751 297 q 668 45 751 106 q 426 -15 585 -15 q 170 53 258 -15 q 82 251 82 121 m 388 838 l 215 1010 l 215 1085 l 290 1085 l 417 958 l 543 1085 l 618 1085 l 618 1010 l 446 838 l 388 838 z "},"Ţ":{"ha":833,"x_min":53,"x_max":782,"o":"m 346 853 l 53 853 l 53 972 l 782 972 l 782 853 l 488 853 l 488 0 l 346 0 l 346 853 m 286 -261 q 399 -200 369 -261 q 343 -126 343 -192 q 417 -53 343 -53 q 472 -72 453 -53 q 492 -125 492 -92 q 439 -284 492 -229 q 286 -339 386 -339 l 286 -261 z "},"ţ":{"ha":833,"x_min":86,"x_max":747,"o":"m 747 644 l 435 644 l 435 290 q 479 167 435 210 q 607 124 524 124 l 747 124 l 747 0 l 607 0 q 374 74 454 0 q 294 290 294 149 l 294 644 l 86 644 l 86 764 l 294 764 l 294 972 l 435 972 l 435 764 l 747 764 l 747 644 m 454 -200 q 399 -126 399 -192 q 472 -53 399 -53 q 528 -72 508 -53 q 547 -125 547 -92 q 494 -284 547 -229 q 342 -339 442 -339 l 342 -261 q 454 -200 425 -261 z "},"Ť":{"ha":833,"x_min":53,"x_max":782,"o":"m 346 853 l 53 853 l 53 972 l 782 972 l 782 853 l 488 853 l 488 0 l 346 0 l 346 853 m 388 1036 l 215 1208 l 215 1283 l 290 1283 l 417 1157 l 543 1283 l 618 1283 l 618 1208 l 446 1036 l 388 1036 z "},"ť":{"ha":833,"x_min":71,"x_max":836,"o":"m 71 644 l 71 764 l 228 764 l 228 972 l 368 972 l 368 764 l 571 764 l 571 644 l 368 644 l 368 267 q 515 124 368 124 l 571 124 l 571 0 l 515 0 q 302 69 376 0 q 228 267 228 138 l 228 644 l 71 644 m 619 747 l 619 835 q 733 896 704 835 q 672 976 672 907 q 754 1057 672 1057 q 836 978 836 1057 q 781 807 836 867 q 619 747 725 747 z "},"Ŧ":{"ha":833,"x_min":53,"x_max":782,"o":"m 346 853 l 53 853 l 53 972 l 782 972 l 782 853 l 488 853 l 488 542 l 661 542 l 661 444 l 488 444 l 488 0 l 346 0 l 346 444 l 172 444 l 172 542 l 346 542 l 346 853 z "},"ŧ":{"ha":833,"x_min":86,"x_max":747,"o":"m 747 644 l 435 644 l 435 476 l 719 476 l 719 379 l 435 379 l 435 290 q 479 167 435 210 q 607 124 524 124 l 747 124 l 747 0 l 607 0 q 374 74 454 0 q 294 290 294 149 l 294 379 l 114 379 l 114 476 l 294 476 l 294 644 l 86 644 l 86 764 l 294 764 l 294 972 l 435 972 l 435 764 l 747 764 l 747 644 z "},"Ũ":{"ha":833,"x_min":82,"x_max":751,"o":"m 82 303 l 82 972 l 222 972 l 222 303 q 272 158 222 208 q 417 108 322 108 q 562 158 513 108 q 611 303 611 208 l 611 972 l 751 972 l 751 303 q 666 66 751 147 q 417 -15 581 -15 q 167 66 253 -15 q 82 303 82 147 m 319 1260 q 393 1246 363 1260 q 437 1215 424 1232 q 469 1183 450 1197 q 514 1169 489 1169 q 578 1244 578 1169 l 675 1244 q 633 1117 675 1161 q 514 1072 592 1072 q 441 1086 471 1072 q 398 1117 411 1100 q 365 1149 385 1135 q 319 1163 344 1163 q 256 1086 256 1163 l 158 1086 q 200 1215 158 1171 q 319 1260 242 1260 z "},"ũ":{"ha":833,"x_min":86,"x_max":747,"o":"m 86 764 l 226 764 l 226 283 q 271 160 226 203 q 399 117 315 117 l 607 325 l 607 764 l 747 764 l 747 0 l 607 0 l 607 163 l 438 -7 l 399 -7 q 166 67 246 -7 q 86 283 86 142 l 86 764 m 256 889 l 158 889 q 200 1017 158 974 q 319 1061 242 1061 q 393 1047 363 1061 q 437 1016 424 1033 q 469 985 450 999 q 514 971 489 971 q 578 1047 578 971 l 675 1047 q 633 918 675 963 q 514 874 592 874 q 441 888 471 874 q 398 919 411 901 q 365 950 385 936 q 319 964 344 964 q 256 889 256 964 z "},"Ū":{"ha":833,"x_min":82,"x_max":751,"o":"m 82 303 l 82 972 l 222 972 l 222 303 q 272 158 222 208 q 417 108 322 108 q 562 158 513 108 q 611 303 611 208 l 611 972 l 751 972 l 751 303 q 666 66 751 147 q 417 -15 581 -15 q 167 66 253 -15 q 82 303 82 147 m 633 1090 l 200 1090 l 200 1188 l 633 1188 l 633 1090 z "},"ū":{"ha":833,"x_min":86,"x_max":747,"o":"m 86 764 l 226 764 l 226 283 q 271 160 226 203 q 399 117 315 117 l 607 325 l 607 764 l 747 764 l 747 0 l 607 0 l 607 163 l 438 -7 l 399 -7 q 166 67 246 -7 q 86 283 86 142 l 86 764 m 633 893 l 200 893 l 200 990 l 633 990 l 633 893 z "},"Ŭ":{"ha":833,"x_min":82,"x_max":751,"o":"m 82 303 l 82 972 l 222 972 l 222 303 q 272 158 222 208 q 417 108 322 108 q 562 158 513 108 q 611 303 611 208 l 611 972 l 751 972 l 751 303 q 666 66 751 147 q 417 -15 581 -15 q 167 66 253 -15 q 82 303 82 147 m 206 1265 l 303 1265 q 417 1151 303 1151 q 531 1265 531 1151 l 628 1265 q 574 1108 628 1163 q 417 1054 519 1054 q 260 1108 314 1054 q 206 1265 206 1163 z "},"ŭ":{"ha":833,"x_min":86,"x_max":747,"o":"m 86 764 l 226 764 l 226 283 q 271 160 226 203 q 399 117 315 117 l 607 325 l 607 764 l 747 764 l 747 0 l 607 0 l 607 163 l 438 -7 l 399 -7 q 166 67 246 -7 q 86 283 86 142 l 86 764 m 206 1067 l 303 1067 q 417 953 303 953 q 531 1067 531 953 l 628 1067 q 574 910 628 964 q 417 856 519 856 q 260 910 314 856 q 206 1067 206 964 z "},"Ů":{"ha":833,"x_min":82,"x_max":751,"o":"m 82 303 l 82 972 l 222 972 l 222 303 q 272 158 222 208 q 417 108 322 108 q 562 158 513 108 q 611 303 611 208 l 611 972 l 751 972 l 751 303 q 666 66 751 147 q 417 -15 581 -15 q 167 66 253 -15 q 82 303 82 147 m 272 1168 q 417 1311 272 1311 q 561 1168 561 1311 q 417 1024 561 1024 q 310 1060 347 1024 q 272 1168 272 1097 m 353 1168 q 417 1103 353 1103 q 481 1168 481 1103 q 417 1232 481 1232 q 353 1168 353 1232 z "},"ů":{"ha":833,"x_min":86,"x_max":747,"o":"m 86 764 l 226 764 l 226 283 q 271 160 226 203 q 399 117 315 117 l 607 325 l 607 764 l 747 764 l 747 0 l 607 0 l 607 163 l 438 -7 l 399 -7 q 166 67 246 -7 q 86 283 86 142 l 86 764 m 417 1114 q 561 969 561 1114 q 524 863 561 900 q 417 825 488 825 q 310 863 347 825 q 272 969 272 900 q 310 1077 272 1040 q 417 1114 347 1114 m 417 1033 q 385 1033 417 1033 q 353 969 353 1033 q 417 906 353 906 q 481 969 481 906 q 417 1033 481 1033 z "},"Ű":{"ha":833,"x_min":82,"x_max":751,"o":"m 82 303 l 82 972 l 222 972 l 222 303 q 272 158 222 208 q 417 108 322 108 q 562 158 513 108 q 611 303 611 208 l 611 972 l 751 972 l 751 303 q 666 66 751 147 q 417 -15 581 -15 q 167 66 253 -15 q 82 303 82 147 m 501 1036 l 501 1115 l 669 1283 l 749 1283 l 749 1204 l 581 1036 l 501 1036 m 224 1115 l 392 1283 l 471 1283 l 471 1204 l 303 1036 l 224 1036 l 224 1115 z "},"ű":{"ha":833,"x_min":86,"x_max":749,"o":"m 86 764 l 226 764 l 226 283 q 271 160 226 203 q 399 117 315 117 l 607 325 l 607 764 l 747 764 l 747 0 l 607 0 l 607 163 l 438 -7 l 399 -7 q 166 67 246 -7 q 86 283 86 142 l 86 764 m 501 917 l 669 1085 l 749 1085 l 749 1006 l 581 838 l 501 838 l 501 917 m 303 838 l 224 838 l 224 917 l 392 1085 l 471 1085 l 471 1006 l 303 838 z "},"Ų":{"ha":833,"x_min":82,"x_max":751,"o":"m 82 303 l 82 972 l 222 972 l 222 303 q 272 158 222 208 q 417 108 322 108 q 562 158 513 108 q 611 303 611 208 l 611 972 l 751 972 l 751 303 q 526 -4 751 47 l 526 -40 l 453 -114 q 519 -181 453 -181 l 565 -181 l 565 -278 l 519 -278 q 356 -114 356 -278 l 356 -75 l 414 -15 q 167 67 253 -15 q 82 303 82 149 z "},"ų":{"ha":833,"x_min":86,"x_max":769,"o":"m 86 764 l 226 764 l 226 283 q 271 160 226 203 q 399 117 315 117 l 607 325 l 607 764 l 747 764 l 747 0 l 731 0 l 731 -40 l 656 -114 q 722 -181 656 -181 l 769 -181 l 769 -278 l 722 -278 q 601 -236 643 -278 q 558 -114 558 -194 l 558 -75 l 633 0 l 607 0 l 607 163 l 438 -7 l 399 -7 q 166 67 246 -7 q 86 283 86 142 l 86 764 z "},"Ŵ":{"ha":833,"x_min":71,"x_max":763,"o":"m 71 169 l 71 972 l 200 972 l 200 214 l 275 139 l 354 217 l 354 633 l 479 633 l 479 217 l 558 139 l 633 214 l 633 972 l 763 972 l 763 169 l 586 -6 l 526 -6 l 417 104 l 307 -6 l 247 -6 l 71 169 m 215 1036 l 215 1111 l 388 1283 l 446 1283 l 618 1111 l 618 1036 l 543 1036 l 417 1163 l 290 1036 l 215 1036 z "},"ŵ":{"ha":833,"x_min":76,"x_max":757,"o":"m 76 167 l 76 764 l 206 764 l 206 211 l 278 139 l 354 215 l 354 556 l 479 556 l 479 215 l 556 139 l 629 211 l 629 764 l 757 764 l 757 167 l 585 -6 l 524 -6 l 417 101 l 310 -6 l 250 -6 l 76 167 m 215 838 l 215 913 l 388 1085 l 446 1085 l 618 913 l 618 838 l 543 838 l 417 964 l 290 838 l 215 838 z "},"Ŷ":{"ha":833,"x_min":86,"x_max":747,"o":"m 86 972 l 226 972 l 226 708 l 417 518 l 607 708 l 607 972 l 747 972 l 747 663 l 488 401 l 488 0 l 346 0 l 346 401 l 86 663 l 86 972 m 215 1036 l 215 1111 l 388 1283 l 446 1283 l 618 1111 l 618 1036 l 543 1036 l 417 1163 l 290 1036 l 215 1036 z "},"ŷ":{"ha":833,"x_min":86,"x_max":747,"o":"m 86 283 l 86 764 l 226 764 l 226 283 q 271 160 226 203 q 399 117 315 117 l 607 325 l 607 764 l 747 764 l 747 13 q 667 -203 747 -129 q 435 -278 588 -278 l 151 -278 l 151 -154 l 435 -154 q 563 -111 518 -154 q 607 13 607 -68 l 607 163 l 438 -7 l 399 -7 q 166 67 246 -7 q 86 283 86 142 m 215 913 l 388 1085 l 446 1085 l 618 913 l 618 838 l 543 838 l 417 964 l 290 838 l 215 838 l 215 913 z "},"Ÿ":{"ha":833,"x_min":86,"x_max":747,"o":"m 86 663 l 86 972 l 226 972 l 226 708 l 417 518 l 607 708 l 607 972 l 747 972 l 747 663 l 488 401 l 488 0 l 346 0 l 346 401 l 86 663 m 581 1078 q 490 1169 490 1078 q 581 1261 490 1261 q 649 1238 625 1261 q 672 1169 672 1214 q 581 1078 672 1078 m 185 1238 q 197 1249 185 1238 q 253 1261 208 1261 q 321 1238 297 1261 q 344 1169 344 1214 q 253 1078 344 1078 q 161 1169 161 1078 q 185 1238 161 1214 z "},"Ź":{"ha":833,"x_min":79,"x_max":754,"o":"m 79 253 l 610 782 l 610 853 l 79 853 l 79 972 l 754 972 l 754 735 l 224 204 l 224 119 l 754 119 l 754 0 l 79 0 l 79 253 m 335 1036 l 335 1115 l 503 1283 l 582 1283 l 582 1204 l 414 1036 l 335 1036 z "},"ź":{"ha":833,"x_min":79,"x_max":754,"o":"m 79 142 l 583 644 l 79 644 l 79 764 l 754 764 l 754 624 l 250 119 l 754 119 l 754 0 l 79 0 l 79 142 m 335 838 l 335 917 l 503 1085 l 582 1085 l 582 1006 l 414 838 l 335 838 z "},"Ż":{"ha":833,"x_min":79,"x_max":754,"o":"m 79 253 l 610 782 l 610 853 l 79 853 l 79 972 l 754 972 l 754 735 l 224 204 l 224 119 l 754 119 l 754 0 l 79 0 l 79 253 m 517 1189 q 417 1089 517 1089 q 317 1189 317 1089 q 417 1289 317 1289 q 490 1263 464 1289 q 517 1189 517 1236 z "},"ż":{"ha":833,"x_min":79,"x_max":754,"o":"m 79 142 l 583 644 l 79 644 l 79 764 l 754 764 l 754 624 l 250 119 l 754 119 l 754 0 l 79 0 l 79 142 m 517 990 q 417 890 517 890 q 317 990 317 890 q 417 1090 317 1090 q 490 1065 464 1090 q 517 990 517 1039 z "},"Ž":{"ha":833,"x_min":79,"x_max":754,"o":"m 79 253 l 610 782 l 610 853 l 79 853 l 79 972 l 754 972 l 754 735 l 224 204 l 224 119 l 754 119 l 754 0 l 79 0 l 79 253 m 388 1036 l 215 1208 l 215 1283 l 290 1283 l 417 1157 l 543 1283 l 618 1283 l 618 1208 l 446 1036 l 388 1036 z "},"ž":{"ha":833,"x_min":79,"x_max":754,"o":"m 79 142 l 583 644 l 79 644 l 79 764 l 754 764 l 754 624 l 250 119 l 754 119 l 754 0 l 79 0 l 79 142 m 388 838 l 215 1010 l 215 1085 l 290 1085 l 417 958 l 543 1085 l 618 1085 l 618 1010 l 446 838 l 388 838 z "},"Ə":{"ha":833,"x_min":82,"x_max":751,"o":"m 214 665 l 82 665 q 167 905 82 822 q 415 988 251 988 q 665 906 579 988 q 751 667 751 824 l 751 310 q 665 70 751 153 q 415 -12 579 -12 q 167 70 251 -12 q 82 310 82 153 l 82 529 l 611 529 l 611 667 q 560 815 611 764 q 411 865 508 865 q 265 814 315 865 q 214 665 214 763 m 611 411 l 214 411 l 214 310 q 265 161 214 213 q 411 110 315 110 q 560 161 508 110 q 611 310 611 213 l 611 411 z "},"ƒ":{"ha":833,"x_min":85,"x_max":749,"o":"m 85 -154 l 153 -154 q 272 -114 231 -154 q 314 3 314 -74 l 314 644 l 85 644 l 85 764 l 314 764 l 314 775 q 390 974 314 906 q 608 1042 465 1042 l 749 1042 l 749 918 l 608 918 q 456 775 456 918 l 456 764 l 749 764 l 749 644 l 456 644 l 456 3 q 378 -206 456 -135 q 153 -278 300 -278 l 85 -278 l 85 -154 z "},"ǝ":{"ha":833,"x_min":82,"x_max":751,"o":"m 82 435 l 611 435 l 611 471 q 556 609 611 561 q 399 657 501 657 q 222 526 222 657 l 82 526 q 163 715 82 650 q 400 779 244 779 q 661 700 571 779 q 751 471 751 621 l 751 289 q 666 63 751 140 q 418 -15 581 -15 q 168 65 254 -15 q 82 297 82 144 l 82 435 m 222 317 l 222 271 q 270 150 222 192 q 411 108 318 108 q 560 154 508 108 q 611 289 611 200 l 611 317 l 222 317 z "},"Ǻ":{"ha":833,"x_min":93,"x_max":740,"o":"m 93 693 l 363 963 q 258 1115 258 988 q 417 1272 258 1272 q 489 1261 461 1272 l 565 1338 l 644 1338 l 644 1258 l 565 1179 q 575 1115 575 1154 q 471 963 575 988 l 740 693 l 740 0 l 600 0 l 600 276 l 233 276 l 233 0 l 93 0 l 93 693 m 233 396 l 600 396 l 600 647 l 417 831 l 233 647 l 233 396 m 343 1115 q 417 1040 343 1040 q 490 1115 490 1040 q 417 1189 490 1189 q 343 1115 343 1189 z "},"ǻ":{"ha":833,"x_min":79,"x_max":736,"o":"m 356 454 l 596 454 l 596 518 q 551 621 596 585 q 419 657 506 657 q 294 624 338 657 q 251 531 251 592 l 111 531 q 190 715 111 651 q 421 779 269 779 q 656 713 575 779 q 736 518 736 646 l 736 0 l 596 0 l 596 122 l 467 -7 l 354 -7 q 150 52 221 -7 q 79 224 79 111 q 150 395 79 336 q 356 454 221 454 m 417 1136 q 489 1125 456 1136 l 565 1201 l 644 1201 l 644 1122 l 565 1043 q 575 978 575 1015 q 417 821 575 821 q 258 978 258 821 q 417 1136 258 1136 m 219 229 q 354 117 219 117 l 436 117 l 596 275 l 596 340 l 356 340 q 219 229 219 340 m 343 978 q 417 904 343 904 q 490 978 490 904 q 417 1053 490 1053 q 343 978 343 1053 z "},"Ǽ":{"ha":833,"x_min":93,"x_max":747,"o":"m 233 0 l 93 0 l 93 693 l 372 972 l 740 972 l 740 853 l 544 853 l 544 550 l 719 550 l 719 432 l 544 432 l 544 119 l 747 119 l 747 0 l 408 0 l 408 276 l 233 276 l 233 0 m 233 396 l 408 396 l 408 822 l 233 647 l 233 396 m 414 1036 l 335 1036 l 335 1115 l 503 1283 l 582 1283 l 582 1204 l 414 1036 z "},"ǽ":{"ha":833,"x_min":56,"x_max":771,"o":"m 56 226 q 118 393 56 336 q 300 450 181 450 l 357 450 l 357 640 q 249 610 286 640 q 211 524 211 581 l 79 524 q 151 702 79 640 q 357 764 222 764 l 482 764 q 697 687 624 764 q 771 464 771 610 l 771 331 l 482 331 l 482 124 q 639 240 639 124 l 771 240 q 697 62 771 124 q 482 0 624 0 l 300 0 q 118 58 181 0 q 56 226 56 115 m 300 124 l 357 124 l 357 336 l 300 336 q 183 229 183 336 q 300 124 183 124 m 335 917 l 503 1085 l 582 1085 l 582 1006 l 414 838 l 335 838 l 335 917 m 482 640 l 482 450 l 643 450 l 643 490 q 601 601 643 563 q 482 640 560 640 z "},"Ǿ":{"ha":833,"x_min":82,"x_max":751,"o":"m 666 66 q 623 25 666 66 q 417 -15 581 -15 q 167 66 253 -15 q 82 303 82 147 l 82 671 q 167 906 82 825 q 417 988 253 988 q 666 906 581 988 q 751 671 751 825 l 751 303 q 666 66 751 147 m 218 357 l 606 744 q 417 869 572 869 q 269 819 319 869 q 218 671 218 768 l 218 357 m 615 615 l 228 228 q 417 103 261 103 q 565 154 514 103 q 615 303 615 206 l 615 615 m 335 1036 l 335 1115 l 503 1283 l 582 1283 l 582 1204 l 414 1036 l 335 1036 z "},"ǿ":{"ha":833,"x_min":82,"x_max":751,"o":"m 666 66 q 623 25 666 66 q 417 -15 581 -15 q 167 66 253 -15 q 82 303 82 147 l 82 463 q 167 698 82 617 q 417 779 253 779 q 666 698 581 779 q 751 463 751 617 l 751 303 q 666 66 751 147 m 218 251 l 574 607 q 417 665 522 665 q 266 613 318 665 q 214 463 214 561 l 214 303 q 218 251 214 274 m 261 156 q 417 99 311 99 q 567 151 515 99 q 619 303 619 204 l 619 463 q 617 511 619 481 l 261 156 m 335 838 l 335 917 l 503 1085 l 582 1085 l 582 1006 l 414 838 l 335 838 z "},"Ș":{"ha":833,"x_min":82,"x_max":751,"o":"m 428 -15 q 171 67 260 -15 q 82 307 82 150 l 214 307 q 269 159 214 210 q 429 108 324 108 q 615 257 615 108 q 593 338 615 304 q 534 387 571 371 q 450 417 497 403 q 354 440 403 431 q 258 469 306 449 q 174 516 211 489 q 115 594 138 543 q 93 715 93 646 q 171 917 93 847 q 397 988 249 988 q 643 905 558 988 q 728 665 728 822 l 596 665 q 545 814 596 763 q 397 865 494 865 q 272 828 315 865 q 229 722 229 792 q 251 642 229 675 q 310 594 274 610 q 394 565 347 579 q 490 542 442 551 q 586 513 539 533 q 670 466 633 493 q 729 388 707 439 q 751 267 751 336 q 669 57 751 129 q 428 -15 586 -15 m 289 -339 l 289 -261 q 400 -200 372 -261 q 346 -126 346 -192 q 419 -53 346 -53 q 475 -72 456 -53 q 494 -125 494 -92 q 442 -284 494 -229 q 289 -339 389 -339 z "},"ș":{"ha":833,"x_min":82,"x_max":751,"o":"m 82 251 l 214 251 q 426 108 214 108 q 615 218 615 108 q 587 280 615 257 q 512 312 558 303 q 410 326 465 321 q 299 343 354 332 q 197 374 243 354 q 122 439 150 394 q 93 550 93 483 q 172 720 93 661 q 403 779 251 779 q 647 713 563 779 q 731 518 731 646 l 599 518 q 399 657 599 657 q 273 631 317 657 q 229 556 229 604 q 268 489 229 513 q 365 459 307 465 q 490 441 422 453 q 616 412 558 429 q 713 346 674 394 q 751 221 751 297 q 668 45 751 106 q 426 -15 585 -15 q 170 53 258 -15 q 82 251 82 121 m 286 -339 l 286 -261 q 399 -200 369 -261 q 343 -126 343 -192 q 417 -53 343 -53 q 472 -72 453 -53 q 492 -125 492 -92 q 439 -284 492 -229 q 286 -339 386 -339 z "},"Ț":{"ha":833,"x_min":53,"x_max":782,"o":"m 346 853 l 53 853 l 53 972 l 782 972 l 782 853 l 488 853 l 488 0 l 346 0 l 346 853 m 286 -261 q 399 -200 369 -261 q 343 -126 343 -192 q 417 -53 343 -53 q 472 -72 453 -53 q 492 -125 492 -92 q 439 -284 492 -229 q 286 -339 386 -339 l 286 -261 z "},"ț":{"ha":833,"x_min":86,"x_max":747,"o":"m 747 644 l 435 644 l 435 290 q 479 167 435 210 q 607 124 524 124 l 747 124 l 747 0 l 607 0 q 374 74 454 0 q 294 290 294 149 l 294 644 l 86 644 l 86 764 l 294 764 l 294 972 l 435 972 l 435 764 l 747 764 l 747 644 m 454 -200 q 399 -126 399 -192 q 472 -53 399 -53 q 528 -72 508 -53 q 547 -125 547 -92 q 494 -284 547 -229 q 342 -339 442 -339 l 342 -261 q 454 -200 425 -261 z "},"ȷ":{"ha":833,"x_min":104,"x_max":613,"o":"m 104 -154 l 300 -154 q 427 -112 383 -154 q 471 13 471 -69 l 471 644 l 124 644 l 124 764 l 613 764 l 613 13 q 533 -203 613 -129 q 300 -278 453 -278 l 104 -278 l 104 -154 z "},"ə":{"ha":833,"x_min":82,"x_max":751,"o":"m 82 435 l 611 435 l 611 471 q 556 609 611 561 q 399 657 501 657 q 222 526 222 657 l 82 526 q 163 715 82 650 q 400 779 244 779 q 661 700 571 779 q 751 471 751 621 l 751 289 q 666 63 751 140 q 418 -15 581 -15 q 168 65 254 -15 q 82 297 82 144 l 82 435 m 222 317 l 222 271 q 270 150 222 192 q 411 108 318 108 q 560 154 508 108 q 611 289 611 200 l 611 317 l 222 317 z "},"ˆ":{"ha":833,"x_min":215,"x_max":618,"o":"m 215 838 l 215 913 l 388 1085 l 446 1085 l 618 913 l 618 838 l 543 838 l 417 964 l 290 838 l 215 838 z "},"ˇ":{"ha":833,"x_min":215,"x_max":618,"o":"m 215 1085 l 290 1085 l 417 958 l 543 1085 l 618 1085 l 618 1010 l 446 838 l 388 838 l 215 1010 l 215 1085 z "},"˘":{"ha":833,"x_min":206,"x_max":628,"o":"m 206 1067 l 303 1067 q 417 953 303 953 q 531 1067 531 953 l 628 1067 q 574 910 628 964 q 417 856 519 856 q 260 910 314 856 q 206 1067 206 964 z "},"˙":{"ha":833,"x_min":317,"x_max":517,"o":"m 417 890 q 367 890 417 890 q 317 990 317 890 q 417 1090 317 1090 q 490 1065 464 1090 q 517 990 517 1039 q 417 890 517 890 z "},"˚":{"ha":833,"x_min":272,"x_max":561,"o":"m 417 1114 q 561 969 561 1114 q 524 863 561 900 q 417 825 488 825 q 310 863 347 825 q 272 969 272 900 q 310 1077 272 1040 q 417 1114 347 1114 m 417 1033 q 385 1033 417 1033 q 353 969 353 1033 q 417 906 353 906 q 481 969 481 906 q 417 1033 481 1033 z "},"˛":{"ha":833,"x_min":313,"x_max":522,"o":"m 313 -114 l 313 -75 l 386 0 l 483 0 l 483 -40 l 410 -114 q 475 -181 410 -181 l 522 -181 l 522 -278 l 475 -278 q 354 -236 396 -278 q 313 -114 313 -194 z "},"˜":{"ha":833,"x_min":158,"x_max":675,"o":"m 319 1061 q 393 1047 363 1061 q 437 1016 424 1033 q 469 985 450 999 q 514 971 489 971 q 578 1047 578 971 l 675 1047 q 633 918 675 963 q 514 874 592 874 q 441 888 471 874 q 398 919 411 901 q 365 950 385 936 q 319 964 344 964 q 256 889 256 964 l 158 889 q 200 1017 158 974 q 319 1061 242 1061 z "},"˝":{"ha":833,"x_min":154,"x_max":679,"o":"m 511 838 l 432 838 l 432 917 l 600 1085 l 679 1085 l 679 1006 l 511 838 m 233 838 l 154 838 l 154 917 l 322 1085 l 401 1085 l 401 1006 l 233 838 z "},"̦":{"ha":833,"x_min":286,"x_max":492,"o":"m 286 -339 l 286 -261 q 399 -200 369 -261 q 343 -126 343 -192 q 417 -53 343 -53 q 472 -72 453 -53 q 492 -125 492 -92 q 439 -284 492 -229 q 286 -339 386 -339 z "},"Ѐ":{"ha":833,"x_min":86,"x_max":747,"o":"m 747 0 l 86 0 l 86 972 l 740 972 l 740 853 l 226 853 l 226 550 l 675 550 l 675 432 l 226 432 l 226 119 l 747 119 l 747 0 m 258 1283 l 338 1283 l 506 1115 l 506 1036 l 426 1036 l 258 1204 l 258 1283 z "},"Ё":{"ha":833,"x_min":86,"x_max":747,"o":"m 747 0 l 86 0 l 86 972 l 740 972 l 740 853 l 226 853 l 226 550 l 675 550 l 675 432 l 226 432 l 226 119 l 747 119 l 747 0 m 588 1261 q 655 1238 631 1261 q 679 1169 679 1214 q 588 1078 679 1078 q 497 1169 497 1078 q 588 1261 497 1261 m 192 1238 q 205 1249 192 1238 q 260 1261 217 1261 q 327 1238 303 1261 q 351 1169 351 1214 q 260 1078 351 1078 q 168 1169 168 1078 q 192 1238 168 1214 z "},"Ђ":{"ha":833,"x_min":43,"x_max":765,"o":"m 43 972 l 604 972 l 604 853 l 363 853 l 363 585 l 453 585 q 685 510 606 585 q 765 294 765 436 l 765 13 q 685 -203 765 -129 q 453 -278 606 -278 l 342 -278 l 342 -154 l 453 -154 q 581 -111 536 -154 q 625 13 625 -68 l 625 294 q 581 419 625 376 q 453 463 536 463 l 363 463 l 363 0 l 221 0 l 221 853 l 43 853 l 43 972 z "},"Ѓ":{"ha":833,"x_min":110,"x_max":735,"o":"m 250 853 l 250 0 l 110 0 l 110 972 l 735 972 l 735 853 l 250 853 m 428 1036 l 349 1036 l 349 1115 l 517 1283 l 596 1283 l 596 1204 l 428 1036 z "},"Є":{"ha":833,"x_min":82,"x_max":751,"o":"m 667 67 q 624 26 667 67 q 418 -15 582 -15 q 168 67 254 -15 q 82 307 82 150 l 82 665 q 168 905 82 822 q 418 988 254 988 q 667 905 582 988 q 751 665 751 822 l 619 665 q 569 815 619 764 q 422 865 519 865 q 274 814 325 865 q 222 665 222 763 l 222 550 l 508 550 l 508 432 l 222 432 l 222 307 q 274 159 222 210 q 422 108 325 108 q 569 159 519 108 q 619 307 619 210 l 751 307 q 667 67 751 150 z "},"Ѕ":{"ha":833,"x_min":82,"x_max":751,"o":"m 82 307 l 214 307 q 269 159 214 210 q 429 108 324 108 q 615 257 615 108 q 593 338 615 304 q 534 387 571 371 q 450 417 497 403 q 354 440 403 431 q 258 469 306 449 q 174 516 211 489 q 115 594 138 543 q 93 715 93 646 q 171 917 93 847 q 397 988 249 988 q 643 905 558 988 q 728 665 728 822 l 596 665 q 545 814 596 763 q 397 865 494 865 q 272 828 315 865 q 229 722 229 792 q 251 642 229 675 q 310 594 274 610 q 394 565 347 579 q 490 542 442 551 q 586 513 539 533 q 670 466 633 493 q 729 388 707 439 q 751 267 751 336 q 669 57 751 129 q 428 -15 586 -15 q 171 67 260 -15 q 82 307 82 150 z "},"І":{"ha":833,"x_min":90,"x_max":743,"o":"m 743 0 l 90 0 l 90 119 l 346 119 l 346 853 l 90 853 l 90 972 l 743 972 l 743 853 l 488 853 l 488 119 l 743 119 l 743 0 z "},"Ї":{"ha":833,"x_min":90,"x_max":743,"o":"m 90 853 l 90 972 l 743 972 l 743 853 l 488 853 l 488 119 l 743 119 l 743 0 l 90 0 l 90 119 l 346 119 l 346 853 l 90 853 m 581 1078 q 490 1169 490 1078 q 581 1261 490 1261 q 649 1238 625 1261 q 672 1169 672 1214 q 581 1078 672 1078 m 161 1169 q 185 1238 161 1214 q 253 1261 208 1261 q 321 1238 297 1261 q 344 1169 344 1214 q 253 1078 344 1078 q 161 1169 161 1078 z "},"Ј":{"ha":833,"x_min":82,"x_max":751,"o":"m 82 303 l 222 303 q 272 158 222 208 q 417 108 322 108 q 562 158 513 108 q 611 303 611 208 l 611 853 l 182 853 l 182 972 l 751 972 l 751 303 q 666 66 751 147 q 417 -15 581 -15 q 167 66 253 -15 q 82 303 82 147 z "},"Љ":{"ha":833,"x_min":63,"x_max":771,"o":"m 63 783 l 251 972 l 489 972 l 489 564 l 554 564 q 715 510 660 564 q 771 354 771 457 l 771 210 q 714 54 771 108 q 550 0 657 0 l 364 0 l 364 853 l 317 853 l 192 728 l 192 0 l 63 0 l 63 783 m 489 444 l 489 119 l 550 119 q 643 210 643 119 l 643 354 q 550 444 643 444 l 489 444 z "},"Њ":{"ha":833,"x_min":63,"x_max":771,"o":"m 63 0 l 63 972 l 192 972 l 192 564 l 364 564 l 364 972 l 489 972 l 489 564 l 554 564 q 715 510 660 564 q 771 354 771 457 l 771 210 q 714 54 771 108 q 550 0 657 0 l 364 0 l 364 444 l 192 444 l 192 0 l 63 0 m 550 444 l 489 444 l 489 119 l 550 119 q 643 210 643 119 l 643 354 q 550 444 643 444 z "},"Ћ":{"ha":833,"x_min":43,"x_max":765,"o":"m 43 972 l 604 972 l 604 853 l 363 853 l 363 585 l 453 585 q 685 510 606 585 q 765 294 765 436 l 765 0 l 625 0 l 625 294 q 581 419 625 376 q 453 463 536 463 l 363 463 l 363 0 l 221 0 l 221 853 l 43 853 l 43 972 z "},"Ќ":{"ha":833,"x_min":100,"x_max":747,"o":"m 100 972 l 240 972 l 240 554 l 325 554 l 607 838 l 607 972 l 747 972 l 747 792 l 451 496 l 747 200 l 747 0 l 607 0 l 607 153 l 324 436 l 240 436 l 240 0 l 100 0 l 100 972 m 335 1036 l 335 1115 l 503 1283 l 582 1283 l 582 1204 l 414 1036 l 335 1036 z "},"Ѝ":{"ha":833,"x_min":86,"x_max":747,"o":"m 86 972 l 226 972 l 226 403 l 607 783 l 607 972 l 747 972 l 747 0 l 607 0 l 607 597 l 226 217 l 226 0 l 86 0 l 86 972 m 251 1283 l 331 1283 l 499 1115 l 499 1036 l 419 1036 l 251 1204 l 251 1283 z "},"Ў":{"ha":833,"x_min":86,"x_max":751,"o":"m 86 972 l 226 972 l 226 731 q 275 589 226 638 q 417 540 324 540 l 611 540 l 611 972 l 751 972 l 751 289 l 463 0 l 140 0 l 140 124 l 400 124 l 611 335 l 611 417 l 417 417 q 171 497 256 417 q 86 731 86 578 l 86 972 m 194 1228 l 310 1228 q 338 1140 310 1171 q 417 1108 365 1108 q 525 1228 525 1108 l 639 1228 q 582 1067 639 1122 q 417 1011 525 1011 q 251 1067 308 1011 q 194 1228 194 1122 z "},"Џ":{"ha":833,"x_min":86,"x_max":747,"o":"m 351 0 l 86 0 l 86 972 l 226 972 l 226 119 l 607 119 l 607 972 l 747 972 l 747 0 l 483 0 l 483 -208 l 351 -208 l 351 0 z "},"А":{"ha":833,"x_min":93,"x_max":740,"o":"m 93 0 l 93 693 l 378 978 l 456 978 l 740 693 l 740 0 l 600 0 l 600 276 l 233 276 l 233 0 l 93 0 m 233 396 l 600 396 l 600 647 l 417 831 l 233 647 l 233 396 z "},"Б":{"ha":833,"x_min":82,"x_max":751,"o":"m 444 0 l 82 0 l 82 972 l 688 972 l 688 853 l 222 853 l 222 581 l 444 581 q 673 506 594 581 q 751 290 751 431 q 673 74 751 149 q 444 0 594 0 m 444 457 l 222 457 l 222 124 l 444 124 q 568 166 525 124 q 611 290 611 208 q 568 414 611 371 q 444 457 525 457 z "},"В":{"ha":833,"x_min":82,"x_max":751,"o":"m 444 0 l 82 0 l 82 972 l 422 972 q 634 906 561 972 q 707 713 707 840 q 600 504 707 561 q 751 269 751 451 q 673 69 751 138 q 444 0 594 0 m 222 124 l 444 124 q 569 163 526 124 q 611 279 611 203 q 568 394 611 354 q 444 435 525 435 l 222 435 l 222 124 m 422 849 l 222 849 l 222 557 l 422 557 q 567 703 567 557 q 422 849 567 849 z "},"Г":{"ha":833,"x_min":110,"x_max":735,"o":"m 250 853 l 250 0 l 110 0 l 110 972 l 735 972 l 735 853 l 250 853 z "},"Д":{"ha":833,"x_min":39,"x_max":794,"o":"m 39 -208 l 39 119 l 119 119 l 119 708 l 383 972 l 714 972 l 714 119 l 794 119 l 794 -208 l 665 -208 l 665 0 l 168 0 l 168 -208 l 39 -208 m 251 119 l 574 119 l 574 853 l 450 853 l 251 654 l 251 119 z "},"Е":{"ha":833,"x_min":86,"x_max":747,"o":"m 747 0 l 86 0 l 86 972 l 740 972 l 740 853 l 226 853 l 226 550 l 675 550 l 675 432 l 226 432 l 226 119 l 747 119 l 747 0 z "},"Ж":{"ha":833,"x_min":63,"x_max":771,"o":"m 192 0 l 63 0 l 63 361 l 193 490 l 63 621 l 63 972 l 192 972 l 192 665 l 307 550 l 354 550 l 354 972 l 479 972 l 479 550 l 526 550 l 642 665 l 642 972 l 771 972 l 771 621 l 640 490 l 771 361 l 771 0 l 642 0 l 642 315 l 526 431 l 479 431 l 479 0 l 354 0 l 354 431 l 307 431 l 192 315 l 192 0 z "},"З":{"ha":833,"x_min":82,"x_max":751,"o":"m 82 307 l 214 307 q 268 159 214 210 q 424 108 322 108 q 611 274 611 108 q 568 393 611 351 q 444 435 525 435 l 311 435 l 311 557 l 439 557 q 555 596 515 557 q 594 708 594 635 q 421 865 594 865 q 272 814 324 865 q 221 665 221 763 l 89 665 q 174 906 89 824 q 425 988 260 988 q 655 919 575 988 q 735 722 735 851 q 603 504 735 558 q 751 261 751 450 q 669 56 751 126 q 429 -15 586 -15 q 171 67 260 -15 q 82 307 82 150 z "},"И":{"ha":833,"x_min":86,"x_max":747,"o":"m 86 972 l 226 972 l 226 403 l 607 783 l 607 972 l 747 972 l 747 0 l 607 0 l 607 597 l 226 217 l 226 0 l 86 0 l 86 972 z "},"Й":{"ha":833,"x_min":86,"x_max":747,"o":"m 86 972 l 226 972 l 226 403 l 607 783 l 607 972 l 747 972 l 747 0 l 607 0 l 607 597 l 226 217 l 226 0 l 86 0 l 86 972 m 194 1228 l 310 1228 q 338 1140 310 1171 q 417 1108 365 1108 q 525 1228 525 1108 l 639 1228 q 582 1067 639 1122 q 417 1011 525 1011 q 251 1067 308 1011 q 194 1228 194 1122 z "},"К":{"ha":833,"x_min":100,"x_max":747,"o":"m 100 0 l 100 972 l 240 972 l 240 554 l 325 554 l 607 838 l 607 972 l 747 972 l 747 792 l 451 496 l 747 200 l 747 0 l 607 0 l 607 153 l 324 436 l 240 436 l 240 0 l 100 0 z "},"Л":{"ha":833,"x_min":93,"x_max":740,"o":"m 93 660 l 406 972 l 740 972 l 740 0 l 600 0 l 600 853 l 474 853 l 225 606 l 225 0 l 93 0 l 93 660 z "},"М":{"ha":833,"x_min":72,"x_max":761,"o":"m 213 0 l 72 0 l 72 972 l 213 972 l 213 821 l 417 617 l 621 821 l 621 972 l 761 972 l 761 0 l 621 0 l 621 633 l 439 451 l 396 451 l 213 633 l 213 0 z "},"Н":{"ha":833,"x_min":86,"x_max":747,"o":"m 86 972 l 226 972 l 226 554 l 607 554 l 607 972 l 747 972 l 747 0 l 607 0 l 607 436 l 226 436 l 226 0 l 86 0 l 86 972 z "},"О":{"ha":833,"x_min":82,"x_max":751,"o":"m 82 303 l 82 671 q 167 906 82 825 q 417 988 253 988 q 666 906 581 988 q 751 671 751 825 l 751 303 q 666 66 751 147 q 417 -15 581 -15 q 167 66 253 -15 q 82 303 82 147 m 222 671 l 222 303 q 272 158 222 208 q 417 108 322 108 q 562 158 513 108 q 611 303 611 208 l 611 671 q 562 815 611 765 q 417 865 513 865 q 272 815 322 865 q 222 671 222 765 z "},"П":{"ha":833,"x_min":86,"x_max":747,"o":"m 86 972 l 747 972 l 747 0 l 607 0 l 607 853 l 226 853 l 226 0 l 86 0 l 86 972 z "},"Р":{"ha":833,"x_min":82,"x_max":751,"o":"m 222 0 l 82 0 l 82 972 l 444 972 q 673 898 594 972 q 751 682 751 824 q 673 467 751 542 q 444 393 594 393 l 222 393 l 222 0 m 222 849 l 222 515 l 444 515 q 568 558 525 515 q 611 682 611 601 q 568 806 611 764 q 444 849 525 849 l 222 849 z "},"С":{"ha":833,"x_min":82,"x_max":751,"o":"m 82 665 q 168 905 82 822 q 418 988 254 988 q 667 905 582 988 q 751 665 751 822 l 619 665 q 569 815 619 764 q 422 865 519 865 q 274 814 325 865 q 222 665 222 763 l 222 307 q 274 159 222 210 q 422 108 325 108 q 569 159 519 108 q 619 307 619 210 l 751 307 q 667 67 751 150 q 418 -15 582 -15 q 168 67 254 -15 q 82 307 82 150 l 82 665 z "},"Т":{"ha":833,"x_min":53,"x_max":782,"o":"m 346 853 l 53 853 l 53 972 l 782 972 l 782 853 l 488 853 l 488 0 l 346 0 l 346 853 z "},"У":{"ha":833,"x_min":86,"x_max":751,"o":"m 86 972 l 226 972 l 226 731 q 275 589 226 638 q 417 540 324 540 l 611 540 l 611 972 l 751 972 l 751 289 l 463 0 l 140 0 l 140 124 l 400 124 l 611 335 l 611 417 l 417 417 q 171 497 256 417 q 86 731 86 578 l 86 972 z "},"Ф":{"ha":833,"x_min":63,"x_max":771,"o":"m 63 399 l 63 588 q 138 801 63 728 q 354 875 213 875 l 354 988 l 479 988 l 479 875 q 697 801 622 875 q 771 588 771 728 l 771 399 q 697 185 771 258 q 479 111 622 111 l 479 -15 l 354 -15 l 354 111 q 138 185 213 111 q 63 399 63 258 m 643 400 l 643 586 q 479 756 643 756 l 479 231 q 601 274 560 231 q 643 400 643 318 m 192 586 l 192 400 q 354 231 192 231 l 354 756 q 192 586 192 756 z "},"Х":{"ha":833,"x_min":86,"x_max":747,"o":"m 86 0 l 86 263 l 321 497 l 86 732 l 86 972 l 226 972 l 226 778 l 417 588 l 607 778 l 607 972 l 747 972 l 747 732 l 514 497 l 747 263 l 747 0 l 607 0 l 607 217 l 417 407 l 226 217 l 226 0 l 86 0 z "},"Ц":{"ha":833,"x_min":86,"x_max":794,"o":"m 665 0 l 86 0 l 86 972 l 226 972 l 226 119 l 574 119 l 574 972 l 714 972 l 714 119 l 794 119 l 794 -208 l 665 -208 l 665 0 z "},"Ч":{"ha":833,"x_min":86,"x_max":733,"o":"m 86 972 l 226 972 l 226 678 q 271 554 226 597 q 399 511 315 511 l 593 511 l 593 972 l 733 972 l 733 0 l 593 0 l 593 388 l 399 388 q 166 462 246 388 q 86 678 86 536 l 86 972 z "},"Ш":{"ha":833,"x_min":63,"x_max":771,"o":"m 63 972 l 192 972 l 192 119 l 354 119 l 354 972 l 479 972 l 479 119 l 643 119 l 642 972 l 771 972 l 771 0 l 63 0 l 63 972 z "},"Щ":{"ha":833,"x_min":63,"x_max":794,"o":"m 63 0 l 63 972 l 192 972 l 192 119 l 333 119 l 333 972 l 458 972 l 458 119 l 601 119 l 601 972 l 729 972 l 729 119 l 794 119 l 794 -208 l 665 -208 l 665 0 l 63 0 z "},"Ъ":{"ha":833,"x_min":33,"x_max":765,"o":"m 33 853 l 33 972 l 389 972 l 389 581 l 458 581 q 687 506 608 581 q 765 290 765 431 q 687 74 765 149 q 458 0 608 0 l 249 0 l 249 853 l 33 853 m 458 457 l 389 457 l 389 124 l 458 124 q 582 166 539 124 q 625 290 625 208 q 582 414 625 371 q 458 457 539 457 z "},"Ы":{"ha":833,"x_min":64,"x_max":769,"o":"m 64 972 l 196 972 l 196 581 l 260 581 q 468 513 396 581 q 540 317 540 444 l 540 264 q 468 68 540 136 q 260 0 396 0 l 64 0 l 64 972 m 638 0 l 638 972 l 769 972 l 769 0 l 638 0 m 196 457 l 196 124 l 260 124 q 400 264 400 124 l 400 317 q 364 421 400 385 q 260 457 328 457 l 196 457 z "},"Ь":{"ha":833,"x_min":82,"x_max":751,"o":"m 82 0 l 82 972 l 222 972 l 222 581 l 444 581 q 673 506 594 581 q 751 290 751 431 q 673 74 751 149 q 444 0 594 0 l 82 0 m 222 124 l 444 124 q 568 166 525 124 q 611 290 611 208 q 568 414 611 371 q 444 457 525 457 l 222 457 l 222 124 z "},"Э":{"ha":833,"x_min":82,"x_max":751,"o":"m 665 67 q 622 26 665 67 q 415 -15 579 -15 q 167 67 251 -15 q 82 307 82 150 l 214 307 q 265 159 214 210 q 411 108 315 108 q 560 159 508 108 q 611 307 611 210 l 611 432 l 344 432 l 344 550 l 611 550 l 611 665 q 560 814 611 763 q 411 865 508 865 q 265 814 315 865 q 214 665 214 763 l 82 665 q 167 905 82 822 q 415 988 251 988 q 665 905 579 988 q 751 665 751 822 l 751 307 q 665 67 751 150 z "},"Ю":{"ha":833,"x_min":63,"x_max":771,"o":"m 63 972 l 192 972 l 192 557 l 319 557 l 319 771 q 378 932 319 876 q 546 988 436 988 q 713 932 656 988 q 771 771 771 876 l 771 203 q 713 40 771 96 q 546 -15 656 -15 q 378 40 436 -15 q 319 203 319 96 l 319 439 l 192 439 l 192 0 l 63 0 l 63 972 m 643 771 q 546 869 643 869 q 449 771 449 869 l 449 203 q 546 103 449 103 q 643 203 643 103 l 643 771 z "},"Я":{"ha":833,"x_min":82,"x_max":751,"o":"m 82 686 q 159 899 82 825 q 381 972 236 972 l 751 972 l 751 0 l 611 0 l 611 401 l 508 401 l 233 126 l 233 0 l 93 0 l 93 174 l 324 404 q 144 490 206 418 q 82 686 82 563 m 222 686 q 263 567 222 608 q 381 525 304 525 l 611 525 l 611 849 l 381 849 q 263 807 303 849 q 222 686 222 765 z "},"а":{"ha":833,"x_min":79,"x_max":736,"o":"m 356 454 l 596 454 l 596 518 q 551 621 596 585 q 419 657 506 657 q 294 624 338 657 q 251 531 251 592 l 111 531 q 190 715 111 651 q 421 779 269 779 q 656 713 575 779 q 736 518 736 646 l 736 0 l 596 0 l 596 122 l 467 -7 l 354 -7 q 150 52 221 -7 q 79 224 79 111 q 150 395 79 336 q 356 454 221 454 m 219 229 q 354 117 219 117 l 436 117 l 596 275 l 596 340 l 356 340 q 219 229 219 340 z "},"б":{"ha":833,"x_min":86,"x_max":751,"o":"m 394 1042 l 721 1042 l 721 910 l 394 910 q 214 729 214 910 l 214 586 l 392 764 l 431 764 q 669 686 586 764 q 751 460 751 608 l 751 303 q 666 66 751 147 q 417 -15 581 -15 q 171 65 256 -15 q 86 297 86 144 l 86 729 q 165 962 86 882 q 394 1042 243 1042 m 431 640 l 226 436 l 226 297 q 275 156 226 204 q 417 108 324 108 q 562 158 513 108 q 611 303 611 208 l 611 460 q 431 640 611 640 z "},"в":{"ha":833,"x_min":96,"x_max":740,"o":"m 481 0 l 96 0 l 96 764 l 456 764 q 637 710 575 764 q 699 556 699 657 q 631 399 699 449 q 740 215 740 353 q 674 55 740 110 q 481 0 607 0 m 236 329 l 236 124 l 481 124 q 600 226 600 124 q 481 329 600 329 l 236 329 m 236 640 l 236 449 l 453 449 q 558 546 558 449 q 453 640 558 640 l 236 640 z "},"г":{"ha":833,"x_min":132,"x_max":718,"o":"m 272 644 l 272 0 l 132 0 l 132 764 l 718 764 l 718 644 l 272 644 z "},"д":{"ha":833,"x_min":39,"x_max":794,"o":"m 39 -208 l 39 119 l 119 119 l 119 500 l 383 764 l 714 764 l 714 119 l 794 119 l 794 -208 l 665 -208 l 665 0 l 168 0 l 168 -208 l 39 -208 m 251 119 l 574 119 l 574 644 l 450 644 l 251 446 l 251 119 z "},"е":{"ha":833,"x_min":82,"x_max":751,"o":"m 82 293 l 82 476 q 167 701 82 624 q 415 779 253 779 q 666 699 581 779 q 751 467 751 619 l 751 329 l 222 329 l 222 293 q 277 156 222 203 q 436 108 332 108 q 566 142 521 108 q 611 238 611 175 l 751 238 q 670 49 751 114 q 433 -15 589 -15 q 172 64 263 -15 q 82 293 82 143 m 222 449 l 611 449 l 611 493 q 563 615 611 572 q 422 657 514 657 q 274 610 325 657 q 222 476 222 564 l 222 449 z "},"ж":{"ha":833,"x_min":63,"x_max":771,"o":"m 192 0 l 63 0 l 63 257 l 193 386 l 63 517 l 63 764 l 192 764 l 192 561 l 307 446 l 354 446 l 354 764 l 479 764 l 479 446 l 526 446 l 642 561 l 642 764 l 771 764 l 771 517 l 640 386 l 771 257 l 771 0 l 642 0 l 642 211 l 526 326 l 479 326 l 479 0 l 354 0 l 354 326 l 307 326 l 192 211 l 192 0 z "},"з":{"ha":833,"x_min":82,"x_max":751,"o":"m 82 238 l 222 238 q 418 108 222 108 q 611 228 611 108 q 580 302 611 275 q 492 329 549 329 l 329 329 l 329 449 l 489 449 q 567 474 539 449 q 594 544 594 499 q 417 657 594 657 q 226 526 226 657 l 86 526 q 171 715 86 650 q 419 779 256 779 q 653 722 571 779 q 735 557 735 665 q 653 390 735 439 q 751 215 751 344 q 665 43 751 101 q 419 -15 579 -15 q 167 49 253 -15 q 82 238 82 114 z "},"и":{"ha":833,"x_min":86,"x_max":747,"o":"m 86 764 l 226 764 l 226 299 l 607 679 l 607 764 l 747 764 l 747 0 l 607 0 l 607 493 l 226 113 l 226 0 l 86 0 l 86 764 z "},"й":{"ha":833,"x_min":86,"x_max":747,"o":"m 86 764 l 226 764 l 226 299 l 607 679 l 607 764 l 747 764 l 747 0 l 607 0 l 607 493 l 226 113 l 226 0 l 86 0 l 86 764 m 194 1050 l 310 1050 q 417 929 310 929 q 525 1050 525 929 l 639 1050 q 582 888 639 944 q 417 832 525 832 q 251 888 308 832 q 194 1050 194 944 z "},"к":{"ha":833,"x_min":93,"x_max":747,"o":"m 93 764 l 233 764 l 233 446 l 371 446 l 607 682 l 607 764 l 747 764 l 747 636 l 499 386 l 747 136 l 747 0 l 607 0 l 607 90 l 371 326 l 233 326 l 233 0 l 93 0 l 93 764 z "},"л":{"ha":833,"x_min":93,"x_max":733,"o":"m 93 474 l 383 764 l 733 764 l 733 0 l 593 0 l 593 644 l 450 644 l 225 419 l 225 0 l 93 0 l 93 474 z "},"м":{"ha":833,"x_min":72,"x_max":761,"o":"m 213 0 l 72 0 l 72 764 l 213 764 l 213 647 l 417 443 l 621 647 l 621 764 l 761 764 l 761 0 l 621 0 l 621 460 l 439 278 l 396 278 l 213 460 l 213 0 z "},"н":{"ha":833,"x_min":86,"x_max":747,"o":"m 86 764 l 226 764 l 226 446 l 607 446 l 607 764 l 747 764 l 747 0 l 607 0 l 607 326 l 226 326 l 226 0 l 86 0 l 86 764 z "},"о":{"ha":833,"x_min":82,"x_max":751,"o":"m 82 303 l 82 463 q 167 698 82 617 q 417 779 253 779 q 666 698 581 779 q 751 463 751 617 l 751 303 q 666 66 751 147 q 417 -15 581 -15 q 167 66 253 -15 q 82 303 82 147 m 222 463 l 222 303 q 272 158 222 208 q 417 108 322 108 q 562 158 513 108 q 611 303 611 208 l 611 463 q 562 607 611 557 q 417 657 513 657 q 272 607 322 657 q 222 463 222 557 z "},"п":{"ha":833,"x_min":86,"x_max":747,"o":"m 86 764 l 747 764 l 747 0 l 607 0 l 607 644 l 226 644 l 226 0 l 86 0 l 86 764 z "},"р":{"ha":833,"x_min":86,"x_max":751,"o":"m 86 -278 l 86 764 l 226 764 l 226 606 l 392 771 l 431 771 q 669 693 586 771 q 751 467 751 615 l 751 297 q 669 71 751 149 q 431 -7 586 -7 l 392 -7 l 226 158 l 226 -278 l 86 -278 m 431 647 l 226 443 l 226 321 l 431 117 q 611 297 611 117 l 611 467 q 431 647 611 647 z "},"с":{"ha":833,"x_min":82,"x_max":751,"o":"m 82 313 l 82 451 q 170 695 82 611 q 425 779 258 779 q 668 703 585 779 q 751 481 751 626 l 611 481 q 425 657 611 657 q 274 604 326 657 q 222 451 222 551 l 222 313 q 274 161 222 214 q 425 108 326 108 q 611 283 611 108 l 751 283 q 668 62 751 139 q 425 -15 585 -15 q 170 69 258 -15 q 82 313 82 153 z "},"т":{"ha":833,"x_min":71,"x_max":763,"o":"m 71 644 l 71 764 l 763 764 l 763 644 l 488 644 l 488 0 l 346 0 l 346 644 l 71 644 z "},"у":{"ha":833,"x_min":86,"x_max":747,"o":"m 86 764 l 226 764 l 226 283 q 271 160 226 203 q 399 117 315 117 l 607 325 l 607 764 l 747 764 l 747 13 q 667 -203 747 -129 q 435 -278 588 -278 l 151 -278 l 151 -154 l 435 -154 q 563 -111 518 -154 q 607 13 607 -68 l 607 163 l 438 -7 l 399 -7 q 166 67 246 -7 q 86 283 86 142 l 86 764 z "},"ф":{"ha":833,"x_min":63,"x_max":771,"o":"m 63 288 l 63 476 q 138 690 63 617 q 354 764 213 764 l 354 1042 l 479 1042 l 479 764 q 697 690 622 764 q 771 476 771 617 l 771 288 q 697 74 771 147 q 479 0 622 0 l 479 -278 l 354 -278 l 354 0 q 138 74 213 0 q 63 288 63 147 m 643 289 l 643 475 q 479 644 643 644 l 479 119 q 601 163 560 119 q 643 289 643 207 m 192 475 l 192 289 q 354 119 192 119 l 354 644 q 192 475 192 644 z "},"х":{"ha":833,"x_min":86,"x_max":747,"o":"m 86 0 l 86 151 l 321 386 l 86 621 l 86 764 l 226 764 l 226 667 l 417 476 l 607 667 l 607 764 l 747 764 l 747 621 l 514 386 l 747 151 l 747 0 l 607 0 l 607 106 l 417 296 l 226 106 l 226 0 l 86 0 z "},"ц":{"ha":833,"x_min":86,"x_max":794,"o":"m 665 0 l 86 0 l 86 764 l 226 764 l 226 119 l 574 119 l 574 764 l 714 764 l 714 119 l 794 119 l 794 -208 l 665 -208 l 665 0 z "},"ч":{"ha":833,"x_min":86,"x_max":733,"o":"m 86 764 l 226 764 l 226 574 q 271 450 226 493 q 399 407 315 407 l 593 407 l 593 764 l 733 764 l 733 0 l 593 0 l 593 283 l 399 283 q 166 358 246 283 q 86 574 86 432 l 86 764 z "},"ш":{"ha":833,"x_min":63,"x_max":771,"o":"m 63 764 l 192 764 l 192 119 l 354 119 l 354 764 l 479 764 l 479 119 l 643 119 l 642 764 l 771 764 l 771 0 l 63 0 l 63 764 z "},"щ":{"ha":833,"x_min":63,"x_max":794,"o":"m 63 0 l 63 764 l 192 764 l 192 119 l 333 119 l 333 764 l 458 764 l 458 119 l 601 119 l 601 764 l 729 764 l 729 119 l 794 119 l 794 -208 l 665 -208 l 665 0 l 63 0 z "},"ъ":{"ha":833,"x_min":43,"x_max":765,"o":"m 43 764 l 389 764 l 389 483 l 500 483 q 697 422 629 483 q 765 242 765 360 q 697 62 765 124 q 500 0 629 0 l 249 0 l 249 644 l 43 644 l 43 764 m 500 360 l 389 360 l 389 124 l 500 124 q 625 242 625 124 q 500 360 625 360 z "},"ы":{"ha":833,"x_min":64,"x_max":769,"o":"m 64 764 l 204 764 l 204 483 l 281 483 q 478 424 410 483 q 546 254 546 365 l 546 228 q 478 58 546 117 q 281 0 410 0 l 64 0 l 64 764 m 769 0 l 629 0 l 629 764 l 769 764 l 769 0 m 204 360 l 204 124 l 281 124 q 406 235 406 124 l 406 249 q 281 360 406 360 l 204 360 z "},"ь":{"ha":833,"x_min":96,"x_max":738,"o":"m 96 0 l 96 764 l 236 764 l 236 483 l 482 483 q 672 422 607 483 q 738 242 738 360 q 671 62 738 124 q 478 0 604 0 l 96 0 m 236 124 l 478 124 q 597 242 597 124 q 478 360 597 360 l 236 360 l 236 124 z "},"э":{"ha":833,"x_min":82,"x_max":751,"o":"m 82 283 l 222 283 q 408 108 222 108 q 559 161 507 108 q 611 313 611 214 l 611 328 l 361 328 l 361 446 l 611 446 l 611 451 q 559 604 611 551 q 408 657 507 657 q 222 481 222 657 l 82 481 q 165 703 82 626 q 408 779 249 779 q 664 695 576 779 q 751 451 751 611 l 751 313 q 664 69 751 153 q 408 -15 576 -15 q 165 62 249 -15 q 82 283 82 139 z "},"ю":{"ha":833,"x_min":63,"x_max":771,"o":"m 63 764 l 192 764 l 192 446 l 319 446 l 319 563 q 378 724 319 668 q 546 779 436 779 q 713 724 656 779 q 771 563 771 668 l 771 203 q 713 40 771 96 q 546 -15 656 -15 q 378 40 436 -15 q 319 203 319 96 l 319 328 l 192 328 l 192 0 l 63 0 l 63 764 m 643 563 q 546 661 643 661 q 449 563 449 661 l 449 203 q 546 103 449 103 q 643 203 643 103 l 643 563 z "},"я":{"ha":833,"x_min":86,"x_max":740,"o":"m 86 529 q 153 704 86 644 q 346 764 219 764 l 740 764 l 740 0 l 600 0 l 600 296 l 436 296 l 233 92 l 233 0 l 93 0 l 93 138 l 258 303 q 86 529 86 342 m 346 640 q 226 529 226 640 q 346 418 226 418 l 600 418 l 600 640 l 346 640 z "},"ѐ":{"ha":833,"x_min":82,"x_max":751,"o":"m 82 293 l 82 476 q 167 701 82 624 q 415 779 253 779 q 666 699 581 779 q 751 467 751 619 l 751 329 l 222 329 l 222 293 q 277 156 222 203 q 436 108 332 108 q 566 142 521 108 q 611 238 611 175 l 751 238 q 670 49 751 114 q 433 -15 589 -15 q 172 64 263 -15 q 82 293 82 143 m 222 449 l 611 449 l 611 493 q 563 615 611 572 q 422 657 514 657 q 274 610 325 657 q 222 476 222 564 l 222 449 m 251 1085 l 331 1085 l 499 917 l 499 838 l 419 838 l 251 1006 l 251 1085 z "},"ё":{"ha":833,"x_min":82,"x_max":751,"o":"m 82 293 l 82 476 q 167 701 82 624 q 415 779 253 779 q 666 699 581 779 q 751 467 751 619 l 751 329 l 222 329 l 222 293 q 277 156 222 203 q 436 108 332 108 q 566 142 521 108 q 611 238 611 175 l 751 238 q 670 49 751 114 q 433 -15 589 -15 q 172 64 263 -15 q 82 293 82 143 m 222 449 l 611 449 l 611 493 q 563 615 611 572 q 422 657 514 657 q 274 610 325 657 q 222 476 222 564 l 222 449 m 581 1063 q 672 971 672 1063 q 581 881 672 881 q 490 971 490 881 q 581 1063 490 1063 m 161 971 q 253 1063 161 1063 q 344 971 344 1063 q 253 881 344 881 q 161 971 161 881 z "},"ђ":{"ha":833,"x_min":0,"x_max":747,"o":"m 0 943 l 100 943 l 100 1042 l 240 1042 l 240 943 l 433 943 l 433 846 l 240 846 l 240 619 l 392 771 l 431 771 q 666 695 585 771 q 747 476 747 619 l 747 13 q 667 -203 747 -129 q 435 -278 588 -278 l 324 -278 l 324 -154 l 435 -154 q 563 -111 518 -154 q 607 13 607 -68 l 607 476 q 562 603 607 560 q 431 647 517 647 l 240 457 l 240 0 l 100 0 l 100 846 l 0 846 l 0 943 z "},"ѓ":{"ha":833,"x_min":132,"x_max":718,"o":"m 272 644 l 272 0 l 132 0 l 132 764 l 718 764 l 718 644 l 272 644 m 435 838 l 356 838 l 356 917 l 524 1085 l 603 1085 l 603 1006 l 435 838 z "},"є":{"ha":833,"x_min":82,"x_max":751,"o":"m 425 779 q 668 703 585 779 q 751 481 751 626 l 611 481 q 425 657 611 657 q 274 604 326 657 q 222 451 222 551 l 222 446 l 497 446 l 497 328 l 222 328 l 222 313 q 274 161 222 214 q 425 108 326 108 q 611 283 611 108 l 751 283 q 668 62 751 139 q 425 -15 585 -15 q 170 69 258 -15 q 82 313 82 153 l 82 451 q 170 695 82 611 q 425 779 258 779 z "},"ѕ":{"ha":833,"x_min":82,"x_max":751,"o":"m 82 251 l 214 251 q 426 108 214 108 q 615 218 615 108 q 587 280 615 257 q 512 312 558 303 q 410 326 465 321 q 299 343 354 332 q 197 374 243 354 q 122 439 150 394 q 93 550 93 483 q 172 720 93 661 q 403 779 251 779 q 647 713 563 779 q 731 518 731 646 l 599 518 q 399 657 599 657 q 273 631 317 657 q 229 556 229 604 q 268 489 229 513 q 365 459 307 465 q 490 441 422 453 q 616 412 558 429 q 713 346 674 394 q 751 221 751 297 q 668 45 751 106 q 426 -15 585 -15 q 170 53 258 -15 q 82 251 82 121 z "},"і":{"ha":833,"x_min":90,"x_max":743,"o":"m 90 644 l 90 764 l 494 764 l 494 119 l 743 119 l 743 0 l 90 0 l 90 119 l 353 119 l 353 644 l 90 644 m 499 990 q 399 890 499 890 q 299 990 299 890 q 399 1090 299 1090 q 473 1065 447 1090 q 499 990 499 1039 z "},"ї":{"ha":833,"x_min":90,"x_max":743,"o":"m 90 644 l 90 764 l 494 764 l 494 119 l 743 119 l 743 0 l 90 0 l 90 119 l 353 119 l 353 644 l 90 644 m 560 900 q 469 990 469 900 q 560 1082 469 1082 q 627 1058 603 1082 q 651 990 651 1033 q 560 900 651 900 m 140 990 q 165 1058 140 1033 q 232 1082 189 1082 q 299 1058 275 1082 q 324 990 324 1033 q 232 900 324 900 q 140 990 140 900 z "},"ј":{"ha":833,"x_min":104,"x_max":617,"o":"m 104 -278 l 104 -154 l 300 -154 q 427 -112 383 -154 q 471 13 471 -69 l 471 644 l 124 644 l 124 764 l 613 764 l 613 13 q 533 -203 613 -129 q 300 -278 453 -278 l 104 -278 m 617 990 q 517 890 617 890 q 417 990 417 890 q 517 1090 417 1090 q 590 1065 564 1090 q 617 990 617 1039 z "},"љ":{"ha":833,"x_min":63,"x_max":771,"o":"m 63 575 l 251 764 l 489 764 l 489 460 l 554 460 q 715 406 660 460 q 771 250 771 353 l 771 210 q 714 54 771 108 q 550 0 657 0 l 364 0 l 364 644 l 317 644 l 192 519 l 192 0 l 63 0 l 63 575 m 489 340 l 489 119 l 550 119 q 643 210 643 119 l 643 250 q 550 340 643 340 l 489 340 z "},"њ":{"ha":833,"x_min":63,"x_max":771,"o":"m 63 0 l 63 764 l 192 764 l 192 460 l 364 460 l 364 764 l 489 764 l 489 460 l 554 460 q 715 406 660 460 q 771 250 771 353 l 771 210 q 714 54 771 108 q 550 0 657 0 l 364 0 l 364 340 l 192 340 l 192 0 l 63 0 m 550 340 l 489 340 l 489 119 l 550 119 q 643 210 643 119 l 643 250 q 550 340 643 340 z "},"ћ":{"ha":833,"x_min":0,"x_max":747,"o":"m 0 943 l 100 943 l 100 1042 l 240 1042 l 240 943 l 433 943 l 433 846 l 240 846 l 240 619 l 392 771 l 431 771 q 666 695 585 771 q 747 476 747 619 l 747 0 l 607 0 l 607 476 q 562 603 607 560 q 431 647 517 647 l 240 457 l 240 0 l 100 0 l 100 846 l 0 846 l 0 943 z "},"ќ":{"ha":833,"x_min":93,"x_max":747,"o":"m 93 764 l 233 764 l 233 446 l 371 446 l 607 682 l 607 764 l 747 764 l 747 636 l 499 386 l 747 136 l 747 0 l 607 0 l 607 90 l 371 326 l 233 326 l 233 0 l 93 0 l 93 764 m 335 917 l 503 1085 l 582 1085 l 582 1006 l 414 838 l 335 838 l 335 917 z "},"ѝ":{"ha":833,"x_min":86,"x_max":747,"o":"m 86 764 l 226 764 l 226 299 l 607 679 l 607 764 l 747 764 l 747 0 l 607 0 l 607 493 l 226 113 l 226 0 l 86 0 l 86 764 m 251 1085 l 331 1085 l 499 917 l 499 838 l 419 838 l 251 1006 l 251 1085 z "},"ў":{"ha":833,"x_min":86,"x_max":747,"o":"m 86 283 l 86 764 l 226 764 l 226 283 q 271 160 226 203 q 399 117 315 117 l 607 325 l 607 764 l 747 764 l 747 13 q 667 -203 747 -129 q 435 -278 588 -278 l 151 -278 l 151 -154 l 435 -154 q 563 -111 518 -154 q 607 13 607 -68 l 607 163 l 438 -7 l 399 -7 q 166 67 246 -7 q 86 283 86 142 m 194 1050 l 310 1050 q 417 929 310 929 q 525 1050 525 929 l 639 1050 q 582 888 639 944 q 417 832 525 832 q 251 888 308 832 q 194 1050 194 944 z "},"џ":{"ha":833,"x_min":86,"x_max":747,"o":"m 351 0 l 86 0 l 86 764 l 226 764 l 226 119 l 607 119 l 607 764 l 747 764 l 747 0 l 483 0 l 483 -208 l 351 -208 l 351 0 z "},"Ґ":{"ha":833,"x_min":110,"x_max":735,"o":"m 110 0 l 110 972 l 603 972 l 603 1111 l 735 1111 l 735 853 l 250 853 l 250 0 l 110 0 z "},"ґ":{"ha":833,"x_min":132,"x_max":718,"o":"m 132 0 l 132 764 l 586 764 l 586 972 l 718 972 l 718 644 l 272 644 l 272 0 l 132 0 z "},"Ә":{"ha":833,"x_min":82,"x_max":751,"o":"m 214 665 l 82 665 q 167 905 82 822 q 415 988 251 988 q 665 906 579 988 q 751 667 751 824 l 751 310 q 665 70 751 153 q 415 -12 579 -12 q 167 70 251 -12 q 82 310 82 153 l 82 529 l 611 529 l 611 667 q 560 815 611 764 q 411 865 508 865 q 265 814 315 865 q 214 665 214 763 m 611 411 l 214 411 l 214 310 q 265 161 214 213 q 411 110 315 110 q 560 161 508 110 q 611 310 611 213 l 611 411 z "},"ә":{"ha":833,"x_min":82,"x_max":751,"o":"m 82 435 l 611 435 l 611 471 q 556 609 611 561 q 399 657 501 657 q 222 526 222 657 l 82 526 q 163 715 82 650 q 400 779 244 779 q 661 700 571 779 q 751 471 751 621 l 751 289 q 666 63 751 140 q 418 -15 581 -15 q 168 65 254 -15 q 82 297 82 144 l 82 435 m 222 317 l 222 271 q 270 150 222 192 q 411 108 318 108 q 560 154 508 108 q 611 289 611 200 l 611 317 l 222 317 z "},"Ẁ":{"ha":833,"x_min":71,"x_max":763,"o":"m 247 -6 l 71 169 l 71 972 l 200 972 l 200 214 l 275 139 l 354 217 l 354 633 l 479 633 l 479 217 l 558 139 l 633 214 l 633 972 l 763 972 l 763 169 l 586 -6 l 526 -6 l 417 104 l 307 -6 l 247 -6 m 251 1283 l 331 1283 l 499 1115 l 499 1036 l 419 1036 l 251 1204 l 251 1283 z "},"ẁ":{"ha":833,"x_min":76,"x_max":757,"o":"m 250 -6 l 76 167 l 76 764 l 206 764 l 206 211 l 278 139 l 354 215 l 354 556 l 479 556 l 479 215 l 556 139 l 629 211 l 629 764 l 757 764 l 757 167 l 585 -6 l 524 -6 l 417 101 l 310 -6 l 250 -6 m 251 1085 l 331 1085 l 499 917 l 499 838 l 419 838 l 251 1006 l 251 1085 z "},"Ẃ":{"ha":833,"x_min":71,"x_max":763,"o":"m 247 -6 l 71 169 l 71 972 l 200 972 l 200 214 l 275 139 l 354 217 l 354 633 l 479 633 l 479 217 l 558 139 l 633 214 l 633 972 l 763 972 l 763 169 l 586 -6 l 526 -6 l 417 104 l 307 -6 l 247 -6 m 335 1036 l 335 1115 l 503 1283 l 582 1283 l 582 1204 l 414 1036 l 335 1036 z "},"ẃ":{"ha":833,"x_min":76,"x_max":757,"o":"m 250 -6 l 76 167 l 76 764 l 206 764 l 206 211 l 278 139 l 354 215 l 354 556 l 479 556 l 479 215 l 556 139 l 629 211 l 629 764 l 757 764 l 757 167 l 585 -6 l 524 -6 l 417 101 l 310 -6 l 250 -6 m 335 838 l 335 917 l 503 1085 l 582 1085 l 582 1006 l 414 838 l 335 838 z "},"Ẅ":{"ha":833,"x_min":71,"x_max":763,"o":"m 71 169 l 71 972 l 200 972 l 200 214 l 275 139 l 354 217 l 354 633 l 479 633 l 479 217 l 558 139 l 633 214 l 633 972 l 763 972 l 763 169 l 586 -6 l 526 -6 l 417 104 l 307 -6 l 247 -6 l 71 169 m 581 1261 q 649 1238 625 1261 q 672 1169 672 1214 q 581 1078 672 1078 q 490 1169 490 1078 q 581 1261 490 1261 m 185 1238 q 197 1249 185 1238 q 253 1261 208 1261 q 321 1238 297 1261 q 344 1169 344 1214 q 253 1078 344 1078 q 161 1169 161 1078 q 185 1238 161 1214 z "},"ẅ":{"ha":833,"x_min":76,"x_max":757,"o":"m 76 167 l 76 764 l 206 764 l 206 211 l 278 139 l 354 215 l 354 556 l 479 556 l 479 215 l 556 139 l 629 211 l 629 764 l 757 764 l 757 167 l 585 -6 l 524 -6 l 417 101 l 310 -6 l 250 -6 l 76 167 m 581 1063 q 672 971 672 1063 q 581 881 672 881 q 490 971 490 881 q 581 1063 490 1063 m 161 971 q 253 1063 161 1063 q 344 971 344 1063 q 253 881 344 881 q 161 971 161 881 z "},"ẞ":{"ha":833,"x_min":82,"x_max":751,"o":"m 82 0 l 82 972 l 701 972 l 701 810 l 488 594 q 684 514 617 585 q 751 318 751 443 l 751 279 q 673 72 751 143 q 444 0 594 0 l 338 0 l 338 124 l 444 124 q 569 163 526 124 q 611 279 611 203 l 611 318 q 568 433 611 393 q 444 474 525 474 l 378 474 l 315 596 l 561 842 l 561 853 l 222 853 l 222 0 l 82 0 z "},"Ỳ":{"ha":833,"x_min":86,"x_max":747,"o":"m 86 972 l 226 972 l 226 708 l 417 518 l 607 708 l 607 972 l 747 972 l 747 663 l 488 401 l 488 0 l 346 0 l 346 401 l 86 663 l 86 972 m 251 1283 l 331 1283 l 499 1115 l 499 1036 l 419 1036 l 251 1204 l 251 1283 z "},"ỳ":{"ha":833,"x_min":86,"x_max":747,"o":"m 86 283 l 86 764 l 226 764 l 226 283 q 271 160 226 203 q 399 117 315 117 l 607 325 l 607 764 l 747 764 l 747 13 q 667 -203 747 -129 q 435 -278 588 -278 l 151 -278 l 151 -154 l 435 -154 q 563 -111 518 -154 q 607 13 607 -68 l 607 163 l 438 -7 l 399 -7 q 166 67 246 -7 q 86 283 86 142 m 251 1085 l 331 1085 l 499 917 l 499 838 l 419 838 l 251 1006 l 251 1085 z "},"‒":{"ha":833,"x_min":117,"x_max":717,"o":"m 117 438 l 117 535 l 717 535 l 717 438 l 117 438 z "},"–":{"ha":833,"x_min":117,"x_max":717,"o":"m 117 396 l 117 493 l 717 493 l 717 396 l 117 396 z "},"—":{"ha":833,"x_min":47,"x_max":786,"o":"m 47 396 l 47 493 l 786 493 l 786 396 l 47 396 z "},"‘":{"ha":833,"x_min":318,"x_max":599,"o":"m 318 756 q 390 980 318 903 q 599 1057 463 1057 l 599 951 q 440 854 478 951 q 515 758 515 842 q 417 660 515 660 q 344 685 369 660 q 318 756 318 710 z "},"’":{"ha":833,"x_min":235,"x_max":515,"o":"m 235 660 l 235 765 q 393 863 354 765 q 318 960 318 875 q 417 1057 318 1057 q 490 1032 464 1057 q 515 961 515 1007 q 443 737 515 814 q 235 660 371 660 z "},"‚":{"ha":833,"x_min":235,"x_max":515,"o":"m 235 -217 l 235 -111 q 393 -14 356 -111 q 318 82 318 -1 q 417 181 318 181 q 490 156 464 181 q 515 85 515 131 q 443 -140 515 -62 q 235 -217 371 -217 z "},"‛":{"ha":833,"x_min":318,"x_max":599,"o":"m 318 961 q 344 1032 318 1007 q 417 1057 369 1057 q 515 960 515 1057 q 440 863 515 875 q 599 765 479 765 l 599 660 q 390 737 463 660 q 318 961 318 814 z "},"“":{"ha":833,"x_min":172,"x_max":744,"o":"m 744 1057 l 744 951 q 586 854 624 951 q 661 758 661 842 q 563 660 661 660 q 490 685 515 660 q 464 756 464 710 q 536 980 464 903 q 744 1057 608 1057 m 453 1057 l 453 951 q 294 854 332 951 q 369 758 369 842 q 271 660 369 660 q 198 685 224 660 q 172 756 172 710 q 244 980 172 903 q 453 1057 317 1057 z "},"”":{"ha":833,"x_min":89,"x_max":661,"o":"m 381 660 l 381 765 q 539 863 500 765 q 464 960 464 875 q 563 1057 464 1057 q 635 1032 610 1057 q 661 961 661 1007 q 589 737 661 814 q 381 660 517 660 m 89 660 l 89 765 q 247 863 208 765 q 172 960 172 875 q 271 1057 172 1057 q 344 1032 318 1057 q 369 961 369 1007 q 297 737 369 814 q 89 660 225 660 z "},"„":{"ha":833,"x_min":89,"x_max":661,"o":"m 381 -217 l 381 -111 q 539 -14 501 -111 q 464 82 464 -1 q 563 181 464 181 q 635 156 610 181 q 661 85 661 131 q 589 -140 661 -62 q 381 -217 517 -217 m 89 -217 l 89 -111 q 247 -14 210 -111 q 172 82 172 -1 q 271 181 172 181 q 344 156 318 181 q 369 85 369 131 q 297 -140 369 -62 q 89 -217 225 -217 z "},"‟":{"ha":833,"x_min":172,"x_max":744,"o":"m 172 961 q 198 1032 172 1007 q 271 1057 224 1057 q 369 960 369 1057 q 294 863 369 875 q 453 765 333 765 l 453 660 q 244 737 317 660 q 172 961 172 814 m 563 1057 q 661 960 661 1057 q 586 863 661 875 q 744 765 625 765 l 744 660 q 536 737 608 660 q 464 961 464 814 q 490 1032 464 1007 q 563 1057 515 1057 z "},"†":{"ha":833,"x_min":113,"x_max":721,"o":"m 368 689 l 113 689 l 113 786 l 368 786 l 368 1042 l 465 1042 l 465 786 l 721 786 l 721 689 l 465 689 l 465 0 l 368 0 l 368 689 z "},"‡":{"ha":833,"x_min":113,"x_max":721,"o":"m 368 689 l 113 689 l 113 786 l 368 786 l 368 1042 l 465 1042 l 465 786 l 721 786 l 721 689 l 465 689 l 465 353 l 721 353 l 721 256 l 465 256 l 465 0 l 368 0 l 368 256 l 113 256 l 113 353 l 368 353 l 368 689 z "},"•":{"ha":833,"x_min":233,"x_max":601,"o":"m 281 308 q 257 332 281 308 q 233 444 233 356 q 281 581 233 533 q 417 629 328 629 q 553 581 506 629 q 601 444 601 533 q 553 308 601 356 q 417 261 506 261 q 281 308 328 261 z "},"…":{"ha":833,"x_min":75,"x_max":758,"o":"m 758 76 q 758 32 758 76 q 669 -12 758 -12 q 581 76 581 -12 q 669 165 581 165 q 758 76 758 165 m 506 76 q 506 32 506 76 q 417 -12 506 -12 q 328 76 328 -12 q 417 165 328 165 q 506 76 506 165 m 164 -12 q 75 76 75 -12 q 164 165 75 165 q 254 76 254 165 q 164 -12 254 -12 z "},"‰":{"ha":833,"x_min":36,"x_max":803,"o":"m 460 393 q 560 343 526 393 q 660 393 593 393 q 803 190 803 393 q 660 -12 803 -12 q 560 38 594 -12 q 460 -12 525 -12 q 317 190 317 -12 q 460 393 317 393 m 186 0 l 63 0 l 63 300 l 619 857 l 619 972 l 743 972 l 743 813 l 186 256 l 186 0 m 83 942 q 106 965 83 942 q 219 988 129 988 q 357 942 310 988 q 404 807 404 896 q 356 673 404 719 q 219 626 308 626 q 83 673 131 626 q 36 807 36 719 q 83 942 36 896 m 142 808 q 142 765 142 808 q 219 721 142 721 q 297 808 297 721 q 219 896 297 896 q 142 808 142 896 m 601 190 q 656 85 601 85 q 710 190 710 85 q 656 297 710 297 q 601 190 601 297 m 410 190 q 464 85 410 85 q 518 190 518 85 q 464 297 518 297 q 410 190 410 297 z "},"‹":{"ha":833,"x_min":261,"x_max":574,"o":"m 261 406 l 261 483 l 501 724 l 574 724 l 574 617 l 532 617 l 360 444 l 532 272 l 574 272 l 574 164 l 501 164 l 261 406 z "},"›":{"ha":833,"x_min":261,"x_max":574,"o":"m 332 164 l 261 164 l 261 272 l 303 272 l 475 444 l 303 617 l 261 617 l 261 724 l 332 724 l 574 483 l 574 406 l 332 164 z "},"⁄":{"ha":833,"x_min":63,"x_max":771,"o":"m 63 215 l 647 801 l 647 972 l 771 972 l 771 757 l 186 172 l 186 0 l 63 0 l 63 215 z "},"€":{"ha":833,"x_min":57,"x_max":751,"o":"m 138 340 l 57 340 l 57 438 l 138 438 l 138 535 l 57 535 l 57 632 l 138 632 l 138 693 q 216 913 138 838 q 446 988 294 988 q 673 912 594 988 q 751 693 751 836 l 619 693 q 576 821 619 776 q 450 865 532 865 q 322 821 367 865 q 278 693 278 776 l 278 632 l 532 632 l 532 535 l 278 535 l 278 438 l 532 438 l 532 340 l 278 340 l 278 279 q 322 152 278 196 q 450 108 367 108 q 576 152 532 108 q 619 279 619 196 l 751 279 q 673 60 751 136 q 446 -15 594 -15 q 216 60 294 -15 q 138 279 138 135 l 138 340 z "},"₴":{"ha":833,"x_min":86,"x_max":747,"o":"m 747 333 l 357 333 l 272 249 q 401 119 272 119 l 703 119 l 703 0 l 401 0 q 200 63 269 0 q 131 249 131 126 l 131 294 l 171 333 l 86 333 l 86 431 l 268 431 l 378 540 l 86 540 l 86 638 l 475 638 l 561 725 q 432 853 561 853 l 139 853 l 139 972 l 432 972 q 633 909 564 972 q 703 725 703 846 l 703 679 l 663 638 l 747 638 l 747 540 l 565 540 l 454 431 l 747 431 l 747 333 z "},"№":{"ha":833,"x_min":57,"x_max":776,"o":"m 57 0 l 57 972 l 154 972 l 300 826 l 300 972 l 397 972 l 397 0 l 300 0 l 300 701 l 154 847 l 154 0 l 57 0 m 737 512 q 717 493 737 512 q 622 475 697 475 q 508 512 547 475 q 468 618 468 549 l 468 842 q 508 947 468 911 q 622 983 547 983 q 737 947 697 983 q 776 842 776 911 l 776 618 q 737 512 776 549 m 678 842 q 622 897 678 897 q 567 842 567 897 l 567 618 q 622 560 567 560 q 678 618 678 560 l 678 842 z "},"℗":{"ha":833,"x_min":68,"x_max":765,"o":"m 68 639 q 158 898 68 808 q 417 988 247 988 q 676 898 586 988 q 765 639 765 808 l 765 333 q 676 74 765 164 q 417 -15 586 -15 q 158 74 247 -15 q 68 333 68 164 l 68 639 m 603 826 q 571 858 603 826 q 417 890 539 890 q 230 826 294 890 q 165 639 165 761 l 165 333 q 230 147 165 211 q 417 82 294 82 q 603 147 539 82 q 668 333 668 211 l 668 639 q 603 826 668 761 m 261 243 l 261 729 l 425 729 q 547 690 504 729 q 589 579 589 651 q 547 467 589 506 q 425 428 504 428 l 358 428 l 358 243 l 261 243 m 358 511 l 425 511 q 492 579 492 511 q 425 646 492 646 l 358 646 l 358 511 z "},"™":{"ha":833,"x_min":39,"x_max":788,"o":"m 425 486 l 425 972 l 522 972 l 522 901 l 607 817 l 692 901 l 692 972 l 788 972 l 788 486 l 692 486 l 692 774 l 621 703 l 593 703 l 522 774 l 522 486 l 425 486 m 39 892 l 39 972 l 383 972 l 383 892 l 260 892 l 260 486 l 164 486 l 164 892 l 39 892 z "},"←":{"ha":833,"x_min":63,"x_max":771,"o":"m 63 525 l 339 801 l 417 801 l 417 676 l 375 676 l 185 486 l 375 296 l 417 296 l 417 171 l 339 171 l 63 447 l 63 525 m 314 429 l 314 543 l 771 543 l 771 429 l 314 429 z "},"↑":{"ha":833,"x_min":101,"x_max":732,"o":"m 101 486 l 101 564 l 378 840 l 456 840 l 732 564 l 732 486 l 607 486 l 607 528 l 417 718 l 226 528 l 226 486 l 101 486 m 474 132 l 360 132 l 360 589 l 474 589 l 474 132 z "},"→":{"ha":833,"x_min":63,"x_max":771,"o":"m 417 801 l 494 801 l 771 525 l 771 447 l 494 171 l 417 171 l 417 296 l 458 296 l 649 486 l 458 676 l 417 676 l 417 801 m 519 429 l 63 429 l 63 543 l 519 543 l 519 429 z "},"↓":{"ha":833,"x_min":101,"x_max":732,"o":"m 378 132 l 101 408 l 101 486 l 226 486 l 226 444 l 417 254 l 607 444 l 607 486 l 732 486 l 732 408 l 456 132 l 378 132 m 360 383 l 360 840 l 474 840 l 474 383 l 360 383 z "},"↖":{"ha":833,"x_min":139,"x_max":707,"o":"m 139 318 l 139 710 l 193 764 l 585 764 l 639 708 l 550 619 l 521 650 l 253 650 l 253 382 l 283 353 l 194 264 l 139 318 m 304 519 l 383 600 l 707 276 l 626 196 l 304 519 z "},"↗":{"ha":833,"x_min":139,"x_max":707,"o":"m 207 708 l 263 764 l 653 764 l 707 710 l 707 318 l 653 264 l 564 353 l 594 382 l 594 650 l 325 650 l 296 619 l 207 708 m 221 196 l 139 276 l 463 600 l 543 519 l 221 196 z "},"↘":{"ha":833,"x_min":139,"x_max":707,"o":"m 263 196 l 207 250 l 296 339 l 325 310 l 594 310 l 594 578 l 564 607 l 653 696 l 707 640 l 707 250 l 653 196 l 263 196 m 463 360 l 139 683 l 221 764 l 543 440 l 463 360 z "},"↙":{"ha":833,"x_min":139,"x_max":707,"o":"m 193 196 l 139 250 l 139 640 l 194 696 l 283 607 l 253 578 l 253 310 l 521 310 l 550 339 l 639 250 l 585 196 l 193 196 m 383 360 l 304 440 l 626 764 l 707 683 l 383 360 z "},"−":{"ha":833,"x_min":117,"x_max":717,"o":"m 117 438 l 117 535 l 717 535 l 717 438 l 117 438 z "},"≈":{"ha":833,"x_min":90,"x_max":743,"o":"m 188 536 l 90 536 q 140 687 90 635 q 282 739 189 739 q 374 720 335 739 q 433 679 414 701 q 483 638 453 657 q 549 619 513 619 q 646 726 646 619 l 743 726 q 694 574 743 626 q 551 522 644 522 q 459 541 499 522 q 400 582 419 560 q 351 623 381 604 q 285 642 321 642 q 188 536 188 642 m 282 442 q 374 423 335 442 q 433 382 414 404 q 483 341 453 360 q 549 322 513 322 q 646 429 646 322 l 743 429 q 694 278 743 331 q 551 225 644 225 q 459 244 499 225 q 400 285 419 263 q 351 326 381 307 q 285 344 321 344 q 188 239 188 344 l 90 239 q 140 390 90 338 q 282 442 189 442 z "},"≠":{"ha":833,"x_min":117,"x_max":717,"o":"m 465 382 l 717 382 l 717 285 l 465 285 l 465 168 l 368 168 l 368 285 l 117 285 l 117 382 l 368 382 l 368 590 l 117 590 l 117 688 l 368 688 l 368 804 l 465 804 l 465 688 l 717 688 l 717 590 l 465 590 l 465 382 z "},"≤":{"ha":833,"x_min":117,"x_max":717,"o":"m 117 614 l 117 692 l 332 906 l 717 906 l 717 810 l 372 810 l 217 653 l 372 497 l 717 497 l 717 400 l 332 400 l 117 614 m 717 146 l 117 146 l 117 243 l 717 243 l 717 146 z "},"≥":{"ha":833,"x_min":117,"x_max":717,"o":"m 501 400 l 117 400 l 117 497 l 461 497 l 617 653 l 461 810 l 117 810 l 117 906 l 501 906 l 717 692 l 717 614 l 501 400 m 717 146 l 117 146 l 117 243 l 717 243 l 717 146 z "},"ﬁ":{"ha":833,"x_min":67,"x_max":751,"o":"m 67 644 l 67 764 l 203 764 q 281 970 203 899 q 507 1042 358 1042 l 694 1042 l 694 918 l 507 918 q 386 878 428 918 q 344 764 344 839 l 751 764 l 751 0 l 611 0 l 611 644 l 344 644 l 344 0 l 203 0 l 203 644 l 67 644 z "},"ﬂ":{"ha":833,"x_min":67,"x_max":751,"o":"m 506 644 l 300 644 l 300 0 l 160 0 l 160 644 l 67 644 l 67 764 l 160 764 q 238 970 160 899 q 464 1042 315 1042 l 751 1042 l 751 0 l 611 0 l 611 918 l 464 918 q 342 878 383 918 q 300 764 300 839 l 506 764 l 506 644 z "}}}
